<svg width="370" height="134" viewBox="0 0 370 134" fill="none" xmlns="http://www.w3.org/2000/svg">
<rect width="370" height="134" fill="white"/>
<rect x="33.5" y="55.5" width="302" height="34" rx="5.5" fill="white" stroke="#E7E7E7"/>
<path d="M47.5241 77.1392C46.8414 77.1392 46.2315 77.0215 45.6946 76.7862C45.161 76.5509 44.7384 76.2244 44.4268 75.8068C44.1186 75.3859 43.9529 74.8987 43.9297 74.3452H45.4908C45.5107 74.6468 45.6117 74.9086 45.794 75.1307C45.9796 75.3494 46.2216 75.5185 46.5199 75.6378C46.8182 75.7571 47.1496 75.8168 47.5142 75.8168C47.9152 75.8168 48.2699 75.7472 48.5781 75.608C48.8897 75.4687 49.1333 75.2749 49.3089 75.0263C49.4846 74.7744 49.5724 74.4844 49.5724 74.1562C49.5724 73.8149 49.4846 73.5149 49.3089 73.2564C49.1366 72.9946 48.883 72.7891 48.5483 72.6399C48.2169 72.4908 47.8158 72.4162 47.3452 72.4162H46.4851V71.1634H47.3452C47.723 71.1634 48.0545 71.0954 48.3395 70.9595C48.6278 70.8236 48.8532 70.6347 49.0156 70.3928C49.178 70.1475 49.2592 69.8608 49.2592 69.5327C49.2592 69.2178 49.188 68.9444 49.0455 68.7124C48.9063 68.477 48.7074 68.2931 48.4489 68.1605C48.1937 68.0279 47.892 67.9616 47.544 67.9616C47.2126 67.9616 46.9027 68.023 46.6143 68.1456C46.3293 68.2649 46.0973 68.4373 45.9183 68.6626C45.7393 68.8847 45.6432 69.1515 45.63 69.4631H44.1435C44.16 68.9129 44.3224 68.429 44.6307 68.0114C44.9422 67.5937 45.3532 67.2673 45.8636 67.032C46.3741 66.7966 46.9408 66.679 47.5639 66.679C48.2169 66.679 48.7803 66.8066 49.2543 67.0618C49.7315 67.3137 50.0994 67.6501 50.358 68.071C50.6198 68.492 50.7491 68.9527 50.7457 69.4531C50.7491 70.0232 50.59 70.5071 50.2685 70.9048C49.9503 71.3026 49.526 71.5694 48.9957 71.7053V71.7848C49.6719 71.8875 50.1955 72.156 50.5668 72.5902C50.9413 73.0244 51.1269 73.563 51.1236 74.206C51.1269 74.7661 50.9711 75.2682 50.6562 75.7124C50.3447 76.1565 49.9188 76.5062 49.3786 76.7614C48.8383 77.0133 48.2202 77.1392 47.5241 77.1392ZM53.0659 77L57.5105 68.2102V68.1357H52.3699V66.8182H59.1014V68.1804L54.6717 77H53.0659Z" fill="#212121"/>
<path d="M43.1023 37.9091C43.1023 39.0062 42.8968 39.9458 42.4858 40.728C42.0781 41.5069 41.5213 42.1035 40.8153 42.5178C40.1127 42.9321 39.3156 43.1392 38.424 43.1392C37.5324 43.1392 36.7337 42.9321 36.0277 42.5178C35.325 42.1001 34.7682 41.5019 34.3572 40.723C33.9496 39.9408 33.7457 39.0028 33.7457 37.9091C33.7457 36.812 33.9496 35.8741 34.3572 35.0952C34.7682 34.313 35.325 33.7147 36.0277 33.3004C36.7337 32.8861 37.5324 32.679 38.424 32.679C39.3156 32.679 40.1127 32.8861 40.8153 33.3004C41.5213 33.7147 42.0781 34.313 42.4858 35.0952C42.8968 35.8741 43.1023 36.812 43.1023 37.9091ZM41.2479 37.9091C41.2479 37.1368 41.1269 36.4856 40.8849 35.9553C40.6463 35.4216 40.3149 35.0189 39.8906 34.7472C39.4664 34.4721 38.9775 34.3345 38.424 34.3345C37.8705 34.3345 37.3816 34.4721 36.9574 34.7472C36.5331 35.0189 36.2 35.4216 35.9581 35.9553C35.7195 36.4856 35.6001 37.1368 35.6001 37.9091C35.6001 38.6813 35.7195 39.3343 35.9581 39.8679C36.2 40.3982 36.5331 40.8009 36.9574 41.076C37.3816 41.3478 37.8705 41.4837 38.424 41.4837C38.9775 41.4837 39.4664 41.3478 39.8906 41.076C40.3149 40.8009 40.6463 40.3982 40.8849 39.8679C41.1269 39.3343 41.2479 38.6813 41.2479 37.9091ZM44.4865 43V35.3636H46.2315V36.6364H46.3111C46.4503 36.1955 46.6889 35.8558 47.027 35.6172C47.3684 35.3752 47.7578 35.2543 48.1953 35.2543C48.2948 35.2543 48.4058 35.2592 48.5284 35.2692C48.6544 35.2758 48.7588 35.2874 48.8416 35.304V36.9595C48.7654 36.933 48.6444 36.9098 48.4787 36.8899C48.3163 36.8667 48.1589 36.8551 48.0064 36.8551C47.6783 36.8551 47.3833 36.9264 47.1215 37.0689C46.8629 37.2081 46.6591 37.402 46.51 37.6506C46.3608 37.8991 46.2862 38.1858 46.2862 38.5107V43H44.4865ZM52.7639 46.0227C52.1176 46.0227 51.5624 45.9349 51.0984 45.7592C50.6344 45.5869 50.2615 45.3549 49.9798 45.0632C49.698 44.7715 49.5025 44.4484 49.3931 44.0938L51.0139 43.701C51.0868 43.8501 51.1928 43.9976 51.332 44.1435C51.4712 44.2926 51.6585 44.4152 51.8938 44.5114C52.1325 44.6108 52.4324 44.6605 52.7937 44.6605C53.3041 44.6605 53.7267 44.5362 54.0614 44.2876C54.3962 44.0424 54.5636 43.638 54.5636 43.0746V41.6278H54.4741C54.3813 41.8134 54.2454 42.004 54.0664 42.1996C53.8908 42.3951 53.6571 42.5592 53.3654 42.6918C53.0771 42.8243 52.7141 42.8906 52.2766 42.8906C51.69 42.8906 51.158 42.7531 50.6808 42.478C50.2068 42.1996 49.829 41.7853 49.5472 41.2351C49.2688 40.6816 49.1296 39.9889 49.1296 39.157C49.1296 38.3184 49.2688 37.6108 49.5472 37.0341C49.829 36.4541 50.2085 36.0149 50.6857 35.7166C51.163 35.415 51.695 35.2642 52.2816 35.2642C52.7291 35.2642 53.097 35.3404 53.3853 35.4929C53.677 35.642 53.909 35.8227 54.0813 36.0348C54.2537 36.2436 54.3846 36.4408 54.4741 36.6264H54.5735V35.3636H56.3484V43.1243C56.3484 43.7772 56.1926 44.3175 55.8811 44.745C55.5695 45.1726 55.1436 45.4924 54.6034 45.7045C54.0631 45.9167 53.4499 46.0227 52.7639 46.0227ZM52.7788 41.4787C53.1599 41.4787 53.4847 41.3859 53.7532 41.2003C54.0217 41.0147 54.2255 40.7479 54.3647 40.3999C54.5039 40.0518 54.5735 39.6342 54.5735 39.147C54.5735 38.6664 54.5039 38.2455 54.3647 37.8842C54.2288 37.523 54.0266 37.2429 53.7582 37.044C53.493 36.8419 53.1666 36.7408 52.7788 36.7408C52.3777 36.7408 52.043 36.8452 51.7745 37.054C51.5061 37.2628 51.3039 37.5495 51.168 37.9141C51.0321 38.2753 50.9641 38.6863 50.9641 39.147C50.9641 39.6143 51.0321 40.0237 51.168 40.375C51.3072 40.723 51.511 40.9948 51.7795 41.1903C52.0513 41.3826 52.3844 41.4787 52.7788 41.4787ZM60.1103 43.1541C59.6264 43.1541 59.1905 43.0679 58.8028 42.8956C58.4183 42.7199 58.1134 42.4614 57.888 42.12C57.6659 41.7786 57.5549 41.3577 57.5549 40.8572C57.5549 40.4264 57.6344 40.0701 57.7935 39.7884C57.9526 39.5066 58.1697 39.2812 58.4448 39.1122C58.7199 38.9432 59.0298 38.8156 59.3745 38.7294C59.7225 38.6399 60.0821 38.5753 60.4533 38.5355C60.9008 38.4891 61.2637 38.4477 61.5421 38.4112C61.8205 38.3714 62.0227 38.3118 62.1486 38.2322C62.2779 38.1494 62.3425 38.0218 62.3425 37.8494V37.8196C62.3425 37.4451 62.2315 37.1551 62.0094 36.9496C61.7874 36.7441 61.4675 36.6413 61.0499 36.6413C60.6091 36.6413 60.2594 36.7375 60.0009 36.9297C59.7457 37.1219 59.5734 37.349 59.4839 37.6108L57.8035 37.3722C57.936 36.9081 58.1548 36.5204 58.4597 36.2088C58.7646 35.8939 59.1375 35.6586 59.5783 35.5028C60.0191 35.3438 60.5064 35.2642 61.04 35.2642C61.4079 35.2642 61.7741 35.3073 62.1387 35.3935C62.5033 35.4796 62.8364 35.6222 63.138 35.821C63.4396 36.0166 63.6815 36.2834 63.8638 36.6214C64.0494 36.9595 64.1422 37.3821 64.1422 37.8892V43H62.4121V41.951H62.3525C62.2431 42.1631 62.089 42.362 61.8901 42.5476C61.6946 42.7299 61.4476 42.8774 61.1493 42.9901C60.8544 43.0994 60.508 43.1541 60.1103 43.1541ZM60.5776 41.8317C60.9389 41.8317 61.2521 41.7604 61.5172 41.6179C61.7824 41.4721 61.9862 41.2798 62.1287 41.0412C62.2746 40.8026 62.3475 40.5424 62.3475 40.2607V39.3608C62.2912 39.4072 62.195 39.4503 62.0591 39.4901C61.9266 39.5298 61.7774 39.5646 61.6117 39.5945C61.446 39.6243 61.2819 39.6508 61.1195 39.674C60.9571 39.6972 60.8162 39.7171 60.6969 39.7337C60.4285 39.7701 60.1882 39.8298 59.9761 39.9126C59.7639 39.9955 59.5966 40.1115 59.4739 40.2607C59.3513 40.4065 59.29 40.5954 59.29 40.8274C59.29 41.1589 59.4109 41.4091 59.6529 41.5781C59.8948 41.7472 60.2031 41.8317 60.5776 41.8317ZM67.4716 38.5256V43H65.6719V35.3636H67.3921V36.6612H67.4816C67.6572 36.2337 67.9373 35.8939 68.3218 35.642C68.7095 35.3902 69.1885 35.2642 69.7586 35.2642C70.2855 35.2642 70.7446 35.3769 71.1357 35.6023C71.5301 35.8277 71.835 36.1541 72.0505 36.5817C72.2692 37.0092 72.3769 37.5279 72.3736 38.1378V43H70.5739V38.4162C70.5739 37.9058 70.4413 37.5064 70.1762 37.218C69.9143 36.9297 69.5514 36.7855 69.0874 36.7855C68.7725 36.7855 68.4925 36.8551 68.2472 36.9943C68.0052 37.1302 67.8147 37.3274 67.6755 37.5859C67.5396 37.8445 67.4716 38.1577 67.4716 38.5256ZM73.9232 43V35.3636H75.7229V43H73.9232ZM74.828 34.2798C74.5429 34.2798 74.2977 34.1854 74.0922 33.9964C73.8867 33.8042 73.7839 33.5739 73.7839 33.3054C73.7839 33.0336 73.8867 32.8033 74.0922 32.6143C74.2977 32.4221 74.5429 32.326 74.828 32.326C75.1163 32.326 75.3616 32.4221 75.5638 32.6143C75.7693 32.8033 75.872 33.0336 75.872 33.3054C75.872 33.5739 75.7693 33.8042 75.5638 33.9964C75.3616 34.1854 75.1163 34.2798 74.828 34.2798ZM77.1941 43V41.8565L81.1316 36.9197V36.8551H77.3234V35.3636H83.334V36.5916L79.5854 41.4439V41.5085H83.4633V43H77.1941ZM87.0723 43.1541C86.5884 43.1541 86.1526 43.0679 85.7648 42.8956C85.3803 42.7199 85.0754 42.4614 84.85 42.12C84.628 41.7786 84.5169 41.3577 84.5169 40.8572C84.5169 40.4264 84.5965 40.0701 84.7556 39.7884C84.9146 39.5066 85.1317 39.2812 85.4068 39.1122C85.6819 38.9432 85.9918 38.8156 86.3365 38.7294C86.6845 38.6399 87.0441 38.5753 87.4154 38.5355C87.8628 38.4891 88.2257 38.4477 88.5041 38.4112C88.7825 38.3714 88.9847 38.3118 89.1107 38.2322C89.2399 38.1494 89.3046 38.0218 89.3046 37.8494V37.8196C89.3046 37.4451 89.1935 37.1551 88.9715 36.9496C88.7494 36.7441 88.4296 36.6413 88.0119 36.6413C87.5711 36.6413 87.2215 36.7375 86.9629 36.9297C86.7077 37.1219 86.5354 37.349 86.4459 37.6108L84.7655 37.3722C84.8981 36.9081 85.1168 36.5204 85.4217 36.2088C85.7267 35.8939 86.0995 35.6586 86.5404 35.5028C86.9812 35.3438 87.4684 35.2642 88.002 35.2642C88.3699 35.2642 88.7361 35.3073 89.1007 35.3935C89.4653 35.4796 89.7984 35.6222 90.1 35.821C90.4016 36.0166 90.6436 36.2834 90.8259 36.6214C91.0115 36.9595 91.1043 37.3821 91.1043 37.8892V43H89.3742V41.951H89.3145C89.2051 42.1631 89.051 42.362 88.8521 42.5476C88.6566 42.7299 88.4097 42.8774 88.1114 42.9901C87.8164 43.0994 87.47 43.1541 87.0723 43.1541ZM87.5396 41.8317C87.9009 41.8317 88.2141 41.7604 88.4793 41.6179C88.7444 41.4721 88.9483 41.2798 89.0908 41.0412C89.2366 40.8026 89.3095 40.5424 89.3095 40.2607V39.3608C89.2532 39.4072 89.1571 39.4503 89.0212 39.4901C88.8886 39.5298 88.7395 39.5646 88.5737 39.5945C88.408 39.6243 88.244 39.6508 88.0815 39.674C87.9191 39.6972 87.7783 39.7171 87.659 39.7337C87.3905 39.7701 87.1502 39.8298 86.9381 39.9126C86.726 39.9955 86.5586 40.1115 86.436 40.2607C86.3133 40.4065 86.252 40.5954 86.252 40.8274C86.252 41.1589 86.373 41.4091 86.6149 41.5781C86.8569 41.7472 87.1651 41.8317 87.5396 41.8317ZM96.4471 35.3636V36.7557H92.0572V35.3636H96.4471ZM93.141 33.5341H94.9408V40.7031C94.9408 40.9451 94.9772 41.1307 95.0501 41.2599C95.1264 41.3859 95.2258 41.4721 95.3484 41.5185C95.4711 41.5649 95.6069 41.5881 95.7561 41.5881C95.8688 41.5881 95.9715 41.5798 96.0643 41.5632C96.1604 41.5466 96.2334 41.5317 96.2831 41.5185L96.5863 42.9254C96.4902 42.9586 96.3527 42.995 96.1737 43.0348C95.998 43.0746 95.7826 43.0978 95.5274 43.1044C95.0766 43.1177 94.6706 43.0497 94.3094 42.9006C93.9481 42.7481 93.6614 42.5128 93.4493 42.1946C93.2405 41.8764 93.1377 41.4787 93.141 41.0014V33.5341ZM97.6723 43V35.3636H99.472V43H97.6723ZM98.5771 34.2798C98.2921 34.2798 98.0468 34.1854 97.8413 33.9964C97.6358 33.8042 97.5331 33.5739 97.5331 33.3054C97.5331 33.0336 97.6358 32.8033 97.8413 32.6143C98.0468 32.4221 98.2921 32.326 98.5771 32.326C98.8655 32.326 99.1107 32.4221 99.3129 32.6143C99.5184 32.8033 99.6212 33.0336 99.6212 33.3054C99.6212 33.5739 99.5184 33.8042 99.3129 33.9964C99.1107 34.1854 98.8655 34.2798 98.5771 34.2798ZM104.374 43.1491C103.628 43.1491 102.982 42.9851 102.435 42.657C101.888 42.3288 101.464 41.8698 101.162 41.2798C100.864 40.6899 100.715 40.0005 100.715 39.2116C100.715 38.4228 100.864 37.7318 101.162 37.1385C101.464 36.5452 101.888 36.0845 102.435 35.7564C102.982 35.4283 103.628 35.2642 104.374 35.2642C105.119 35.2642 105.766 35.4283 106.313 35.7564C106.859 36.0845 107.282 36.5452 107.58 37.1385C107.882 37.7318 108.033 38.4228 108.033 39.2116C108.033 40.0005 107.882 40.6899 107.58 41.2798C107.282 41.8698 106.859 42.3288 106.313 42.657C105.766 42.9851 105.119 43.1491 104.374 43.1491ZM104.384 41.7074C104.788 41.7074 105.126 41.5964 105.398 41.3743C105.67 41.1489 105.872 40.8473 106.004 40.4695C106.14 40.0916 106.208 39.6707 106.208 39.2067C106.208 38.7393 106.14 38.3168 106.004 37.9389C105.872 37.5578 105.67 37.2545 105.398 37.0291C105.126 36.8037 104.788 36.6911 104.384 36.6911C103.969 36.6911 103.625 36.8037 103.349 37.0291C103.078 37.2545 102.874 37.5578 102.738 37.9389C102.605 38.3168 102.539 38.7393 102.539 39.2067C102.539 39.6707 102.605 40.0916 102.738 40.4695C102.874 40.8473 103.078 41.1489 103.349 41.3743C103.625 41.5964 103.969 41.7074 104.384 41.7074ZM111.08 38.5256V43H109.28V35.3636H111V36.6612H111.09C111.266 36.2337 111.546 35.8939 111.93 35.642C112.318 35.3902 112.797 35.2642 113.367 35.2642C113.894 35.2642 114.353 35.3769 114.744 35.6023C115.138 35.8277 115.443 36.1541 115.659 36.5817C115.878 37.0092 115.985 37.5279 115.982 38.1378V43H114.182V38.4162C114.182 37.9058 114.05 37.5064 113.785 37.218C113.523 36.9297 113.16 36.7855 112.696 36.7855C112.381 36.7855 112.101 36.8551 111.856 36.9943C111.614 37.1302 111.423 37.3274 111.284 37.5859C111.148 37.8445 111.08 38.1577 111.08 38.5256ZM122.648 32.8182V43H120.804V32.8182H122.648ZM127.816 43H124.366V32.8182H127.885C128.896 32.8182 129.765 33.022 130.491 33.4297C131.22 33.834 131.78 34.4157 132.171 35.1747C132.562 35.9337 132.758 36.8419 132.758 37.8991C132.758 38.9598 132.56 39.8712 132.166 40.6335C131.775 41.3958 131.21 41.9808 130.471 42.3885C129.735 42.7962 128.85 43 127.816 43ZM126.21 41.4041H127.726C128.436 41.4041 129.027 41.2749 129.501 41.0163C129.975 40.7545 130.331 40.3651 130.57 39.848C130.809 39.3277 130.928 38.678 130.928 37.8991C130.928 37.1203 130.809 36.474 130.57 35.9602C130.331 35.4432 129.978 35.0571 129.511 34.8018C129.047 34.5433 128.47 34.4141 127.781 34.4141H126.21V41.4041Z" fill="#212121"/>
<rect x="243" y="60" width="65" height="25" rx="12.5" fill="#567BFC"/>
<path d="M259.335 77H257.647L260.72 68.2727H262.671L265.748 77H264.06L261.729 70.0625H261.661L259.335 77ZM259.39 73.5781H263.992V74.848H259.39V73.5781ZM268.819 77.1151C268.305 77.1151 267.845 76.983 267.438 76.7188C267.032 76.4545 266.711 76.071 266.475 75.5682C266.239 75.0653 266.122 74.4545 266.122 73.7358C266.122 73.0085 266.241 72.3949 266.48 71.8949C266.721 71.392 267.046 71.0128 267.455 70.7571C267.864 70.4986 268.32 70.3693 268.823 70.3693C269.207 70.3693 269.522 70.4347 269.769 70.5653C270.016 70.6932 270.212 70.848 270.357 71.0298C270.502 71.2088 270.614 71.3778 270.694 71.5369H270.758V68.2727H272.305V77H270.788V75.9688H270.694C270.614 76.1278 270.499 76.2969 270.349 76.4759C270.198 76.652 269.999 76.8026 269.752 76.9276C269.505 77.0526 269.194 77.1151 268.819 77.1151ZM269.249 75.8494C269.576 75.8494 269.855 75.7614 270.085 75.5852C270.315 75.4062 270.489 75.1577 270.609 74.8395C270.728 74.5213 270.788 74.1506 270.788 73.7273C270.788 73.304 270.728 72.9361 270.609 72.6236C270.492 72.3111 270.319 72.0682 270.089 71.8949C269.862 71.7216 269.582 71.6349 269.249 71.6349C268.906 71.6349 268.619 71.7244 268.389 71.9034C268.159 72.0824 267.985 72.3295 267.869 72.6449C267.752 72.9602 267.694 73.321 267.694 73.7273C267.694 74.1364 267.752 74.5014 267.869 74.8224C267.988 75.1406 268.163 75.392 268.393 75.5767C268.626 75.7585 268.911 75.8494 269.249 75.8494ZM273.709 77V70.4545H275.183V71.5668H275.26C275.396 71.1918 275.622 70.8991 275.937 70.6889C276.253 70.4759 276.629 70.3693 277.067 70.3693C277.51 70.3693 277.883 70.4773 278.187 70.6932C278.494 70.9062 278.71 71.1974 278.835 71.5668H278.903C279.048 71.2031 279.292 70.9134 279.636 70.6974C279.983 70.4787 280.393 70.3693 280.868 70.3693C281.47 70.3693 281.961 70.5597 282.342 70.9403C282.723 71.321 282.913 71.8764 282.913 72.6065V77H281.366V72.8452C281.366 72.4389 281.258 72.142 281.042 71.9545C280.827 71.7642 280.562 71.669 280.25 71.669C279.878 71.669 279.586 71.7855 279.376 72.0185C279.169 72.2486 279.065 72.5483 279.065 72.9176V77H277.552V72.7812C277.552 72.4432 277.45 72.1733 277.246 71.9716C277.044 71.7699 276.78 71.669 276.453 71.669C276.231 71.669 276.03 71.7259 275.848 71.8395C275.666 71.9503 275.521 72.108 275.413 72.3125C275.305 72.5142 275.251 72.75 275.251 73.0199V77H273.709ZM284.238 77V70.4545H285.781V77H284.238ZM285.014 69.5256C284.769 69.5256 284.559 69.4446 284.383 69.2827C284.207 69.1179 284.119 68.9205 284.119 68.6903C284.119 68.4574 284.207 68.2599 284.383 68.098C284.559 67.9332 284.769 67.8509 285.014 67.8509C285.261 67.8509 285.471 67.9332 285.644 68.098C285.821 68.2599 285.909 68.4574 285.909 68.6903C285.909 68.9205 285.821 69.1179 285.644 69.2827C285.471 69.4446 285.261 69.5256 285.014 69.5256ZM288.67 73.1648V77H287.127V70.4545H288.601V71.5668H288.678C288.829 71.2003 289.069 70.9091 289.398 70.6932C289.731 70.4773 290.141 70.3693 290.63 70.3693C291.082 70.3693 291.475 70.4659 291.81 70.6591C292.148 70.8523 292.41 71.1321 292.594 71.4986C292.782 71.8651 292.874 72.3097 292.871 72.8324V77H291.329V73.071C291.329 72.6335 291.215 72.2912 290.988 72.044C290.763 71.7969 290.452 71.6733 290.055 71.6733C289.785 71.6733 289.545 71.733 289.334 71.8523C289.127 71.9687 288.964 72.1378 288.844 72.3594C288.728 72.581 288.67 72.8494 288.67 73.1648Z" fill="white"/>
<rect x="317" y="71.2427" width="1" height="6" transform="rotate(-45 317 71.2427)" fill="#212121"/>
<rect x="321.243" y="75.4854" width="1" height="6" transform="rotate(-135 321.243 75.4854)" fill="#212121"/>
</svg>
