<svg width="520" height="382" viewBox="0 0 520 382" fill="none" xmlns="http://www.w3.org/2000/svg">
<rect width="520" height="382" fill="white"/>
<rect x="43.5" y="66.5" width="432" height="34" rx="5.5" fill="white" stroke="#E7E7E7"/>
<rect x="43.5" y="143.5" width="432" height="34" rx="5.5" fill="white" stroke="#E7E7E7"/>
<rect x="43.5" y="220.5" width="432" height="34" rx="5.5" fill="white" stroke="#E7E7E7"/>
<rect x="43.5" y="296.5" width="432" height="34" rx="5.5" fill="white" stroke="#E7E7E7"/>
<path d="M47.4545 211H44.0043V200.818H47.5241C48.535 200.818 49.4034 201.022 50.1293 201.43C50.8584 201.834 51.4186 202.416 51.8097 203.175C52.2008 203.934 52.3963 204.842 52.3963 205.899C52.3963 206.96 52.1991 207.871 51.8047 208.634C51.4136 209.396 50.8485 209.981 50.1094 210.388C49.3736 210.796 48.4886 211 47.4545 211ZM45.8487 209.404H47.3651C48.0743 209.404 48.666 209.275 49.1399 209.016C49.6139 208.754 49.9702 208.365 50.2088 207.848C50.4474 207.328 50.5668 206.678 50.5668 205.899C50.5668 205.12 50.4474 204.474 50.2088 203.96C49.9702 203.443 49.6172 203.057 49.1499 202.802C48.6858 202.543 48.1091 202.414 47.4197 202.414H45.8487V209.404ZM55.9867 211.154C55.5028 211.154 55.0669 211.068 54.6792 210.896C54.2947 210.72 53.9898 210.461 53.7644 210.12C53.5423 209.779 53.4313 209.358 53.4313 208.857C53.4313 208.426 53.5108 208.07 53.6699 207.788C53.829 207.507 54.0461 207.281 54.3212 207.112C54.5963 206.943 54.9062 206.816 55.2509 206.729C55.5989 206.64 55.9585 206.575 56.3297 206.536C56.7772 206.489 57.1401 206.448 57.4185 206.411C57.6969 206.371 57.8991 206.312 58.025 206.232C58.1543 206.149 58.2189 206.022 58.2189 205.849V205.82C58.2189 205.445 58.1079 205.155 57.8858 204.95C57.6638 204.744 57.3439 204.641 56.9263 204.641C56.4855 204.641 56.1358 204.737 55.8773 204.93C55.6221 205.122 55.4498 205.349 55.3603 205.611L53.6799 205.372C53.8124 204.908 54.0312 204.52 54.3361 204.209C54.641 203.894 55.0139 203.659 55.4547 203.503C55.8955 203.344 56.3828 203.264 56.9164 203.264C57.2843 203.264 57.6505 203.307 58.0151 203.393C58.3797 203.48 58.7128 203.622 59.0144 203.821C59.316 204.017 59.558 204.283 59.7402 204.621C59.9258 204.96 60.0187 205.382 60.0187 205.889V211H58.2885V209.951H58.2289C58.1195 210.163 57.9654 210.362 57.7665 210.548C57.571 210.73 57.324 210.877 57.0258 210.99C56.7308 211.099 56.3844 211.154 55.9867 211.154ZM56.454 209.832C56.8153 209.832 57.1285 209.76 57.3937 209.618C57.6588 209.472 57.8626 209.28 58.0052 209.041C58.151 208.803 58.2239 208.542 58.2239 208.261V207.361C58.1676 207.407 58.0714 207.45 57.9356 207.49C57.803 207.53 57.6538 207.565 57.4881 207.594C57.3224 207.624 57.1583 207.651 56.9959 207.674C56.8335 207.697 56.6927 207.717 56.5733 207.734C56.3049 207.77 56.0646 207.83 55.8525 207.913C55.6403 207.996 55.473 208.112 55.3503 208.261C55.2277 208.406 55.1664 208.595 55.1664 208.827C55.1664 209.159 55.2874 209.409 55.5293 209.578C55.7713 209.747 56.0795 209.832 56.454 209.832ZM65.3615 203.364V204.756H60.9716V203.364H65.3615ZM62.0554 201.534H63.8551V208.703C63.8551 208.945 63.8916 209.131 63.9645 209.26C64.0407 209.386 64.1402 209.472 64.2628 209.518C64.3854 209.565 64.5213 209.588 64.6705 209.588C64.7832 209.588 64.8859 209.58 64.9787 209.563C65.0748 209.547 65.1477 209.532 65.1975 209.518L65.5007 210.925C65.4046 210.959 65.2671 210.995 65.0881 211.035C64.9124 211.075 64.697 211.098 64.4418 211.104C63.991 211.118 63.585 211.05 63.2237 210.901C62.8625 210.748 62.5758 210.513 62.3637 210.195C62.1548 209.876 62.0521 209.479 62.0554 209.001V201.534ZM68.7841 211.154C68.3002 211.154 67.8644 211.068 67.4766 210.896C67.0921 210.72 66.7872 210.461 66.5618 210.12C66.3397 209.779 66.2287 209.358 66.2287 208.857C66.2287 208.426 66.3083 208.07 66.4674 207.788C66.6264 207.507 66.8435 207.281 67.1186 207.112C67.3937 206.943 67.7036 206.816 68.0483 206.729C68.3963 206.64 68.7559 206.575 69.1272 206.536C69.5746 206.489 69.9375 206.448 70.2159 206.411C70.4943 206.371 70.6965 206.312 70.8225 206.232C70.9517 206.149 71.0164 206.022 71.0164 205.849V205.82C71.0164 205.445 70.9053 205.155 70.6833 204.95C70.4612 204.744 70.1414 204.641 69.7237 204.641C69.2829 204.641 68.9333 204.737 68.6747 204.93C68.4195 205.122 68.2472 205.349 68.1577 205.611L66.4773 205.372C66.6099 204.908 66.8286 204.52 67.1335 204.209C67.4385 203.894 67.8113 203.659 68.2522 203.503C68.693 203.344 69.1802 203.264 69.7138 203.264C70.0817 203.264 70.4479 203.307 70.8125 203.393C71.1771 203.48 71.5102 203.622 71.8118 203.821C72.1134 204.017 72.3554 204.283 72.5377 204.621C72.7233 204.96 72.8161 205.382 72.8161 205.889V211H71.086V209.951H71.0263C70.9169 210.163 70.7628 210.362 70.5639 210.548C70.3684 210.73 70.1215 210.877 69.8232 210.99C69.5282 211.099 69.1818 211.154 68.7841 211.154ZM69.2514 209.832C69.6127 209.832 69.9259 209.76 70.1911 209.618C70.4562 209.472 70.6601 209.28 70.8026 209.041C70.9484 208.803 71.0213 208.542 71.0213 208.261V207.361C70.965 207.407 70.8689 207.45 70.733 207.49C70.6004 207.53 70.4513 207.565 70.2855 207.594C70.1198 207.624 69.9558 207.651 69.7933 207.674C69.6309 207.697 69.4901 207.717 69.3708 207.734C69.1023 207.77 68.862 207.83 68.6499 207.913C68.4378 207.996 68.2704 208.112 68.1477 208.261C68.0251 208.406 67.9638 208.595 67.9638 208.827C67.9638 209.159 68.0848 209.409 68.3267 209.578C68.5687 209.747 68.8769 209.832 69.2514 209.832ZM80.3812 205.382L78.7406 205.561C78.6942 205.395 78.613 205.24 78.497 205.094C78.3843 204.948 78.2319 204.83 78.0396 204.741C77.8474 204.651 77.6121 204.607 77.3337 204.607C76.9591 204.607 76.6443 204.688 76.3891 204.85C76.1372 205.013 76.0129 205.223 76.0162 205.482C76.0129 205.704 76.0941 205.884 76.2598 206.023C76.4288 206.163 76.7072 206.277 77.095 206.366L78.3976 206.645C79.1201 206.801 79.657 207.048 80.0084 207.386C80.363 207.724 80.542 208.166 80.5453 208.713C80.542 209.194 80.4011 209.618 80.1227 209.986C79.8476 210.35 79.4648 210.635 78.9743 210.841C78.4838 211.046 77.9203 211.149 77.2839 211.149C76.3493 211.149 75.5969 210.954 75.0268 210.562C74.4568 210.168 74.117 209.62 74.0077 208.917L75.7626 208.748C75.8422 209.093 76.0112 209.353 76.2697 209.528C76.5283 209.704 76.8647 209.792 77.279 209.792C77.7065 209.792 78.0496 209.704 78.3081 209.528C78.5699 209.353 78.7008 209.136 78.7008 208.877C78.7008 208.658 78.6163 208.478 78.4473 208.335C78.2816 208.193 78.0231 208.083 77.6717 208.007L76.3692 207.734C75.6367 207.581 75.0948 207.324 74.7435 206.963C74.3921 206.598 74.2181 206.138 74.2214 205.581C74.2181 205.11 74.3457 204.703 74.6043 204.358C74.8661 204.01 75.229 203.741 75.693 203.553C76.1604 203.36 76.699 203.264 77.3088 203.264C78.2037 203.264 78.908 203.455 79.4217 203.836C79.9388 204.217 80.2586 204.732 80.3812 205.382ZM85.13 211.149C84.3644 211.149 83.7032 210.99 83.1463 210.672C82.5928 210.35 82.1669 209.896 81.8686 209.31C81.5703 208.72 81.4212 208.025 81.4212 207.227C81.4212 206.441 81.5703 205.752 81.8686 205.158C82.1703 204.562 82.5912 204.098 83.1314 203.766C83.6717 203.432 84.3064 203.264 85.0355 203.264C85.5062 203.264 85.9503 203.34 86.3679 203.493C86.7889 203.642 87.1601 203.874 87.4816 204.189C87.8064 204.504 88.0616 204.905 88.2472 205.392C88.4328 205.876 88.5256 206.453 88.5256 207.122V207.674H82.2664V206.461H86.8005C86.7971 206.116 86.7226 205.81 86.5767 205.541C86.4309 205.269 86.2271 205.056 85.9652 204.9C85.7067 204.744 85.4051 204.666 85.0604 204.666C84.6925 204.666 84.3694 204.756 84.0909 204.935C83.8125 205.11 83.5954 205.342 83.4397 205.631C83.2872 205.916 83.2093 206.229 83.206 206.57V207.629C83.206 208.073 83.2872 208.455 83.4496 208.773C83.612 209.088 83.839 209.33 84.1307 209.499C84.4224 209.664 84.7638 209.747 85.1549 209.747C85.4167 209.747 85.6537 209.711 85.8658 209.638C86.0779 209.562 86.2619 209.451 86.4176 209.305C86.5734 209.159 86.6911 208.978 86.7706 208.763L88.451 208.952C88.345 209.396 88.1428 209.784 87.8445 210.115C87.5495 210.443 87.1717 210.698 86.711 210.881C86.2503 211.06 85.7233 211.149 85.13 211.149ZM93.5814 203.364V204.756H89.1914V203.364H93.5814ZM90.2753 201.534H92.075V208.703C92.075 208.945 92.1114 209.131 92.1843 209.26C92.2606 209.386 92.36 209.472 92.4826 209.518C92.6053 209.565 92.7412 209.588 92.8903 209.588C93.003 209.588 93.1057 209.58 93.1986 209.563C93.2947 209.547 93.3676 209.532 93.4173 209.518L93.7206 210.925C93.6245 210.959 93.4869 210.995 93.3079 211.035C93.1323 211.075 92.9168 211.098 92.6616 211.104C92.2109 211.118 91.8048 211.05 91.4436 210.901C91.0823 210.748 90.7956 210.513 90.5835 210.195C90.3747 209.876 90.2719 209.479 90.2753 209.001V201.534ZM99.7989 206.526V211H97.9992V203.364H99.7193V204.661H99.8088C99.9845 204.234 100.265 203.894 100.649 203.642C101.037 203.39 101.516 203.264 102.086 203.264C102.613 203.264 103.072 203.377 103.463 203.602C103.857 203.828 104.162 204.154 104.378 204.582C104.596 205.009 104.704 205.528 104.701 206.138V211H102.901V206.416C102.901 205.906 102.769 205.506 102.503 205.218C102.242 204.93 101.879 204.786 101.415 204.786C101.1 204.786 100.82 204.855 100.574 204.994C100.333 205.13 100.142 205.327 100.003 205.586C99.8668 205.844 99.7989 206.158 99.7989 206.526ZM108.448 211.154C107.964 211.154 107.528 211.068 107.14 210.896C106.756 210.72 106.451 210.461 106.226 210.12C106.003 209.779 105.892 209.358 105.892 208.857C105.892 208.426 105.972 208.07 106.131 207.788C106.29 207.507 106.507 207.281 106.782 207.112C107.057 206.943 107.367 206.816 107.712 206.729C108.06 206.64 108.42 206.575 108.791 206.536C109.238 206.489 109.601 206.448 109.88 206.411C110.158 206.371 110.36 206.312 110.486 206.232C110.615 206.149 110.68 206.022 110.68 205.849V205.82C110.68 205.445 110.569 205.155 110.347 204.95C110.125 204.744 109.805 204.641 109.387 204.641C108.947 204.641 108.597 204.737 108.338 204.93C108.083 205.122 107.911 205.349 107.821 205.611L106.141 205.372C106.274 204.908 106.492 204.52 106.797 204.209C107.102 203.894 107.475 203.659 107.916 203.503C108.357 203.344 108.844 203.264 109.378 203.264C109.745 203.264 110.112 203.307 110.476 203.393C110.841 203.48 111.174 203.622 111.476 203.821C111.777 204.017 112.019 204.283 112.201 204.621C112.387 204.96 112.48 205.382 112.48 205.889V211H110.75V209.951H110.69C110.581 210.163 110.427 210.362 110.228 210.548C110.032 210.73 109.785 210.877 109.487 210.99C109.192 211.099 108.846 211.154 108.448 211.154ZM108.915 209.832C109.276 209.832 109.59 209.76 109.855 209.618C110.12 209.472 110.324 209.28 110.466 209.041C110.612 208.803 110.685 208.542 110.685 208.261V207.361C110.629 207.407 110.533 207.45 110.397 207.49C110.264 207.53 110.115 207.565 109.949 207.594C109.784 207.624 109.62 207.651 109.457 207.674C109.295 207.697 109.154 207.717 109.035 207.734C108.766 207.77 108.526 207.83 108.314 207.913C108.102 207.996 107.934 208.112 107.811 208.261C107.689 208.406 107.628 208.595 107.628 208.827C107.628 209.159 107.749 209.409 107.99 209.578C108.232 209.747 108.541 209.832 108.915 209.832ZM114.009 211V203.364H115.73V204.661H115.819C115.978 204.224 116.242 203.882 116.61 203.637C116.978 203.388 117.417 203.264 117.927 203.264C118.444 203.264 118.88 203.39 119.235 203.642C119.593 203.891 119.844 204.23 119.99 204.661H120.07C120.239 204.237 120.524 203.899 120.925 203.647C121.329 203.392 121.808 203.264 122.362 203.264C123.064 203.264 123.638 203.486 124.082 203.93C124.526 204.375 124.748 205.022 124.748 205.874V211H122.943V206.153C122.943 205.679 122.817 205.332 122.566 205.114C122.314 204.892 122.005 204.781 121.641 204.781C121.207 204.781 120.867 204.916 120.622 205.188C120.38 205.457 120.259 205.806 120.259 206.237V211H118.494V206.078C118.494 205.684 118.375 205.369 118.136 205.134C117.901 204.898 117.592 204.781 117.211 204.781C116.953 204.781 116.717 204.847 116.505 204.979C116.293 205.109 116.124 205.293 115.998 205.531C115.872 205.767 115.809 206.042 115.809 206.357V211H114.009ZM129.675 211.149C128.909 211.149 128.248 210.99 127.691 210.672C127.137 210.35 126.712 209.896 126.413 209.31C126.115 208.72 125.966 208.025 125.966 207.227C125.966 206.441 126.115 205.752 126.413 205.158C126.715 204.562 127.136 204.098 127.676 203.766C128.216 203.432 128.851 203.264 129.58 203.264C130.051 203.264 130.495 203.34 130.913 203.493C131.333 203.642 131.705 203.874 132.026 204.189C132.351 204.504 132.606 204.905 132.792 205.392C132.977 205.876 133.07 206.453 133.07 207.122V207.674H126.811V206.461H131.345C131.342 206.116 131.267 205.81 131.121 205.541C130.976 205.269 130.772 205.056 130.51 204.9C130.251 204.744 129.95 204.666 129.605 204.666C129.237 204.666 128.914 204.756 128.636 204.935C128.357 205.11 128.14 205.342 127.984 205.631C127.832 205.916 127.754 206.229 127.751 206.57V207.629C127.751 208.073 127.832 208.455 127.994 208.773C128.157 209.088 128.384 209.33 128.675 209.499C128.967 209.664 129.308 209.747 129.699 209.747C129.961 209.747 130.198 209.711 130.41 209.638C130.623 209.562 130.806 209.451 130.962 209.305C131.118 209.159 131.236 208.978 131.315 208.763L132.996 208.952C132.89 209.396 132.687 209.784 132.389 210.115C132.094 210.443 131.716 210.698 131.256 210.881C130.795 211.06 130.268 211.149 129.675 211.149Z" fill="#212121"/>
<path d="M47.4545 57H44.0043V46.8182H47.5241C48.535 46.8182 49.4034 47.022 50.1293 47.4297C50.8584 47.834 51.4186 48.4157 51.8097 49.1747C52.2008 49.9337 52.3963 50.8419 52.3963 51.8991C52.3963 52.9598 52.1991 53.8712 51.8047 54.6335C51.4136 55.3958 50.8485 55.9808 50.1094 56.3885C49.3736 56.7962 48.4886 57 47.4545 57ZM45.8487 55.4041H47.3651C48.0743 55.4041 48.666 55.2749 49.1399 55.0163C49.6139 54.7545 49.9702 54.3651 50.2088 53.848C50.4474 53.3277 50.5668 52.678 50.5668 51.8991C50.5668 51.1203 50.4474 50.474 50.2088 49.9602C49.9702 49.4432 49.6172 49.0571 49.1499 48.8018C48.6858 48.5433 48.1091 48.4141 47.4197 48.4141H45.8487V55.4041ZM55.9867 57.1541C55.5028 57.1541 55.0669 57.0679 54.6792 56.8956C54.2947 56.7199 53.9898 56.4614 53.7644 56.12C53.5423 55.7786 53.4313 55.3577 53.4313 54.8572C53.4313 54.4264 53.5108 54.0701 53.6699 53.7884C53.829 53.5066 54.0461 53.2812 54.3212 53.1122C54.5963 52.9432 54.9062 52.8156 55.2509 52.7294C55.5989 52.6399 55.9585 52.5753 56.3297 52.5355C56.7772 52.4891 57.1401 52.4477 57.4185 52.4112C57.6969 52.3714 57.8991 52.3118 58.025 52.2322C58.1543 52.1494 58.2189 52.0218 58.2189 51.8494V51.8196C58.2189 51.4451 58.1079 51.1551 57.8858 50.9496C57.6638 50.7441 57.3439 50.6413 56.9263 50.6413C56.4855 50.6413 56.1358 50.7375 55.8773 50.9297C55.6221 51.1219 55.4498 51.349 55.3603 51.6108L53.6799 51.3722C53.8124 50.9081 54.0312 50.5204 54.3361 50.2088C54.641 49.8939 55.0139 49.6586 55.4547 49.5028C55.8955 49.3438 56.3828 49.2642 56.9164 49.2642C57.2843 49.2642 57.6505 49.3073 58.0151 49.3935C58.3797 49.4796 58.7128 49.6222 59.0144 49.821C59.316 50.0166 59.558 50.2834 59.7402 50.6214C59.9258 50.9595 60.0187 51.3821 60.0187 51.8892V57H58.2885V55.951H58.2289C58.1195 56.1631 57.9654 56.362 57.7665 56.5476C57.571 56.7299 57.324 56.8774 57.0258 56.9901C56.7308 57.0994 56.3844 57.1541 55.9867 57.1541ZM56.454 55.8317C56.8153 55.8317 57.1285 55.7604 57.3937 55.6179C57.6588 55.4721 57.8626 55.2798 58.0052 55.0412C58.151 54.8026 58.2239 54.5424 58.2239 54.2607V53.3608C58.1676 53.4072 58.0714 53.4503 57.9356 53.4901C57.803 53.5298 57.6538 53.5646 57.4881 53.5945C57.3224 53.6243 57.1583 53.6508 56.9959 53.674C56.8335 53.6972 56.6927 53.7171 56.5733 53.7337C56.3049 53.7701 56.0646 53.8298 55.8525 53.9126C55.6403 53.9955 55.473 54.1115 55.3503 54.2607C55.2277 54.4065 55.1664 54.5954 55.1664 54.8274C55.1664 55.1589 55.2874 55.4091 55.5293 55.5781C55.7713 55.7472 56.0795 55.8317 56.454 55.8317ZM65.3615 49.3636V50.7557H60.9716V49.3636H65.3615ZM62.0554 47.5341H63.8551V54.7031C63.8551 54.9451 63.8916 55.1307 63.9645 55.2599C64.0407 55.3859 64.1402 55.4721 64.2628 55.5185C64.3854 55.5649 64.5213 55.5881 64.6705 55.5881C64.7832 55.5881 64.8859 55.5798 64.9787 55.5632C65.0748 55.5466 65.1477 55.5317 65.1975 55.5185L65.5007 56.9254C65.4046 56.9586 65.2671 56.995 65.0881 57.0348C64.9124 57.0746 64.697 57.0978 64.4418 57.1044C63.991 57.1177 63.585 57.0497 63.2237 56.9006C62.8625 56.7481 62.5758 56.5128 62.3637 56.1946C62.1548 55.8764 62.0521 55.4787 62.0554 55.0014V47.5341ZM68.7841 57.1541C68.3002 57.1541 67.8644 57.0679 67.4766 56.8956C67.0921 56.7199 66.7872 56.4614 66.5618 56.12C66.3397 55.7786 66.2287 55.3577 66.2287 54.8572C66.2287 54.4264 66.3083 54.0701 66.4674 53.7884C66.6264 53.5066 66.8435 53.2812 67.1186 53.1122C67.3937 52.9432 67.7036 52.8156 68.0483 52.7294C68.3963 52.6399 68.7559 52.5753 69.1272 52.5355C69.5746 52.4891 69.9375 52.4477 70.2159 52.4112C70.4943 52.3714 70.6965 52.3118 70.8225 52.2322C70.9517 52.1494 71.0164 52.0218 71.0164 51.8494V51.8196C71.0164 51.4451 70.9053 51.1551 70.6833 50.9496C70.4612 50.7441 70.1414 50.6413 69.7237 50.6413C69.2829 50.6413 68.9333 50.7375 68.6747 50.9297C68.4195 51.1219 68.2472 51.349 68.1577 51.6108L66.4773 51.3722C66.6099 50.9081 66.8286 50.5204 67.1335 50.2088C67.4385 49.8939 67.8113 49.6586 68.2522 49.5028C68.693 49.3438 69.1802 49.2642 69.7138 49.2642C70.0817 49.2642 70.4479 49.3073 70.8125 49.3935C71.1771 49.4796 71.5102 49.6222 71.8118 49.821C72.1134 50.0166 72.3554 50.2834 72.5377 50.6214C72.7233 50.9595 72.8161 51.3821 72.8161 51.8892V57H71.086V55.951H71.0263C70.9169 56.1631 70.7628 56.362 70.5639 56.5476C70.3684 56.7299 70.1215 56.8774 69.8232 56.9901C69.5282 57.0994 69.1818 57.1541 68.7841 57.1541ZM69.2514 55.8317C69.6127 55.8317 69.9259 55.7604 70.1911 55.6179C70.4562 55.4721 70.6601 55.2798 70.8026 55.0412C70.9484 54.8026 71.0213 54.5424 71.0213 54.2607V53.3608C70.965 53.4072 70.8689 53.4503 70.733 53.4901C70.6004 53.5298 70.4513 53.5646 70.2855 53.5945C70.1198 53.6243 69.9558 53.6508 69.7933 53.674C69.6309 53.6972 69.4901 53.7171 69.3708 53.7337C69.1023 53.7701 68.862 53.8298 68.6499 53.9126C68.4378 53.9955 68.2704 54.1115 68.1477 54.2607C68.0251 54.4065 67.9638 54.5954 67.9638 54.8274C67.9638 55.1589 68.0848 55.4091 68.3267 55.5781C68.5687 55.7472 68.8769 55.8317 69.2514 55.8317ZM83.5739 51.3821L81.9333 51.5611C81.8869 51.3954 81.8057 51.2396 81.6897 51.0938C81.577 50.9479 81.4245 50.8303 81.2323 50.7408C81.04 50.6513 80.8047 50.6065 80.5263 50.6065C80.1518 50.6065 79.8369 50.6877 79.5817 50.8501C79.3298 51.0125 79.2055 51.223 79.2088 51.4815C79.2055 51.7036 79.2867 51.8842 79.4524 52.0234C79.6215 52.1626 79.8999 52.277 80.2877 52.3665L81.5902 52.6449C82.3128 52.8007 82.8497 53.0476 83.201 53.3857C83.5557 53.7237 83.7346 54.1662 83.738 54.7131C83.7346 55.1937 83.5938 55.6179 83.3154 55.9858C83.0403 56.3504 82.6575 56.6354 82.1669 56.8409C81.6764 57.0464 81.113 57.1491 80.4766 57.1491C79.5419 57.1491 78.7896 56.9536 78.2195 56.5625C77.6494 56.1681 77.3097 55.6196 77.2003 54.9169L78.9553 54.7479C79.0348 55.0926 79.2039 55.3527 79.4624 55.5284C79.7209 55.7041 80.0573 55.7919 80.4716 55.7919C80.8992 55.7919 81.2422 55.7041 81.5007 55.5284C81.7626 55.3527 81.8935 55.1357 81.8935 54.8771C81.8935 54.6584 81.809 54.4777 81.6399 54.3352C81.4742 54.1927 81.2157 54.0833 80.8644 54.0071L79.5618 53.7337C78.8293 53.5812 78.2874 53.3243 77.9361 52.9631C77.5848 52.5985 77.4108 52.1378 77.4141 51.581C77.4108 51.1103 77.5384 50.7027 77.7969 50.358C78.0587 50.0099 78.4217 49.7415 78.8857 49.5526C79.353 49.3603 79.8916 49.2642 80.5015 49.2642C81.3963 49.2642 82.1006 49.4548 82.6144 49.8359C83.1314 50.2171 83.4513 50.7325 83.5739 51.3821ZM88.2729 57.1491C87.5272 57.1491 86.8809 56.9851 86.334 56.657C85.7872 56.3288 85.3629 55.8698 85.0613 55.2798C84.763 54.6899 84.6139 54.0005 84.6139 53.2116C84.6139 52.4228 84.763 51.7318 85.0613 51.1385C85.3629 50.5452 85.7872 50.0845 86.334 49.7564C86.8809 49.4283 87.5272 49.2642 88.2729 49.2642C89.0187 49.2642 89.665 49.4283 90.2119 49.7564C90.7587 50.0845 91.1813 50.5452 91.4796 51.1385C91.7812 51.7318 91.932 52.4228 91.932 53.2116C91.932 54.0005 91.7812 54.6899 91.4796 55.2798C91.1813 55.8698 90.7587 56.3288 90.2119 56.657C89.665 56.9851 89.0187 57.1491 88.2729 57.1491ZM88.2829 55.7074C88.6872 55.7074 89.0253 55.5964 89.2971 55.3743C89.5689 55.1489 89.7711 54.8473 89.9036 54.4695C90.0395 54.0916 90.1075 53.6707 90.1075 53.2067C90.1075 52.7393 90.0395 52.3168 89.9036 51.9389C89.7711 51.5578 89.5689 51.2545 89.2971 51.0291C89.0253 50.8037 88.6872 50.6911 88.2829 50.6911C87.8686 50.6911 87.5239 50.8037 87.2488 51.0291C86.977 51.2545 86.7732 51.5578 86.6373 51.9389C86.5047 52.3168 86.4384 52.7393 86.4384 53.2067C86.4384 53.6707 86.5047 54.0916 86.6373 54.4695C86.7732 54.8473 86.977 55.1489 87.2488 55.3743C87.5239 55.5964 87.8686 55.7074 88.2829 55.7074ZM98.0467 53.7884V49.3636H99.8465V57H98.1014V55.6428H98.0219C97.8495 56.0703 97.5662 56.42 97.1717 56.6918C96.7806 56.9635 96.2984 57.0994 95.725 57.0994C95.2245 57.0994 94.7821 56.9884 94.3976 56.7663C94.0164 56.541 93.7181 56.2145 93.5027 55.7869C93.2873 55.3561 93.1796 54.8357 93.1796 54.2259V49.3636H94.9793V53.9474C94.9793 54.4313 95.1119 54.8158 95.377 55.1009C95.6422 55.3859 95.9902 55.5284 96.421 55.5284C96.6862 55.5284 96.9431 55.4638 97.1916 55.3345C97.4402 55.2053 97.644 55.013 97.8031 54.7578C97.9655 54.4993 98.0467 54.1761 98.0467 53.7884ZM101.417 57V49.3636H103.162V50.6364H103.242C103.381 50.1955 103.62 49.8558 103.958 49.6172C104.299 49.3752 104.688 49.2543 105.126 49.2543C105.225 49.2543 105.336 49.2592 105.459 49.2692C105.585 49.2758 105.689 49.2874 105.772 49.304V50.9595C105.696 50.933 105.575 50.9098 105.409 50.8899C105.247 50.8667 105.089 50.8551 104.937 50.8551C104.609 50.8551 104.314 50.9264 104.052 51.0689C103.794 51.2081 103.59 51.402 103.441 51.6506C103.291 51.8991 103.217 52.1858 103.217 52.5107V57H101.417ZM109.704 57.1491C108.942 57.1491 108.288 56.9818 107.741 56.647C107.197 56.3123 106.778 55.8499 106.483 55.2599C106.191 54.6667 106.045 53.9839 106.045 53.2116C106.045 52.4361 106.194 51.7517 106.493 51.1584C106.791 50.5618 107.212 50.0978 107.756 49.7663C108.302 49.4316 108.949 49.2642 109.694 49.2642C110.314 49.2642 110.863 49.3786 111.34 49.6072C111.821 49.8326 112.203 50.1525 112.489 50.5668C112.774 50.9777 112.936 51.4583 112.976 52.0085H111.256C111.186 51.6406 111.02 51.334 110.758 51.0888C110.5 50.8402 110.154 50.7159 109.719 50.7159C109.351 50.7159 109.028 50.8153 108.75 51.0142C108.471 51.2098 108.254 51.4915 108.099 51.8594C107.946 52.2273 107.87 52.6681 107.87 53.1818C107.87 53.7022 107.946 54.1496 108.099 54.5241C108.251 54.8954 108.465 55.1821 108.74 55.3842C109.018 55.5831 109.345 55.6825 109.719 55.6825C109.984 55.6825 110.221 55.6328 110.43 55.5334C110.642 55.4306 110.82 55.2831 110.962 55.0909C111.105 54.8987 111.203 54.665 111.256 54.3899H112.976C112.933 54.9302 112.774 55.4091 112.498 55.8267C112.223 56.241 111.849 56.5658 111.375 56.8011C110.901 57.0331 110.344 57.1491 109.704 57.1491ZM117.554 57.1491C116.789 57.1491 116.127 56.9901 115.571 56.6719C115.017 56.3504 114.591 55.8963 114.293 55.3097C113.995 54.7197 113.845 54.0253 113.845 53.2266C113.845 52.4411 113.995 51.7517 114.293 51.1584C114.594 50.5618 115.015 50.0978 115.556 49.7663C116.096 49.4316 116.731 49.2642 117.46 49.2642C117.93 49.2642 118.375 49.3404 118.792 49.4929C119.213 49.642 119.584 49.8741 119.906 50.1889C120.231 50.5038 120.486 50.9048 120.671 51.392C120.857 51.8759 120.95 52.4527 120.95 53.1222V53.674H114.691V52.4609H119.225C119.221 52.1162 119.147 51.8097 119.001 51.5412C118.855 51.2694 118.651 51.0556 118.389 50.8999C118.131 50.7441 117.829 50.6662 117.485 50.6662C117.117 50.6662 116.794 50.7557 116.515 50.9347C116.237 51.1103 116.02 51.3423 115.864 51.6307C115.711 51.9157 115.634 52.2289 115.63 52.5703V53.6293C115.63 54.0734 115.711 54.4545 115.874 54.7727C116.036 55.0876 116.263 55.3295 116.555 55.4986C116.847 55.6643 117.188 55.7472 117.579 55.7472C117.841 55.7472 118.078 55.7107 118.29 55.6378C118.502 55.5616 118.686 55.4505 118.842 55.3047C118.998 55.1589 119.115 54.9782 119.195 54.7628L120.875 54.9517C120.769 55.3958 120.567 55.7836 120.269 56.1151C119.974 56.4432 119.596 56.6984 119.135 56.8807C118.674 57.0597 118.147 57.1491 117.554 57.1491Z" fill="#212121"/>
<path d="M44.0043 134V123.818H47.8224C48.6046 123.818 49.2609 123.964 49.7912 124.256C50.3248 124.547 50.7275 124.948 50.9993 125.459C51.2744 125.966 51.4119 126.543 51.4119 127.189C51.4119 127.842 51.2744 128.422 50.9993 128.929C50.7242 129.436 50.3182 129.835 49.7812 130.127C49.2443 130.415 48.5831 130.56 47.7976 130.56H45.267V129.043H47.549C48.0064 129.043 48.3809 128.964 48.6726 128.805C48.9643 128.646 49.1797 128.427 49.3189 128.148C49.4614 127.87 49.5327 127.55 49.5327 127.189C49.5327 126.828 49.4614 126.509 49.3189 126.234C49.1797 125.959 48.9626 125.746 48.6676 125.593C48.3759 125.437 47.9998 125.359 47.5391 125.359H45.8487V134H44.0043ZM52.6545 134V126.364H54.3995V127.636H54.4791C54.6183 127.196 54.8569 126.856 55.195 126.617C55.5363 126.375 55.9258 126.254 56.3633 126.254C56.4627 126.254 56.5738 126.259 56.6964 126.269C56.8223 126.276 56.9267 126.287 57.0096 126.304V127.96C56.9334 127.933 56.8124 127.91 56.6467 127.89C56.4843 127.867 56.3268 127.855 56.1744 127.855C55.8462 127.855 55.5513 127.926 55.2894 128.069C55.0309 128.208 54.8271 128.402 54.6779 128.651C54.5288 128.899 54.4542 129.186 54.4542 129.511V134H52.6545ZM60.9418 134.149C60.196 134.149 59.5497 133.985 59.0029 133.657C58.456 133.329 58.0317 132.87 57.7301 132.28C57.4318 131.69 57.2827 131 57.2827 130.212C57.2827 129.423 57.4318 128.732 57.7301 128.138C58.0317 127.545 58.456 127.085 59.0029 126.756C59.5497 126.428 60.196 126.264 60.9418 126.264C61.6875 126.264 62.3338 126.428 62.8807 126.756C63.4276 127.085 63.8502 127.545 64.1485 128.138C64.4501 128.732 64.6009 129.423 64.6009 130.212C64.6009 131 64.4501 131.69 64.1485 132.28C63.8502 132.87 63.4276 133.329 62.8807 133.657C62.3338 133.985 61.6875 134.149 60.9418 134.149ZM60.9517 132.707C61.3561 132.707 61.6941 132.596 61.9659 132.374C62.2377 132.149 62.4399 131.847 62.5725 131.469C62.7083 131.092 62.7763 130.671 62.7763 130.207C62.7763 129.739 62.7083 129.317 62.5725 128.939C62.4399 128.558 62.2377 128.254 61.9659 128.029C61.6941 127.804 61.3561 127.691 60.9517 127.691C60.5374 127.691 60.1927 127.804 59.9176 128.029C59.6458 128.254 59.442 128.558 59.3061 128.939C59.1735 129.317 59.1073 129.739 59.1073 130.207C59.1073 130.671 59.1735 131.092 59.3061 131.469C59.442 131.847 59.6458 132.149 59.9176 132.374C60.1927 132.596 60.5374 132.707 60.9517 132.707ZM65.8484 126.364H67.6481V134.438C67.6481 134.988 67.5437 135.442 67.3349 135.8C67.1261 136.158 66.8245 136.424 66.4301 136.6C66.0357 136.776 65.5567 136.864 64.9933 136.864C64.927 136.864 64.8657 136.862 64.8093 136.859C64.753 136.859 64.6917 136.857 64.6254 136.854V135.387C64.6751 135.39 64.7198 135.392 64.7596 135.392C64.7994 135.395 64.8408 135.397 64.8839 135.397C65.2286 135.397 65.4755 135.313 65.6247 135.143C65.7738 134.978 65.8484 134.734 65.8484 134.413V126.364ZM66.7433 125.28C66.4549 125.28 66.208 125.185 66.0025 124.996C65.8003 124.804 65.6992 124.574 65.6992 124.305C65.6992 124.034 65.8003 123.803 66.0025 123.614C66.208 123.422 66.4549 123.326 66.7433 123.326C67.0283 123.326 67.2719 123.422 67.4741 123.614C67.6796 123.803 67.7823 124.034 67.7823 124.305C67.7823 124.574 67.6796 124.804 67.4741 124.996C67.2719 125.185 67.0283 125.28 66.7433 125.28ZM72.5995 134.149C71.8338 134.149 71.1726 133.99 70.6158 133.672C70.0623 133.35 69.6364 132.896 69.3381 132.31C69.0398 131.72 68.8907 131.025 68.8907 130.227C68.8907 129.441 69.0398 128.752 69.3381 128.158C69.6397 127.562 70.0606 127.098 70.6009 126.766C71.1411 126.432 71.7758 126.264 72.505 126.264C72.9756 126.264 73.4198 126.34 73.8374 126.493C74.2583 126.642 74.6295 126.874 74.951 127.189C75.2758 127.504 75.531 127.905 75.7166 128.392C75.9023 128.876 75.9951 129.453 75.9951 130.122V130.674H69.7358V129.461H74.2699C74.2666 129.116 74.192 128.81 74.0462 128.541C73.9004 128.269 73.6965 128.056 73.4347 127.9C73.1762 127.744 72.8746 127.666 72.5299 127.666C72.162 127.666 71.8388 127.756 71.5604 127.935C71.282 128.11 71.0649 128.342 70.9091 128.631C70.7567 128.916 70.6788 129.229 70.6755 129.57V130.629C70.6755 131.073 70.7567 131.455 70.9191 131.773C71.0815 132.088 71.3085 132.33 71.6002 132.499C71.8918 132.664 72.2332 132.747 72.6243 132.747C72.8862 132.747 73.1231 132.711 73.3353 132.638C73.5474 132.562 73.7313 132.451 73.8871 132.305C74.0429 132.159 74.1605 131.978 74.2401 131.763L75.9205 131.952C75.8144 132.396 75.6122 132.784 75.3139 133.115C75.019 133.443 74.6411 133.698 74.1804 133.881C73.7197 134.06 73.1927 134.149 72.5995 134.149ZM80.5686 134.149C79.8063 134.149 79.1517 133.982 78.6048 133.647C78.0612 133.312 77.642 132.85 77.347 132.26C77.0553 131.667 76.9095 130.984 76.9095 130.212C76.9095 129.436 77.0586 128.752 77.3569 128.158C77.6552 127.562 78.0761 127.098 78.6197 126.766C79.1666 126.432 79.8129 126.264 80.5586 126.264C81.1784 126.264 81.727 126.379 82.2042 126.607C82.6848 126.833 83.0676 127.152 83.3527 127.567C83.6377 127.978 83.8001 128.458 83.8399 129.009H82.1197C82.0501 128.641 81.8844 128.334 81.6225 128.089C81.364 127.84 81.0177 127.716 80.5835 127.716C80.2156 127.716 79.8924 127.815 79.614 128.014C79.3356 128.21 79.1185 128.491 78.9627 128.859C78.8103 129.227 78.7341 129.668 78.7341 130.182C78.7341 130.702 78.8103 131.15 78.9627 131.524C79.1152 131.895 79.329 132.182 79.6041 132.384C79.8825 132.583 80.209 132.683 80.5835 132.683C80.8486 132.683 81.0856 132.633 81.2944 132.533C81.5065 132.431 81.6839 132.283 81.8264 132.091C81.9689 131.899 82.0667 131.665 82.1197 131.39H83.8399C83.7968 131.93 83.6377 132.409 83.3626 132.827C83.0875 133.241 82.713 133.566 82.239 133.801C81.7651 134.033 81.2082 134.149 80.5686 134.149ZM88.8509 126.364V127.756H84.461V126.364H88.8509ZM85.5448 124.534H87.3445V131.703C87.3445 131.945 87.381 132.131 87.4539 132.26C87.5301 132.386 87.6295 132.472 87.7522 132.518C87.8748 132.565 88.0107 132.588 88.1598 132.588C88.2725 132.588 88.3753 132.58 88.4681 132.563C88.5642 132.547 88.6371 132.532 88.6868 132.518L88.9901 133.925C88.894 133.959 88.7564 133.995 88.5775 134.035C88.4018 134.075 88.1864 134.098 87.9312 134.104C87.4804 134.118 87.0744 134.05 86.7131 133.901C86.3518 133.748 86.0651 133.513 85.853 133.195C85.6442 132.876 85.5415 132.479 85.5448 132.001V124.534ZM95.1927 123.818V134H93.3482V123.818H95.1927ZM100.36 134H96.91V123.818H100.43C101.441 123.818 102.309 124.022 103.035 124.43C103.764 124.834 104.324 125.416 104.715 126.175C105.107 126.934 105.302 127.842 105.302 128.899C105.302 129.96 105.105 130.871 104.71 131.634C104.319 132.396 103.754 132.981 103.015 133.388C102.279 133.796 101.394 134 100.36 134ZM98.7545 132.404H100.271C100.98 132.404 101.572 132.275 102.046 132.016C102.52 131.754 102.876 131.365 103.115 130.848C103.353 130.328 103.473 129.678 103.473 128.899C103.473 128.12 103.353 127.474 103.115 126.96C102.876 126.443 102.523 126.057 102.056 125.802C101.592 125.543 101.015 125.414 100.326 125.414H98.7545V132.404Z" fill="#212121"/>
<path d="M55.1186 88V77.8182H58.8473C59.5698 77.8182 60.1681 77.9375 60.642 78.1761C61.116 78.4115 61.4706 78.7313 61.706 79.1357C61.9413 79.5367 62.0589 79.9891 62.0589 80.4929C62.0589 80.9171 61.9811 81.2751 61.8253 81.5668C61.6695 81.8551 61.4607 82.0871 61.1989 82.2628C60.9403 82.4351 60.6553 82.5611 60.3438 82.6406V82.7401C60.6818 82.7566 61.0116 82.866 61.3331 83.0682C61.6579 83.267 61.9264 83.5504 62.1385 83.9183C62.3506 84.2862 62.4567 84.7337 62.4567 85.2607C62.4567 85.781 62.334 86.2483 62.0888 86.6626C61.8468 87.0736 61.4723 87.4001 60.9652 87.642C60.4581 87.8807 59.8101 88 59.0213 88H55.1186ZM56.6548 86.6825H58.8722C59.608 86.6825 60.1349 86.54 60.4531 86.255C60.7713 85.9699 60.9304 85.6136 60.9304 85.1861C60.9304 84.8646 60.8492 84.5696 60.6868 84.3011C60.5244 84.0327 60.2924 83.8189 59.9908 83.6598C59.6925 83.5007 59.3378 83.4212 58.9268 83.4212H56.6548V86.6825ZM56.6548 82.223H58.7131C59.0578 82.223 59.3677 82.1567 59.6428 82.0241C59.9212 81.8916 60.1416 81.706 60.304 81.4673C60.4697 81.2254 60.5526 80.9403 60.5526 80.6122C60.5526 80.1913 60.4051 79.8383 60.1101 79.5533C59.8151 79.2682 59.3627 79.1257 58.7528 79.1257H56.6548V82.223ZM63.8794 88V80.3636H65.366V88H63.8794ZM64.6302 79.1854C64.3716 79.1854 64.1496 79.0992 63.964 78.9268C63.7817 78.7512 63.6905 78.5424 63.6905 78.3004C63.6905 78.0552 63.7817 77.8464 63.964 77.674C64.1496 77.4983 64.3716 77.4105 64.6302 77.4105C64.8887 77.4105 65.1091 77.4983 65.2914 77.674C65.477 77.8464 65.5698 78.0552 65.5698 78.3004C65.5698 78.5424 65.477 78.7512 65.2914 78.9268C65.1091 79.0992 64.8887 79.1854 64.6302 79.1854ZM70.2875 91.0227C69.6809 91.0227 69.1589 90.9432 68.7214 90.7841C68.2872 90.625 67.9326 90.4145 67.6575 90.1527C67.3824 89.8909 67.1769 89.6042 67.041 89.2926L68.3187 88.7656C68.4082 88.9115 68.5275 89.0656 68.6767 89.228C68.8291 89.3937 69.0346 89.5346 69.2932 89.6506C69.555 89.7666 69.8914 89.8246 70.3024 89.8246C70.8658 89.8246 71.3315 89.687 71.6994 89.4119C72.0673 89.1402 72.2513 88.706 72.2513 88.1094V86.608H72.1568C72.0673 86.7704 71.938 86.951 71.769 87.1499C71.6033 87.3487 71.3746 87.5211 71.0829 87.6669C70.7913 87.8127 70.4118 87.8857 69.9444 87.8857C69.3412 87.8857 68.7977 87.7448 68.3138 87.4631C67.8332 87.178 67.452 86.7588 67.1703 86.2053C66.8919 85.6484 66.7527 84.964 66.7527 84.152C66.7527 83.34 66.8902 82.6439 67.1653 82.0639C67.4437 81.4839 67.8249 81.0398 68.3088 80.7315C68.7927 80.42 69.3412 80.2642 69.9544 80.2642C70.4283 80.2642 70.8112 80.3438 71.1028 80.5028C71.3945 80.6586 71.6215 80.8409 71.7839 81.0497C71.9496 81.2585 72.0773 81.4425 72.1667 81.6016H72.2761V80.3636H73.7328V88.169C73.7328 88.8253 73.5803 89.3639 73.2754 89.7848C72.9705 90.2057 72.5578 90.5173 72.0375 90.7195C71.5204 90.9216 70.9371 91.0227 70.2875 91.0227ZM70.2726 86.6527C70.7001 86.6527 71.0614 86.5533 71.3564 86.3544C71.6547 86.1522 71.88 85.8639 72.0325 85.4893C72.1883 85.1115 72.2662 84.6591 72.2662 84.1321C72.2662 83.6184 72.1899 83.166 72.0375 82.7749C71.885 82.3838 71.6613 82.0788 71.3663 81.8601C71.0713 81.638 70.7067 81.527 70.2726 81.527C69.8251 81.527 69.4523 81.643 69.154 81.875C68.8557 82.1037 68.6303 82.4152 68.4778 82.8097C68.3287 83.2041 68.2541 83.6449 68.2541 84.1321C68.2541 84.6326 68.3303 85.0717 68.4828 85.4496C68.6353 85.8274 68.8606 86.1224 69.1589 86.3345C69.4605 86.5466 69.8317 86.6527 70.2726 86.6527ZM79.3093 84.6989H80.8207L81.8846 86.0859L82.3867 86.7024L84.0821 88.9148H82.511L81.3775 87.4382L80.9897 86.9013L79.3093 84.6989ZM84.4102 82.9091C84.4102 83.9962 84.2113 84.9309 83.8136 85.7131C83.4159 86.492 82.8706 87.0919 82.1779 87.5128C81.4885 87.9304 80.7047 88.1392 79.8264 88.1392C78.9447 88.1392 78.1576 87.9304 77.4649 87.5128C76.7755 87.0919 76.2319 86.4903 75.8342 85.7081C75.4365 84.9259 75.2376 83.9929 75.2376 82.9091C75.2376 81.822 75.4365 80.889 75.8342 80.1101C76.2319 79.3279 76.7755 78.728 77.4649 78.3104C78.1576 77.8894 78.9447 77.679 79.8264 77.679C80.7047 77.679 81.4885 77.8894 82.1779 78.3104C82.8706 78.728 83.4159 79.3279 83.8136 80.1101C84.2113 80.889 84.4102 81.822 84.4102 82.9091ZM82.8889 82.9091C82.8889 82.0805 82.7546 81.3828 82.4862 80.8161C82.221 80.246 81.8564 79.8151 81.3924 79.5234C80.9317 79.2285 80.4097 79.081 79.8264 79.081C79.2397 79.081 78.716 79.2285 78.2553 79.5234C77.7946 79.8151 77.4301 80.246 77.1616 80.8161C76.8964 81.3828 76.7639 82.0805 76.7639 82.9091C76.7639 83.7377 76.8964 84.437 77.1616 85.0071C77.4301 85.5739 77.7946 86.0047 78.2553 86.2997C78.716 86.5914 79.2397 86.7372 79.8264 86.7372C80.4097 86.7372 80.9317 86.5914 81.3924 86.2997C81.8564 86.0047 82.221 85.5739 82.4862 85.0071C82.7546 84.437 82.8889 83.7377 82.8889 82.9091ZM90.7635 84.8331V80.3636H92.255V88H90.7934V86.6776H90.7138C90.5381 87.0852 90.2564 87.425 89.8686 87.6967C89.4842 87.9652 89.0052 88.0994 88.4318 88.0994C87.9413 88.0994 87.5071 87.9917 87.1293 87.7763C86.7548 87.5575 86.4598 87.2344 86.2443 86.8068C86.0322 86.3793 85.9262 85.8506 85.9262 85.2209V80.3636H87.4127V85.0419C87.4127 85.5623 87.5568 85.9766 87.8452 86.2848C88.1336 86.593 88.5081 86.7472 88.9688 86.7472C89.2472 86.7472 89.5239 86.6776 89.799 86.5384C90.0774 86.3991 90.3078 86.1887 90.4901 85.907C90.6757 85.6252 90.7668 85.2673 90.7635 84.8331ZM97.2635 88.1541C96.5112 88.1541 95.8632 87.9934 95.3196 87.6719C94.7794 87.3471 94.3618 86.8913 94.0668 86.3047C93.7751 85.7147 93.6293 85.0237 93.6293 84.2315C93.6293 83.4493 93.7751 82.7599 94.0668 82.1634C94.3618 81.5668 94.7728 81.1011 95.2997 80.7663C95.8301 80.4316 96.4498 80.2642 97.1591 80.2642C97.59 80.2642 98.0076 80.3355 98.412 80.478C98.8163 80.6205 99.1792 80.8442 99.5007 81.1491C99.8222 81.4541 100.076 81.8501 100.261 82.3374C100.447 82.8213 100.54 83.4096 100.54 84.1023V84.6293H94.4695V83.5156H99.0831C99.0831 83.1245 99.0036 82.7782 98.8445 82.4766C98.6854 82.1716 98.4617 81.9313 98.1733 81.7557C97.8883 81.58 97.5535 81.4922 97.1691 81.4922C96.7515 81.4922 96.3869 81.5949 96.0753 81.8004C95.7671 82.0026 95.5284 82.2678 95.3594 82.5959C95.1937 82.9207 95.1108 83.2737 95.1108 83.6548V84.5249C95.1108 85.0353 95.2003 85.4695 95.3793 85.8274C95.5616 86.1854 95.8151 86.4588 96.1399 86.6477C96.4648 86.8333 96.8443 86.9261 97.2784 86.9261C97.5602 86.9261 97.817 86.8864 98.049 86.8068C98.281 86.724 98.4816 86.6013 98.6506 86.4389C98.8196 86.2765 98.9489 86.076 99.0384 85.8374L100.445 86.0909C100.333 86.5052 100.13 86.8681 99.8388 87.1797C99.5505 87.4879 99.1875 87.7282 98.75 87.9006C98.3158 88.0696 97.8203 88.1541 97.2635 88.1541ZM101.909 88V80.3636H103.346V81.5767H103.425C103.565 81.1657 103.81 80.8426 104.161 80.6072C104.516 80.3686 104.917 80.2493 105.364 80.2493C105.457 80.2493 105.567 80.2526 105.693 80.2592C105.822 80.2659 105.923 80.2741 105.996 80.2841V81.706C105.936 81.6894 105.83 81.6712 105.678 81.6513C105.525 81.6281 105.373 81.6165 105.22 81.6165C104.869 81.6165 104.556 81.6911 104.281 81.8402C104.009 81.986 103.793 82.1899 103.634 82.4517C103.475 82.7102 103.396 83.0052 103.396 83.3366V88H101.909ZM108.174 90.8636C107.952 90.8636 107.75 90.8454 107.568 90.8089C107.385 90.7758 107.25 90.7393 107.16 90.6996L107.518 89.4815C107.79 89.5545 108.032 89.5859 108.244 89.576C108.456 89.5661 108.643 89.4865 108.806 89.3374C108.971 89.1882 109.117 88.9446 109.243 88.6065L109.427 88.0994L106.633 80.3636H108.224L110.158 86.2898H110.237L112.171 80.3636H113.767L110.62 89.0192C110.474 89.4169 110.289 89.7533 110.063 90.0284C109.838 90.3068 109.57 90.5156 109.258 90.6548C108.946 90.794 108.585 90.8636 108.174 90.8636Z" fill="#212121"/>
<path d="M57.2216 165.169C56.7377 165.169 56.3002 165.08 55.9091 164.901C55.518 164.718 55.2081 164.455 54.9794 164.11C54.754 163.765 54.6413 163.343 54.6413 162.842C54.6413 162.411 54.7242 162.057 54.8899 161.778C55.0556 161.5 55.2794 161.28 55.5611 161.117C55.8428 160.955 56.1577 160.832 56.5057 160.749C56.8537 160.666 57.2083 160.603 57.5696 160.56C58.027 160.507 58.3982 160.464 58.6832 160.431C58.9683 160.395 59.1754 160.337 59.3047 160.257C59.4339 160.178 59.4986 160.048 59.4986 159.869V159.835C59.4986 159.4 59.3759 159.064 59.1307 158.825C58.8887 158.587 58.5275 158.467 58.0469 158.467C57.5464 158.467 57.152 158.578 56.8636 158.8C56.5786 159.019 56.3814 159.263 56.272 159.531L54.875 159.213C55.0407 158.749 55.2827 158.375 55.6009 158.089C55.9223 157.801 56.2919 157.592 56.7095 157.463C57.1271 157.33 57.5663 157.264 58.027 157.264C58.3319 157.264 58.6551 157.301 58.9964 157.374C59.3411 157.443 59.6626 157.572 59.9609 157.761C60.2625 157.95 60.5095 158.22 60.7017 158.572C60.8939 158.92 60.9901 159.372 60.9901 159.929V165H59.5384V163.956H59.4787C59.3826 164.148 59.2384 164.337 59.0462 164.523C58.8539 164.708 58.607 164.862 58.3054 164.985C58.0038 165.108 57.6425 165.169 57.2216 165.169ZM57.5447 163.976C57.9557 163.976 58.3071 163.895 58.5987 163.732C58.8937 163.57 59.1174 163.358 59.2699 163.096C59.4257 162.831 59.5036 162.547 59.5036 162.246V161.261C59.4505 161.314 59.3478 161.364 59.1953 161.411C59.0462 161.454 58.8755 161.492 58.6832 161.525C58.491 161.555 58.3037 161.583 58.1214 161.609C57.9392 161.633 57.7867 161.652 57.6641 161.669C57.3757 161.705 57.1122 161.767 56.8736 161.853C56.6383 161.939 56.4493 162.063 56.3068 162.226C56.1676 162.385 56.098 162.597 56.098 162.862C56.098 163.23 56.2339 163.509 56.5057 163.697C56.7775 163.883 57.1238 163.976 57.5447 163.976ZM65.9066 165.154C65.1675 165.154 64.5311 164.987 63.9975 164.652C63.4672 164.314 63.0595 163.848 62.7745 163.255C62.4895 162.662 62.347 161.982 62.347 161.217C62.347 160.441 62.4928 159.757 62.7845 159.163C63.0761 158.567 63.4871 158.101 64.0174 157.766C64.5477 157.432 65.1725 157.264 65.8917 157.264C66.4717 157.264 66.9888 157.372 67.4428 157.587C67.8969 157.799 68.2631 158.098 68.5416 158.482C68.8233 158.867 68.9907 159.316 69.0437 159.83H67.597C67.5174 159.472 67.3351 159.163 67.0501 158.905C66.7684 158.646 66.3905 158.517 65.9166 158.517C65.5023 158.517 65.1393 158.626 64.8278 158.845C64.5195 159.061 64.2792 159.369 64.1069 159.77C63.9345 160.168 63.8484 160.638 63.8484 161.182C63.8484 161.739 63.9329 162.219 64.1019 162.624C64.271 163.028 64.5096 163.341 64.8178 163.563C65.1294 163.785 65.4956 163.896 65.9166 163.896C66.1983 163.896 66.4535 163.845 66.6822 163.742C66.9142 163.636 67.1081 163.485 67.2639 163.29C67.4229 163.094 67.534 162.859 67.597 162.584H69.0437C68.9907 163.078 68.8299 163.518 68.5614 163.906C68.293 164.294 67.9334 164.599 67.4826 164.821C67.0352 165.043 66.5098 165.154 65.9066 165.154ZM70.3534 165V157.364H71.7802V158.607H71.8747C72.0337 158.186 72.2939 157.857 72.6552 157.622C73.0165 157.384 73.449 157.264 73.9528 157.264C74.4632 157.264 74.8908 157.384 75.2355 157.622C75.5835 157.861 75.8403 158.189 76.0061 158.607H76.0856C76.2679 158.199 76.5579 157.874 76.9556 157.632C77.3534 157.387 77.8273 157.264 78.3775 157.264C79.0702 157.264 79.6353 157.481 80.0728 157.915C80.5136 158.35 80.734 159.004 80.734 159.879V165H79.2475V160.018C79.2475 159.501 79.1067 159.127 78.8249 158.895C78.5432 158.663 78.2068 158.547 77.8157 158.547C77.3318 158.547 76.9556 158.696 76.6872 158.994C76.4187 159.289 76.2845 159.669 76.2845 160.133V165H74.8029V159.924C74.8029 159.51 74.6737 159.177 74.4151 158.925C74.1566 158.673 73.8202 158.547 73.4059 158.547C73.1242 158.547 72.864 158.621 72.6254 158.771C72.39 158.916 72.1995 159.12 72.0536 159.382C71.9111 159.644 71.8399 159.947 71.8399 160.292V165H70.3534ZM85.7376 165.154C84.9852 165.154 84.3373 164.993 83.7937 164.672C83.2535 164.347 82.8358 163.891 82.5409 163.305C82.2492 162.715 82.1034 162.024 82.1034 161.232C82.1034 160.449 82.2492 159.76 82.5409 159.163C82.8358 158.567 83.2468 158.101 83.7738 157.766C84.3041 157.432 84.9239 157.264 85.6332 157.264C86.0641 157.264 86.4817 157.335 86.886 157.478C87.2904 157.621 87.6533 157.844 87.9748 158.149C88.2963 158.454 88.5499 158.85 88.7355 159.337C88.9211 159.821 89.0139 160.41 89.0139 161.102V161.629H82.9436V160.516H87.5572C87.5572 160.125 87.4776 159.778 87.3186 159.477C87.1595 159.172 86.9357 158.931 86.6474 158.756C86.3624 158.58 86.0276 158.492 85.6431 158.492C85.2255 158.492 84.8609 158.595 84.5494 158.8C84.2411 159.003 84.0025 159.268 83.8335 159.596C83.6678 159.921 83.5849 160.274 83.5849 160.655V161.525C83.5849 162.035 83.6744 162.469 83.8534 162.827C84.0357 163.185 84.2892 163.459 84.614 163.648C84.9388 163.833 85.3183 163.926 85.7525 163.926C86.0342 163.926 86.2911 163.886 86.5231 163.807C86.7551 163.724 86.9556 163.601 87.1247 163.439C87.2937 163.277 87.423 163.076 87.5125 162.837L88.9194 163.091C88.8067 163.505 88.6045 163.868 88.3129 164.18C88.0245 164.488 87.6616 164.728 87.2241 164.901C86.7899 165.07 86.2944 165.154 85.7376 165.154ZM94.8825 160.053V161.341H90.3683V160.053H94.8825ZM99.8003 165.154C99.0612 165.154 98.4248 164.987 97.8912 164.652C97.3609 164.314 96.9532 163.848 96.6682 163.255C96.3831 162.662 96.2406 161.982 96.2406 161.217C96.2406 160.441 96.3865 159.757 96.6781 159.163C96.9698 158.567 97.3808 158.101 97.9111 157.766C98.4414 157.432 99.0661 157.264 99.7854 157.264C100.365 157.264 100.882 157.372 101.337 157.587C101.791 157.799 102.157 158.098 102.435 158.482C102.717 158.867 102.884 159.316 102.937 159.83H101.491C101.411 159.472 101.229 159.163 100.944 158.905C100.662 158.646 100.284 158.517 99.8102 158.517C99.3959 158.517 99.033 158.626 98.7214 158.845C98.4132 159.061 98.1729 159.369 98.0006 159.77C97.8282 160.168 97.742 160.638 97.742 161.182C97.742 161.739 97.8266 162.219 97.9956 162.624C98.1646 163.028 98.4033 163.341 98.7115 163.563C99.0231 163.785 99.3893 163.896 99.8102 163.896C100.092 163.896 100.347 163.845 100.576 163.742C100.808 163.636 101.002 163.485 101.158 163.29C101.317 163.094 101.428 162.859 101.491 162.584H102.937C102.884 163.078 102.724 163.518 102.455 163.906C102.187 164.294 101.827 164.599 101.376 164.821C100.929 165.043 100.404 165.154 99.8003 165.154ZM107.464 165.154C106.748 165.154 106.123 164.99 105.589 164.662C105.056 164.334 104.641 163.875 104.346 163.285C104.051 162.695 103.904 162.005 103.904 161.217C103.904 160.424 104.051 159.732 104.346 159.138C104.641 158.545 105.056 158.085 105.589 157.756C106.123 157.428 106.748 157.264 107.464 157.264C108.18 157.264 108.804 157.428 109.338 157.756C109.872 158.085 110.286 158.545 110.581 159.138C110.876 159.732 111.023 160.424 111.023 161.217C111.023 162.005 110.876 162.695 110.581 163.285C110.286 163.875 109.872 164.334 109.338 164.662C108.804 164.99 108.18 165.154 107.464 165.154ZM107.469 163.906C107.933 163.906 108.317 163.784 108.622 163.538C108.927 163.293 109.152 162.967 109.298 162.559C109.447 162.151 109.522 161.702 109.522 161.212C109.522 160.724 109.447 160.277 109.298 159.869C109.152 159.458 108.927 159.129 108.622 158.88C108.317 158.631 107.933 158.507 107.469 158.507C107.001 158.507 106.614 158.631 106.305 158.88C106 159.129 105.773 159.458 105.624 159.869C105.478 160.277 105.405 160.724 105.405 161.212C105.405 161.702 105.478 162.151 105.624 162.559C105.773 162.967 106 163.293 106.305 163.538C106.614 163.784 107.001 163.906 107.469 163.906ZM112.403 165V157.364H113.829V158.607H113.924C114.083 158.186 114.343 157.857 114.704 157.622C115.066 157.384 115.498 157.264 116.002 157.264C116.512 157.264 116.94 157.384 117.285 157.622C117.633 157.861 117.89 158.189 118.055 158.607H118.135C118.317 158.199 118.607 157.874 119.005 157.632C119.403 157.387 119.877 157.264 120.427 157.264C121.119 157.264 121.685 157.481 122.122 157.915C122.563 158.35 122.783 159.004 122.783 159.879V165H121.297V160.018C121.297 159.501 121.156 159.127 120.874 158.895C120.592 158.663 120.256 158.547 119.865 158.547C119.381 158.547 119.005 158.696 118.736 158.994C118.468 159.289 118.334 159.669 118.334 160.133V165H116.852V159.924C116.852 159.51 116.723 159.177 116.464 158.925C116.206 158.673 115.869 158.547 115.455 158.547C115.173 158.547 114.913 158.621 114.675 158.771C114.439 158.916 114.249 159.12 114.103 159.382C113.96 159.644 113.889 159.947 113.889 160.292V165H112.403ZM124.496 167.864V157.364H125.947V158.602H126.072C126.158 158.442 126.282 158.259 126.444 158.05C126.607 157.841 126.832 157.659 127.121 157.503C127.409 157.344 127.79 157.264 128.264 157.264C128.881 157.264 129.431 157.42 129.915 157.732C130.399 158.043 130.778 158.492 131.053 159.079C131.332 159.665 131.471 160.371 131.471 161.197C131.471 162.022 131.333 162.73 131.058 163.32C130.783 163.906 130.405 164.359 129.925 164.677C129.444 164.992 128.895 165.149 128.279 165.149C127.815 165.149 127.435 165.071 127.141 164.915C126.849 164.76 126.62 164.577 126.454 164.369C126.289 164.16 126.161 163.974 126.072 163.812H125.982V167.864H124.496ZM125.952 161.182C125.952 161.719 126.03 162.189 126.186 162.594C126.342 162.998 126.567 163.315 126.862 163.543C127.157 163.769 127.518 163.881 127.946 163.881C128.39 163.881 128.761 163.764 129.06 163.528C129.358 163.29 129.583 162.967 129.736 162.559C129.891 162.151 129.969 161.692 129.969 161.182C129.969 160.678 129.893 160.226 129.741 159.825C129.592 159.424 129.366 159.107 129.065 158.875C128.766 158.643 128.393 158.527 127.946 158.527C127.515 158.527 127.15 158.638 126.852 158.86C126.557 159.082 126.333 159.392 126.181 159.79C126.029 160.187 125.952 160.652 125.952 161.182ZM137.694 161.833V157.364H139.185V165H137.723V163.678H137.644C137.468 164.085 137.187 164.425 136.799 164.697C136.414 164.965 135.935 165.099 135.362 165.099C134.871 165.099 134.437 164.992 134.059 164.776C133.685 164.558 133.39 164.234 133.174 163.807C132.962 163.379 132.856 162.851 132.856 162.221V157.364H134.343V162.042C134.343 162.562 134.487 162.977 134.775 163.285C135.064 163.593 135.438 163.747 135.899 163.747C136.177 163.747 136.454 163.678 136.729 163.538C137.008 163.399 137.238 163.189 137.42 162.907C137.606 162.625 137.697 162.267 137.694 161.833ZM144.467 157.364V158.557H140.296V157.364H144.467ZM141.414 155.534H142.901V162.758C142.901 163.046 142.944 163.263 143.03 163.409C143.116 163.552 143.227 163.649 143.363 163.702C143.503 163.752 143.653 163.777 143.816 163.777C143.935 163.777 144.039 163.769 144.129 163.752C144.218 163.736 144.288 163.722 144.338 163.712L144.606 164.94C144.52 164.973 144.397 165.007 144.238 165.04C144.079 165.076 143.88 165.096 143.642 165.099C143.251 165.106 142.886 165.036 142.548 164.891C142.21 164.745 141.937 164.519 141.728 164.214C141.519 163.91 141.414 163.527 141.414 163.066V155.534ZM145.831 165V157.364H147.318V165H145.831ZM146.582 156.185C146.324 156.185 146.102 156.099 145.916 155.927C145.734 155.751 145.642 155.542 145.642 155.3C145.642 155.055 145.734 154.846 145.916 154.674C146.102 154.498 146.324 154.411 146.582 154.411C146.841 154.411 147.061 154.498 147.243 154.674C147.429 154.846 147.522 155.055 147.522 155.3C147.522 155.542 147.429 155.751 147.243 155.927C147.061 156.099 146.841 156.185 146.582 156.185ZM150.524 160.466V165H149.038V157.364H150.465V158.607H150.559C150.735 158.202 151.01 157.877 151.384 157.632C151.762 157.387 152.238 157.264 152.811 157.264C153.332 157.264 153.787 157.374 154.178 157.592C154.569 157.808 154.873 158.129 155.088 158.557C155.304 158.984 155.411 159.513 155.411 160.143V165H153.925V160.322C153.925 159.768 153.781 159.336 153.492 159.024C153.204 158.709 152.808 158.552 152.304 158.552C151.959 158.552 151.653 158.626 151.384 158.776C151.119 158.925 150.909 159.143 150.753 159.432C150.6 159.717 150.524 160.062 150.524 160.466ZM160.327 168.023C159.72 168.023 159.198 167.943 158.761 167.784C158.326 167.625 157.972 167.415 157.697 167.153C157.422 166.891 157.216 166.604 157.08 166.293L158.358 165.766C158.447 165.911 158.567 166.066 158.716 166.228C158.868 166.394 159.074 166.535 159.332 166.651C159.594 166.767 159.931 166.825 160.342 166.825C160.905 166.825 161.371 166.687 161.739 166.412C162.106 166.14 162.29 165.706 162.29 165.109V163.608H162.196C162.106 163.77 161.977 163.951 161.808 164.15C161.642 164.349 161.414 164.521 161.122 164.667C160.83 164.813 160.451 164.886 159.984 164.886C159.38 164.886 158.837 164.745 158.353 164.463C157.872 164.178 157.491 163.759 157.209 163.205C156.931 162.648 156.792 161.964 156.792 161.152C156.792 160.34 156.929 159.644 157.204 159.064C157.483 158.484 157.864 158.04 158.348 157.732C158.832 157.42 159.38 157.264 159.994 157.264C160.467 157.264 160.85 157.344 161.142 157.503C161.434 157.659 161.661 157.841 161.823 158.05C161.989 158.259 162.116 158.442 162.206 158.602H162.315V157.364H163.772V165.169C163.772 165.825 163.619 166.364 163.315 166.785C163.01 167.206 162.597 167.517 162.077 167.719C161.56 167.922 160.976 168.023 160.327 168.023ZM160.312 163.653C160.739 163.653 161.101 163.553 161.396 163.354C161.694 163.152 161.919 162.864 162.072 162.489C162.227 162.112 162.305 161.659 162.305 161.132C162.305 160.618 162.229 160.166 162.077 159.775C161.924 159.384 161.7 159.079 161.405 158.86C161.11 158.638 160.746 158.527 160.312 158.527C159.864 158.527 159.491 158.643 159.193 158.875C158.895 159.104 158.669 159.415 158.517 159.81C158.368 160.204 158.293 160.645 158.293 161.132C158.293 161.633 158.369 162.072 158.522 162.45C158.674 162.827 158.9 163.122 159.198 163.335C159.5 163.547 159.871 163.653 160.312 163.653ZM169.985 160.053V161.341H165.471V160.053H169.985ZM175.529 154.818V165H173.988V156.359H173.928L171.492 157.95V156.479L174.033 154.818H175.529Z" fill="#212121"/>
<path d="M57.2216 242.169C56.7377 242.169 56.3002 242.08 55.9091 241.901C55.518 241.718 55.2081 241.455 54.9794 241.11C54.754 240.765 54.6413 240.343 54.6413 239.842C54.6413 239.411 54.7242 239.057 54.8899 238.778C55.0556 238.5 55.2794 238.28 55.5611 238.117C55.8428 237.955 56.1577 237.832 56.5057 237.749C56.8537 237.666 57.2083 237.603 57.5696 237.56C58.027 237.507 58.3982 237.464 58.6832 237.431C58.9683 237.395 59.1754 237.337 59.3047 237.257C59.4339 237.178 59.4986 237.048 59.4986 236.869V236.835C59.4986 236.4 59.3759 236.064 59.1307 235.825C58.8887 235.587 58.5275 235.467 58.0469 235.467C57.5464 235.467 57.152 235.578 56.8636 235.8C56.5786 236.019 56.3814 236.263 56.272 236.531L54.875 236.213C55.0407 235.749 55.2827 235.375 55.6009 235.089C55.9223 234.801 56.2919 234.592 56.7095 234.463C57.1271 234.33 57.5663 234.264 58.027 234.264C58.3319 234.264 58.6551 234.301 58.9964 234.374C59.3411 234.443 59.6626 234.572 59.9609 234.761C60.2625 234.95 60.5095 235.22 60.7017 235.572C60.8939 235.92 60.9901 236.372 60.9901 236.929V242H59.5384V240.956H59.4787C59.3826 241.148 59.2384 241.337 59.0462 241.523C58.8539 241.708 58.607 241.862 58.3054 241.985C58.0038 242.108 57.6425 242.169 57.2216 242.169ZM57.5447 240.976C57.9557 240.976 58.3071 240.895 58.5987 240.732C58.8937 240.57 59.1174 240.358 59.2699 240.096C59.4257 239.831 59.5036 239.547 59.5036 239.246V238.261C59.4505 238.314 59.3478 238.364 59.1953 238.411C59.0462 238.454 58.8755 238.492 58.6832 238.525C58.491 238.555 58.3037 238.583 58.1214 238.609C57.9392 238.633 57.7867 238.652 57.6641 238.669C57.3757 238.705 57.1122 238.767 56.8736 238.853C56.6383 238.939 56.4493 239.063 56.3068 239.226C56.1676 239.385 56.098 239.597 56.098 239.862C56.098 240.23 56.2339 240.509 56.5057 240.697C56.7775 240.883 57.1238 240.976 57.5447 240.976ZM65.9066 242.154C65.1675 242.154 64.5311 241.987 63.9975 241.652C63.4672 241.314 63.0595 240.848 62.7745 240.255C62.4895 239.662 62.347 238.982 62.347 238.217C62.347 237.441 62.4928 236.757 62.7845 236.163C63.0761 235.567 63.4871 235.101 64.0174 234.766C64.5477 234.432 65.1725 234.264 65.8917 234.264C66.4717 234.264 66.9888 234.372 67.4428 234.587C67.8969 234.799 68.2631 235.098 68.5416 235.482C68.8233 235.867 68.9907 236.316 69.0437 236.83H67.597C67.5174 236.472 67.3351 236.163 67.0501 235.905C66.7684 235.646 66.3905 235.517 65.9166 235.517C65.5023 235.517 65.1393 235.626 64.8278 235.845C64.5195 236.061 64.2792 236.369 64.1069 236.77C63.9345 237.168 63.8484 237.638 63.8484 238.182C63.8484 238.739 63.9329 239.219 64.1019 239.624C64.271 240.028 64.5096 240.341 64.8178 240.563C65.1294 240.785 65.4956 240.896 65.9166 240.896C66.1983 240.896 66.4535 240.845 66.6822 240.742C66.9142 240.636 67.1081 240.485 67.2639 240.29C67.4229 240.094 67.534 239.859 67.597 239.584H69.0437C68.9907 240.078 68.8299 240.518 68.5614 240.906C68.293 241.294 67.9334 241.599 67.4826 241.821C67.0352 242.043 66.5098 242.154 65.9066 242.154ZM70.3534 242V234.364H71.7802V235.607H71.8747C72.0337 235.186 72.2939 234.857 72.6552 234.622C73.0165 234.384 73.449 234.264 73.9528 234.264C74.4632 234.264 74.8908 234.384 75.2355 234.622C75.5835 234.861 75.8403 235.189 76.0061 235.607H76.0856C76.2679 235.199 76.5579 234.874 76.9556 234.632C77.3534 234.387 77.8273 234.264 78.3775 234.264C79.0702 234.264 79.6353 234.481 80.0728 234.915C80.5136 235.35 80.734 236.004 80.734 236.879V242H79.2475V237.018C79.2475 236.501 79.1067 236.127 78.8249 235.895C78.5432 235.663 78.2068 235.547 77.8157 235.547C77.3318 235.547 76.9556 235.696 76.6872 235.994C76.4187 236.289 76.2845 236.669 76.2845 237.133V242H74.8029V236.924C74.8029 236.51 74.6737 236.177 74.4151 235.925C74.1566 235.673 73.8202 235.547 73.4059 235.547C73.1242 235.547 72.864 235.621 72.6254 235.771C72.39 235.916 72.1995 236.12 72.0536 236.382C71.9111 236.644 71.8399 236.947 71.8399 237.292V242H70.3534ZM85.7376 242.154C84.9852 242.154 84.3373 241.993 83.7937 241.672C83.2535 241.347 82.8358 240.891 82.5409 240.305C82.2492 239.715 82.1034 239.024 82.1034 238.232C82.1034 237.449 82.2492 236.76 82.5409 236.163C82.8358 235.567 83.2468 235.101 83.7738 234.766C84.3041 234.432 84.9239 234.264 85.6332 234.264C86.0641 234.264 86.4817 234.335 86.886 234.478C87.2904 234.621 87.6533 234.844 87.9748 235.149C88.2963 235.454 88.5499 235.85 88.7355 236.337C88.9211 236.821 89.0139 237.41 89.0139 238.102V238.629H82.9436V237.516H87.5572C87.5572 237.125 87.4776 236.778 87.3186 236.477C87.1595 236.172 86.9357 235.931 86.6474 235.756C86.3624 235.58 86.0276 235.492 85.6431 235.492C85.2255 235.492 84.8609 235.595 84.5494 235.8C84.2411 236.003 84.0025 236.268 83.8335 236.596C83.6678 236.921 83.5849 237.274 83.5849 237.655V238.525C83.5849 239.035 83.6744 239.469 83.8534 239.827C84.0357 240.185 84.2892 240.459 84.614 240.648C84.9388 240.833 85.3183 240.926 85.7525 240.926C86.0342 240.926 86.2911 240.886 86.5231 240.807C86.7551 240.724 86.9556 240.601 87.1247 240.439C87.2937 240.277 87.423 240.076 87.5125 239.837L88.9194 240.091C88.8067 240.505 88.6045 240.868 88.3129 241.18C88.0245 241.488 87.6616 241.728 87.2241 241.901C86.7899 242.07 86.2944 242.154 85.7376 242.154Z" fill="#212121"/>
<path d="M57.4375 316.25C56.8333 316.25 56.3151 316.039 55.8828 315.617C55.4557 315.19 55.2448 314.672 55.25 314.062C55.2448 313.469 55.4557 312.961 55.8828 312.539C56.3151 312.117 56.8333 311.906 57.4375 311.906C58.0104 311.906 58.5156 312.117 58.9531 312.539C59.3958 312.961 59.6198 313.469 59.625 314.062C59.6198 314.469 59.513 314.839 59.3047 315.172C59.1016 315.5 58.8359 315.763 58.5078 315.961C58.1797 316.154 57.8229 316.25 57.4375 316.25ZM63.8725 316.25C63.2683 316.25 62.7501 316.039 62.3178 315.617C61.8907 315.19 61.6798 314.672 61.685 314.062C61.6798 313.469 61.8907 312.961 62.3178 312.539C62.7501 312.117 63.2683 311.906 63.8725 311.906C64.4454 311.906 64.9506 312.117 65.3881 312.539C65.8308 312.961 66.0548 313.469 66.06 314.062C66.0548 314.469 65.948 314.839 65.7397 315.172C65.5366 315.5 65.2709 315.763 64.9428 315.961C64.6147 316.154 64.2579 316.25 63.8725 316.25ZM70.3075 316.25C69.7033 316.25 69.1851 316.039 68.7528 315.617C68.3257 315.19 68.1148 314.672 68.12 314.062C68.1148 313.469 68.3257 312.961 68.7528 312.539C69.1851 312.117 69.7033 311.906 70.3075 311.906C70.8804 311.906 71.3856 312.117 71.8231 312.539C72.2658 312.961 72.4898 313.469 72.495 314.062C72.4898 314.469 72.383 314.839 72.1747 315.172C71.9716 315.5 71.7059 315.763 71.3778 315.961C71.0497 316.154 70.6929 316.25 70.3075 316.25ZM76.7425 316.25C76.1383 316.25 75.6201 316.039 75.1878 315.617C74.7607 315.19 74.5498 314.672 74.555 314.062C74.5498 313.469 74.7607 312.961 75.1878 312.539C75.6201 312.117 76.1383 311.906 76.7425 311.906C77.3154 311.906 77.8206 312.117 78.2581 312.539C78.7008 312.961 78.9248 313.469 78.93 314.062C78.9248 314.469 78.818 314.839 78.6097 315.172C78.4066 315.5 78.1409 315.763 77.8128 315.961C77.4847 316.154 77.1279 316.25 76.7425 316.25ZM83.1775 316.25C82.5733 316.25 82.0551 316.039 81.6228 315.617C81.1957 315.19 80.9848 314.672 80.99 314.062C80.9848 313.469 81.1957 312.961 81.6228 312.539C82.0551 312.117 82.5733 311.906 83.1775 311.906C83.7504 311.906 84.2556 312.117 84.6931 312.539C85.1358 312.961 85.3598 313.469 85.365 314.062C85.3598 314.469 85.253 314.839 85.0447 315.172C84.8416 315.5 84.5759 315.763 84.2478 315.961C83.9197 316.154 83.5629 316.25 83.1775 316.25ZM89.6125 316.25C89.0083 316.25 88.4901 316.039 88.0578 315.617C87.6307 315.19 87.4198 314.672 87.425 314.062C87.4198 313.469 87.6307 312.961 88.0578 312.539C88.4901 312.117 89.0083 311.906 89.6125 311.906C90.1854 311.906 90.6906 312.117 91.1281 312.539C91.5708 312.961 91.7948 313.469 91.8 314.062C91.7948 314.469 91.688 314.839 91.4797 315.172C91.2766 315.5 91.0109 315.763 90.6828 315.961C90.3547 316.154 89.9979 316.25 89.6125 316.25ZM96.0475 316.25C95.4433 316.25 94.9251 316.039 94.4928 315.617C94.0657 315.19 93.8548 314.672 93.86 314.062C93.8548 313.469 94.0657 312.961 94.4928 312.539C94.9251 312.117 95.4433 311.906 96.0475 311.906C96.6204 311.906 97.1256 312.117 97.5631 312.539C98.0058 312.961 98.2298 313.469 98.235 314.062C98.2298 314.469 98.123 314.839 97.9147 315.172C97.7116 315.5 97.4459 315.763 97.1178 315.961C96.7897 316.154 96.4329 316.25 96.0475 316.25ZM102.482 316.25C101.878 316.25 101.36 316.039 100.928 315.617C100.501 315.19 100.29 314.672 100.295 314.062C100.29 313.469 100.501 312.961 100.928 312.539C101.36 312.117 101.878 311.906 102.482 311.906C103.055 311.906 103.561 312.117 103.998 312.539C104.441 312.961 104.665 313.469 104.67 314.062C104.665 314.469 104.558 314.839 104.35 315.172C104.147 315.5 103.881 315.763 103.553 315.961C103.225 316.154 102.868 316.25 102.482 316.25ZM108.917 316.25C108.313 316.25 107.795 316.039 107.363 315.617C106.936 315.19 106.725 314.672 106.73 314.062C106.725 313.469 106.936 312.961 107.363 312.539C107.795 312.117 108.313 311.906 108.917 311.906C109.49 311.906 109.996 312.117 110.433 312.539C110.876 312.961 111.1 313.469 111.105 314.062C111.1 314.469 110.993 314.839 110.785 315.172C110.582 315.5 110.316 315.763 109.988 315.961C109.66 316.154 109.303 316.25 108.917 316.25ZM115.353 316.25C114.748 316.25 114.23 316.039 113.798 315.617C113.371 315.19 113.16 314.672 113.165 314.062C113.16 313.469 113.371 312.961 113.798 312.539C114.23 312.117 114.748 311.906 115.353 311.906C115.925 311.906 116.431 312.117 116.868 312.539C117.311 312.961 117.535 313.469 117.54 314.062C117.535 314.469 117.428 314.839 117.22 315.172C117.017 315.5 116.751 315.763 116.423 315.961C116.095 316.154 115.738 316.25 115.353 316.25ZM121.787 316.25C121.183 316.25 120.665 316.039 120.233 315.617C119.806 315.19 119.595 314.672 119.6 314.062C119.595 313.469 119.806 312.961 120.233 312.539C120.665 312.117 121.183 311.906 121.787 311.906C122.36 311.906 122.866 312.117 123.303 312.539C123.746 312.961 123.97 313.469 123.975 314.062C123.97 314.469 123.863 314.839 123.655 315.172C123.452 315.5 123.186 315.763 122.858 315.961C122.53 316.154 122.173 316.25 121.787 316.25ZM128.223 316.25C127.618 316.25 127.1 316.039 126.668 315.617C126.241 315.19 126.03 314.672 126.035 314.062C126.03 313.469 126.241 312.961 126.668 312.539C127.1 312.117 127.618 311.906 128.223 311.906C128.795 311.906 129.301 312.117 129.738 312.539C130.181 312.961 130.405 313.469 130.41 314.062C130.405 314.469 130.298 314.839 130.09 315.172C129.887 315.5 129.621 315.763 129.293 315.961C128.965 316.154 128.608 316.25 128.223 316.25ZM134.658 316.25C134.053 316.25 133.535 316.039 133.103 315.617C132.676 315.19 132.465 314.672 132.47 314.062C132.465 313.469 132.676 312.961 133.103 312.539C133.535 312.117 134.053 311.906 134.658 311.906C135.23 311.906 135.736 312.117 136.173 312.539C136.616 312.961 136.84 313.469 136.845 314.062C136.84 314.469 136.733 314.839 136.525 315.172C136.322 315.5 136.056 315.763 135.728 315.961C135.4 316.154 135.043 316.25 134.658 316.25ZM141.092 316.25C140.488 316.25 139.97 316.039 139.538 315.617C139.111 315.19 138.9 314.672 138.905 314.062C138.9 313.469 139.111 312.961 139.538 312.539C139.97 312.117 140.488 311.906 141.092 311.906C141.665 311.906 142.171 312.117 142.608 312.539C143.051 312.961 143.275 313.469 143.28 314.062C143.275 314.469 143.168 314.839 142.96 315.172C142.757 315.5 142.491 315.763 142.163 315.961C141.835 316.154 141.478 316.25 141.092 316.25ZM147.527 316.25C146.923 316.25 146.405 316.039 145.973 315.617C145.546 315.19 145.335 314.672 145.34 314.062C145.335 313.469 145.546 312.961 145.973 312.539C146.405 312.117 146.923 311.906 147.527 311.906C148.1 311.906 148.606 312.117 149.043 312.539C149.486 312.961 149.71 313.469 149.715 314.062C149.71 314.469 149.603 314.839 149.395 315.172C149.192 315.5 148.926 315.763 148.598 315.961C148.27 316.154 147.913 316.25 147.527 316.25ZM153.963 316.25C153.358 316.25 152.84 316.039 152.408 315.617C151.981 315.19 151.77 314.672 151.775 314.062C151.77 313.469 151.981 312.961 152.408 312.539C152.84 312.117 153.358 311.906 153.963 311.906C154.535 311.906 155.041 312.117 155.478 312.539C155.921 312.961 156.145 313.469 156.15 314.062C156.145 314.469 156.038 314.839 155.83 315.172C155.627 315.5 155.361 315.763 155.033 315.961C154.705 316.154 154.348 316.25 153.963 316.25ZM160.397 316.25C159.793 316.25 159.275 316.039 158.843 315.617C158.416 315.19 158.205 314.672 158.21 314.062C158.205 313.469 158.416 312.961 158.843 312.539C159.275 312.117 159.793 311.906 160.397 311.906C160.97 311.906 161.476 312.117 161.913 312.539C162.356 312.961 162.58 313.469 162.585 314.062C162.58 314.469 162.473 314.839 162.265 315.172C162.062 315.5 161.796 315.763 161.468 315.961C161.14 316.154 160.783 316.25 160.397 316.25ZM166.832 316.25C166.228 316.25 165.71 316.039 165.278 315.617C164.851 315.19 164.64 314.672 164.645 314.062C164.64 313.469 164.851 312.961 165.278 312.539C165.71 312.117 166.228 311.906 166.832 311.906C167.405 311.906 167.911 312.117 168.348 312.539C168.791 312.961 169.015 313.469 169.02 314.062C169.015 314.469 168.908 314.839 168.7 315.172C168.497 315.5 168.231 315.763 167.903 315.961C167.575 316.154 167.218 316.25 166.832 316.25ZM173.268 316.25C172.663 316.25 172.145 316.039 171.713 315.617C171.286 315.19 171.075 314.672 171.08 314.062C171.075 313.469 171.286 312.961 171.713 312.539C172.145 312.117 172.663 311.906 173.268 311.906C173.84 311.906 174.346 312.117 174.783 312.539C175.226 312.961 175.45 313.469 175.455 314.062C175.45 314.469 175.343 314.839 175.135 315.172C174.932 315.5 174.666 315.763 174.338 315.961C174.01 316.154 173.653 316.25 173.268 316.25ZM179.702 316.25C179.098 316.25 178.58 316.039 178.148 315.617C177.721 315.19 177.51 314.672 177.515 314.062C177.51 313.469 177.721 312.961 178.148 312.539C178.58 312.117 179.098 311.906 179.702 311.906C180.275 311.906 180.781 312.117 181.218 312.539C181.661 312.961 181.885 313.469 181.89 314.062C181.885 314.469 181.778 314.839 181.57 315.172C181.367 315.5 181.101 315.763 180.773 315.961C180.445 316.154 180.088 316.25 179.702 316.25ZM186.137 316.25C185.533 316.25 185.015 316.039 184.583 315.617C184.156 315.19 183.945 314.672 183.95 314.062C183.945 313.469 184.156 312.961 184.583 312.539C185.015 312.117 185.533 311.906 186.137 311.906C186.71 311.906 187.216 312.117 187.653 312.539C188.096 312.961 188.32 313.469 188.325 314.062C188.32 314.469 188.213 314.839 188.005 315.172C187.802 315.5 187.536 315.763 187.208 315.961C186.88 316.154 186.523 316.25 186.137 316.25ZM192.572 316.25C191.968 316.25 191.45 316.039 191.018 315.617C190.591 315.19 190.38 314.672 190.385 314.062C190.38 313.469 190.591 312.961 191.018 312.539C191.45 312.117 191.968 311.906 192.572 311.906C193.145 311.906 193.651 312.117 194.088 312.539C194.531 312.961 194.755 313.469 194.76 314.062C194.755 314.469 194.648 314.839 194.44 315.172C194.237 315.5 193.971 315.763 193.643 315.961C193.315 316.154 192.958 316.25 192.572 316.25ZM199.008 316.25C198.403 316.25 197.885 316.039 197.453 315.617C197.026 315.19 196.815 314.672 196.82 314.062C196.815 313.469 197.026 312.961 197.453 312.539C197.885 312.117 198.403 311.906 199.008 311.906C199.58 311.906 200.086 312.117 200.523 312.539C200.966 312.961 201.19 313.469 201.195 314.062C201.19 314.469 201.083 314.839 200.875 315.172C200.672 315.5 200.406 315.763 200.078 315.961C199.75 316.154 199.393 316.25 199.008 316.25ZM205.443 316.25C204.838 316.25 204.32 316.039 203.888 315.617C203.461 315.19 203.25 314.672 203.255 314.062C203.25 313.469 203.461 312.961 203.888 312.539C204.32 312.117 204.838 311.906 205.443 311.906C206.015 311.906 206.521 312.117 206.958 312.539C207.401 312.961 207.625 313.469 207.63 314.062C207.625 314.469 207.518 314.839 207.31 315.172C207.107 315.5 206.841 315.763 206.513 315.961C206.185 316.154 205.828 316.25 205.443 316.25ZM211.878 316.25C211.273 316.25 210.755 316.039 210.323 315.617C209.896 315.19 209.685 314.672 209.69 314.062C209.685 313.469 209.896 312.961 210.323 312.539C210.755 312.117 211.273 311.906 211.878 311.906C212.45 311.906 212.956 312.117 213.393 312.539C213.836 312.961 214.06 313.469 214.065 314.062C214.06 314.469 213.953 314.839 213.745 315.172C213.542 315.5 213.276 315.763 212.948 315.961C212.62 316.154 212.263 316.25 211.878 316.25ZM218.312 316.25C217.708 316.25 217.19 316.039 216.758 315.617C216.331 315.19 216.12 314.672 216.125 314.062C216.12 313.469 216.331 312.961 216.758 312.539C217.19 312.117 217.708 311.906 218.312 311.906C218.885 311.906 219.391 312.117 219.828 312.539C220.271 312.961 220.495 313.469 220.5 314.062C220.495 314.469 220.388 314.839 220.18 315.172C219.977 315.5 219.711 315.763 219.383 315.961C219.055 316.154 218.698 316.25 218.312 316.25ZM224.747 316.25C224.143 316.25 223.625 316.039 223.193 315.617C222.766 315.19 222.555 314.672 222.56 314.062C222.555 313.469 222.766 312.961 223.193 312.539C223.625 312.117 224.143 311.906 224.747 311.906C225.32 311.906 225.826 312.117 226.263 312.539C226.706 312.961 226.93 313.469 226.935 314.062C226.93 314.469 226.823 314.839 226.615 315.172C226.412 315.5 226.146 315.763 225.818 315.961C225.49 316.154 225.133 316.25 224.747 316.25ZM231.182 316.25C230.578 316.25 230.06 316.039 229.628 315.617C229.201 315.19 228.99 314.672 228.995 314.062C228.99 313.469 229.201 312.961 229.628 312.539C230.06 312.117 230.578 311.906 231.182 311.906C231.755 311.906 232.261 312.117 232.698 312.539C233.141 312.961 233.365 313.469 233.37 314.062C233.365 314.469 233.258 314.839 233.05 315.172C232.847 315.5 232.581 315.763 232.253 315.961C231.925 316.154 231.568 316.25 231.182 316.25ZM237.617 316.25C237.013 316.25 236.495 316.039 236.063 315.617C235.636 315.19 235.425 314.672 235.43 314.062C235.425 313.469 235.636 312.961 236.063 312.539C236.495 312.117 237.013 311.906 237.617 311.906C238.19 311.906 238.696 312.117 239.133 312.539C239.576 312.961 239.8 313.469 239.805 314.062C239.8 314.469 239.693 314.839 239.485 315.172C239.282 315.5 239.016 315.763 238.688 315.961C238.36 316.154 238.003 316.25 237.617 316.25ZM244.053 316.25C243.448 316.25 242.93 316.039 242.498 315.617C242.071 315.19 241.86 314.672 241.865 314.062C241.86 313.469 242.071 312.961 242.498 312.539C242.93 312.117 243.448 311.906 244.053 311.906C244.625 311.906 245.131 312.117 245.568 312.539C246.011 312.961 246.235 313.469 246.24 314.062C246.235 314.469 246.128 314.839 245.92 315.172C245.717 315.5 245.451 315.763 245.123 315.961C244.795 316.154 244.438 316.25 244.053 316.25ZM250.488 316.25C249.883 316.25 249.365 316.039 248.933 315.617C248.506 315.19 248.295 314.672 248.3 314.062C248.295 313.469 248.506 312.961 248.933 312.539C249.365 312.117 249.883 311.906 250.488 311.906C251.06 311.906 251.566 312.117 252.003 312.539C252.446 312.961 252.67 313.469 252.675 314.062C252.67 314.469 252.563 314.839 252.355 315.172C252.152 315.5 251.886 315.763 251.558 315.961C251.23 316.154 250.873 316.25 250.488 316.25ZM256.923 316.25C256.318 316.25 255.8 316.039 255.368 315.617C254.941 315.19 254.73 314.672 254.735 314.062C254.73 313.469 254.941 312.961 255.368 312.539C255.8 312.117 256.318 311.906 256.923 311.906C257.495 311.906 258.001 312.117 258.438 312.539C258.881 312.961 259.105 313.469 259.11 314.062C259.105 314.469 258.998 314.839 258.79 315.172C258.587 315.5 258.321 315.763 257.993 315.961C257.665 316.154 257.308 316.25 256.923 316.25ZM263.357 316.25C262.753 316.25 262.235 316.039 261.803 315.617C261.376 315.19 261.165 314.672 261.17 314.062C261.165 313.469 261.376 312.961 261.803 312.539C262.235 312.117 262.753 311.906 263.357 311.906C263.93 311.906 264.436 312.117 264.873 312.539C265.316 312.961 265.54 313.469 265.545 314.062C265.54 314.469 265.433 314.839 265.225 315.172C265.022 315.5 264.756 315.763 264.428 315.961C264.1 316.154 263.743 316.25 263.357 316.25ZM269.792 316.25C269.188 316.25 268.67 316.039 268.238 315.617C267.811 315.19 267.6 314.672 267.605 314.062C267.6 313.469 267.811 312.961 268.238 312.539C268.67 312.117 269.188 311.906 269.792 311.906C270.365 311.906 270.871 312.117 271.308 312.539C271.751 312.961 271.975 313.469 271.98 314.062C271.975 314.469 271.868 314.839 271.66 315.172C271.457 315.5 271.191 315.763 270.863 315.961C270.535 316.154 270.178 316.25 269.792 316.25ZM276.227 316.25C275.623 316.25 275.105 316.039 274.673 315.617C274.246 315.19 274.035 314.672 274.04 314.062C274.035 313.469 274.246 312.961 274.673 312.539C275.105 312.117 275.623 311.906 276.227 311.906C276.8 311.906 277.306 312.117 277.743 312.539C278.186 312.961 278.41 313.469 278.415 314.062C278.41 314.469 278.303 314.839 278.095 315.172C277.892 315.5 277.626 315.763 277.298 315.961C276.97 316.154 276.613 316.25 276.227 316.25ZM282.663 316.25C282.058 316.25 281.54 316.039 281.108 315.617C280.681 315.19 280.47 314.672 280.475 314.062C280.47 313.469 280.681 312.961 281.108 312.539C281.54 312.117 282.058 311.906 282.663 311.906C283.235 311.906 283.741 312.117 284.178 312.539C284.621 312.961 284.845 313.469 284.85 314.062C284.845 314.469 284.738 314.839 284.53 315.172C284.327 315.5 284.061 315.763 283.733 315.961C283.405 316.154 283.048 316.25 282.663 316.25ZM289.098 316.25C288.493 316.25 287.975 316.039 287.543 315.617C287.116 315.19 286.905 314.672 286.91 314.062C286.905 313.469 287.116 312.961 287.543 312.539C287.975 312.117 288.493 311.906 289.098 311.906C289.67 311.906 290.176 312.117 290.613 312.539C291.056 312.961 291.28 313.469 291.285 314.062C291.28 314.469 291.173 314.839 290.965 315.172C290.762 315.5 290.496 315.763 290.168 315.961C289.84 316.154 289.483 316.25 289.098 316.25ZM295.533 316.25C294.928 316.25 294.41 316.039 293.978 315.617C293.551 315.19 293.34 314.672 293.345 314.062C293.34 313.469 293.551 312.961 293.978 312.539C294.41 312.117 294.928 311.906 295.533 311.906C296.105 311.906 296.611 312.117 297.048 312.539C297.491 312.961 297.715 313.469 297.72 314.062C297.715 314.469 297.608 314.839 297.4 315.172C297.197 315.5 296.931 315.763 296.603 315.961C296.275 316.154 295.918 316.25 295.533 316.25ZM301.967 316.25C301.363 316.25 300.845 316.039 300.413 315.617C299.986 315.19 299.775 314.672 299.78 314.062C299.775 313.469 299.986 312.961 300.413 312.539C300.845 312.117 301.363 311.906 301.967 311.906C302.54 311.906 303.046 312.117 303.483 312.539C303.926 312.961 304.15 313.469 304.155 314.062C304.15 314.469 304.043 314.839 303.835 315.172C303.632 315.5 303.366 315.763 303.038 315.961C302.71 316.154 302.353 316.25 301.967 316.25ZM308.402 316.25C307.798 316.25 307.28 316.039 306.848 315.617C306.421 315.19 306.21 314.672 306.215 314.062C306.21 313.469 306.421 312.961 306.848 312.539C307.28 312.117 307.798 311.906 308.402 311.906C308.975 311.906 309.481 312.117 309.918 312.539C310.361 312.961 310.585 313.469 310.59 314.062C310.585 314.469 310.478 314.839 310.27 315.172C310.067 315.5 309.801 315.763 309.473 315.961C309.145 316.154 308.788 316.25 308.402 316.25ZM314.837 316.25C314.233 316.25 313.715 316.039 313.283 315.617C312.856 315.19 312.645 314.672 312.65 314.062C312.645 313.469 312.856 312.961 313.283 312.539C313.715 312.117 314.233 311.906 314.837 311.906C315.41 311.906 315.916 312.117 316.353 312.539C316.796 312.961 317.02 313.469 317.025 314.062C317.02 314.469 316.913 314.839 316.705 315.172C316.502 315.5 316.236 315.763 315.908 315.961C315.58 316.154 315.223 316.25 314.837 316.25ZM321.272 316.25C320.668 316.25 320.15 316.039 319.718 315.617C319.291 315.19 319.08 314.672 319.085 314.062C319.08 313.469 319.291 312.961 319.718 312.539C320.15 312.117 320.668 311.906 321.272 311.906C321.845 311.906 322.351 312.117 322.788 312.539C323.231 312.961 323.455 313.469 323.46 314.062C323.455 314.469 323.348 314.839 323.14 315.172C322.937 315.5 322.671 315.763 322.343 315.961C322.015 316.154 321.658 316.25 321.272 316.25ZM327.707 316.25C327.103 316.25 326.585 316.039 326.153 315.617C325.726 315.19 325.515 314.672 325.52 314.062C325.515 313.469 325.726 312.961 326.153 312.539C326.585 312.117 327.103 311.906 327.707 311.906C328.28 311.906 328.786 312.117 329.223 312.539C329.666 312.961 329.89 313.469 329.895 314.062C329.89 314.469 329.783 314.839 329.575 315.172C329.372 315.5 329.106 315.763 328.778 315.961C328.45 316.154 328.093 316.25 327.707 316.25ZM334.142 316.25C333.538 316.25 333.02 316.039 332.588 315.617C332.161 315.19 331.95 314.672 331.955 314.062C331.95 313.469 332.161 312.961 332.588 312.539C333.02 312.117 333.538 311.906 334.142 311.906C334.715 311.906 335.221 312.117 335.658 312.539C336.101 312.961 336.325 313.469 336.33 314.062C336.325 314.469 336.218 314.839 336.01 315.172C335.807 315.5 335.541 315.763 335.213 315.961C334.885 316.154 334.528 316.25 334.142 316.25ZM340.578 316.25C339.973 316.25 339.455 316.039 339.023 315.617C338.596 315.19 338.385 314.672 338.39 314.062C338.385 313.469 338.596 312.961 339.023 312.539C339.455 312.117 339.973 311.906 340.578 311.906C341.15 311.906 341.656 312.117 342.093 312.539C342.536 312.961 342.76 313.469 342.765 314.062C342.76 314.469 342.653 314.839 342.445 315.172C342.242 315.5 341.976 315.763 341.648 315.961C341.32 316.154 340.963 316.25 340.578 316.25ZM347.013 316.25C346.408 316.25 345.89 316.039 345.458 315.617C345.031 315.19 344.82 314.672 344.825 314.062C344.82 313.469 345.031 312.961 345.458 312.539C345.89 312.117 346.408 311.906 347.013 311.906C347.585 311.906 348.091 312.117 348.528 312.539C348.971 312.961 349.195 313.469 349.2 314.062C349.195 314.469 349.088 314.839 348.88 315.172C348.677 315.5 348.411 315.763 348.083 315.961C347.755 316.154 347.398 316.25 347.013 316.25ZM353.448 316.25C352.843 316.25 352.325 316.039 351.893 315.617C351.466 315.19 351.255 314.672 351.26 314.062C351.255 313.469 351.466 312.961 351.893 312.539C352.325 312.117 352.843 311.906 353.448 311.906C354.02 311.906 354.526 312.117 354.963 312.539C355.406 312.961 355.63 313.469 355.635 314.062C355.63 314.469 355.523 314.839 355.315 315.172C355.112 315.5 354.846 315.763 354.518 315.961C354.19 316.154 353.833 316.25 353.448 316.25ZM359.883 316.25C359.278 316.25 358.76 316.039 358.328 315.617C357.901 315.19 357.69 314.672 357.695 314.062C357.69 313.469 357.901 312.961 358.328 312.539C358.76 312.117 359.278 311.906 359.883 311.906C360.455 311.906 360.961 312.117 361.398 312.539C361.841 312.961 362.065 313.469 362.07 314.062C362.065 314.469 361.958 314.839 361.75 315.172C361.547 315.5 361.281 315.763 360.953 315.961C360.625 316.154 360.268 316.25 359.883 316.25ZM366.318 316.25C365.713 316.25 365.195 316.039 364.763 315.617C364.336 315.19 364.125 314.672 364.13 314.062C364.125 313.469 364.336 312.961 364.763 312.539C365.195 312.117 365.713 311.906 366.318 311.906C366.89 311.906 367.396 312.117 367.833 312.539C368.276 312.961 368.5 313.469 368.505 314.062C368.5 314.469 368.393 314.839 368.185 315.172C367.982 315.5 367.716 315.763 367.388 315.961C367.06 316.154 366.703 316.25 366.318 316.25ZM372.753 316.25C372.148 316.25 371.63 316.039 371.198 315.617C370.771 315.19 370.56 314.672 370.565 314.062C370.56 313.469 370.771 312.961 371.198 312.539C371.63 312.117 372.148 311.906 372.753 311.906C373.325 311.906 373.831 312.117 374.268 312.539C374.711 312.961 374.935 313.469 374.94 314.062C374.935 314.469 374.828 314.839 374.62 315.172C374.417 315.5 374.151 315.763 373.823 315.961C373.495 316.154 373.138 316.25 372.753 316.25ZM379.188 316.25C378.583 316.25 378.065 316.039 377.633 315.617C377.206 315.19 376.995 314.672 377 314.062C376.995 313.469 377.206 312.961 377.633 312.539C378.065 312.117 378.583 311.906 379.188 311.906C379.76 311.906 380.266 312.117 380.703 312.539C381.146 312.961 381.37 313.469 381.375 314.062C381.37 314.469 381.263 314.839 381.055 315.172C380.852 315.5 380.586 315.763 380.258 315.961C379.93 316.154 379.573 316.25 379.188 316.25ZM385.622 316.25C385.018 316.25 384.5 316.039 384.068 315.617C383.641 315.19 383.43 314.672 383.435 314.062C383.43 313.469 383.641 312.961 384.068 312.539C384.5 312.117 385.018 311.906 385.622 311.906C386.195 311.906 386.701 312.117 387.138 312.539C387.581 312.961 387.805 313.469 387.81 314.062C387.805 314.469 387.698 314.839 387.49 315.172C387.287 315.5 387.021 315.763 386.693 315.961C386.365 316.154 386.008 316.25 385.622 316.25ZM392.057 316.25C391.453 316.25 390.935 316.039 390.503 315.617C390.076 315.19 389.865 314.672 389.87 314.062C389.865 313.469 390.076 312.961 390.503 312.539C390.935 312.117 391.453 311.906 392.057 311.906C392.63 311.906 393.136 312.117 393.573 312.539C394.016 312.961 394.24 313.469 394.245 314.062C394.24 314.469 394.133 314.839 393.925 315.172C393.722 315.5 393.456 315.763 393.128 315.961C392.8 316.154 392.443 316.25 392.057 316.25ZM398.492 316.25C397.888 316.25 397.37 316.039 396.938 315.617C396.511 315.19 396.3 314.672 396.305 314.062C396.3 313.469 396.511 312.961 396.938 312.539C397.37 312.117 397.888 311.906 398.492 311.906C399.065 311.906 399.571 312.117 400.008 312.539C400.451 312.961 400.675 313.469 400.68 314.062C400.675 314.469 400.568 314.839 400.36 315.172C400.157 315.5 399.891 315.763 399.563 315.961C399.235 316.154 398.878 316.25 398.492 316.25ZM404.927 316.25C404.323 316.25 403.805 316.039 403.373 315.617C402.946 315.19 402.735 314.672 402.74 314.062C402.735 313.469 402.946 312.961 403.373 312.539C403.805 312.117 404.323 311.906 404.927 311.906C405.5 311.906 406.006 312.117 406.443 312.539C406.886 312.961 407.11 313.469 407.115 314.062C407.11 314.469 407.003 314.839 406.795 315.172C406.592 315.5 406.326 315.763 405.998 315.961C405.67 316.154 405.313 316.25 404.927 316.25ZM411.362 316.25C410.758 316.25 410.24 316.039 409.808 315.617C409.381 315.19 409.17 314.672 409.175 314.062C409.17 313.469 409.381 312.961 409.808 312.539C410.24 312.117 410.758 311.906 411.362 311.906C411.935 311.906 412.441 312.117 412.878 312.539C413.321 312.961 413.545 313.469 413.55 314.062C413.545 314.469 413.438 314.839 413.23 315.172C413.027 315.5 412.761 315.763 412.433 315.961C412.105 316.154 411.748 316.25 411.362 316.25ZM417.797 316.25C417.193 316.25 416.675 316.039 416.243 315.617C415.816 315.19 415.605 314.672 415.61 314.062C415.605 313.469 415.816 312.961 416.243 312.539C416.675 312.117 417.193 311.906 417.797 311.906C418.37 311.906 418.876 312.117 419.313 312.539C419.756 312.961 419.98 313.469 419.985 314.062C419.98 314.469 419.873 314.839 419.665 315.172C419.462 315.5 419.196 315.763 418.868 315.961C418.54 316.154 418.183 316.25 417.797 316.25ZM424.233 316.25C423.628 316.25 423.11 316.039 422.678 315.617C422.251 315.19 422.04 314.672 422.045 314.062C422.04 313.469 422.251 312.961 422.678 312.539C423.11 312.117 423.628 311.906 424.233 311.906C424.805 311.906 425.311 312.117 425.748 312.539C426.191 312.961 426.415 313.469 426.42 314.062C426.415 314.469 426.308 314.839 426.1 315.172C425.897 315.5 425.631 315.763 425.303 315.961C424.975 316.154 424.618 316.25 424.233 316.25ZM430.668 316.25C430.063 316.25 429.545 316.039 429.113 315.617C428.686 315.19 428.475 314.672 428.48 314.062C428.475 313.469 428.686 312.961 429.113 312.539C429.545 312.117 430.063 311.906 430.668 311.906C431.24 311.906 431.746 312.117 432.183 312.539C432.626 312.961 432.85 313.469 432.855 314.062C432.85 314.469 432.743 314.839 432.535 315.172C432.332 315.5 432.066 315.763 431.738 315.961C431.41 316.154 431.053 316.25 430.668 316.25ZM437.103 316.25C436.498 316.25 435.98 316.039 435.548 315.617C435.121 315.19 434.91 314.672 434.915 314.062C434.91 313.469 435.121 312.961 435.548 312.539C435.98 312.117 436.498 311.906 437.103 311.906C437.675 311.906 438.181 312.117 438.618 312.539C439.061 312.961 439.285 313.469 439.29 314.062C439.285 314.469 439.178 314.839 438.97 315.172C438.767 315.5 438.501 315.763 438.173 315.961C437.845 316.154 437.488 316.25 437.103 316.25ZM443.538 316.25C442.933 316.25 442.415 316.039 441.983 315.617C441.556 315.19 441.345 314.672 441.35 314.062C441.345 313.469 441.556 312.961 441.983 312.539C442.415 312.117 442.933 311.906 443.538 311.906C444.11 311.906 444.616 312.117 445.053 312.539C445.496 312.961 445.72 313.469 445.725 314.062C445.72 314.469 445.613 314.839 445.405 315.172C445.202 315.5 444.936 315.763 444.608 315.961C444.28 316.154 443.923 316.25 443.538 316.25ZM449.973 316.25C449.368 316.25 448.85 316.039 448.418 315.617C447.991 315.19 447.78 314.672 447.785 314.062C447.78 313.469 447.991 312.961 448.418 312.539C448.85 312.117 449.368 311.906 449.973 311.906C450.545 311.906 451.051 312.117 451.488 312.539C451.931 312.961 452.155 313.469 452.16 314.062C452.155 314.469 452.048 314.839 451.84 315.172C451.637 315.5 451.371 315.763 451.043 315.961C450.715 316.154 450.358 316.25 449.973 316.25ZM456.408 316.25C455.803 316.25 455.285 316.039 454.853 315.617C454.426 315.19 454.215 314.672 454.22 314.062C454.215 313.469 454.426 312.961 454.853 312.539C455.285 312.117 455.803 311.906 456.408 311.906C456.98 311.906 457.486 312.117 457.923 312.539C458.366 312.961 458.59 313.469 458.595 314.062C458.59 314.469 458.483 314.839 458.275 315.172C458.072 315.5 457.806 315.763 457.478 315.961C457.15 316.154 456.793 316.25 456.408 316.25Z" fill="#212121"/>
<path d="M45.3118 287H43.343L46.9276 276.818H49.2045L52.794 287H50.8253L48.1058 278.906H48.0263L45.3118 287ZM45.3764 283.008H50.7457V284.489H45.3764V283.008ZM56.8741 287.149C56.1118 287.149 55.4572 286.982 54.9103 286.647C54.3668 286.312 53.9475 285.85 53.6525 285.26C53.3609 284.667 53.215 283.984 53.215 283.212C53.215 282.436 53.3642 281.752 53.6625 281.158C53.9608 280.562 54.3817 280.098 54.9253 279.766C55.4721 279.432 56.1184 279.264 56.8642 279.264C57.484 279.264 58.0325 279.379 58.5098 279.607C58.9904 279.833 59.3732 280.152 59.6582 280.567C59.9432 280.978 60.1057 281.458 60.1454 282.009H58.4253C58.3557 281.641 58.1899 281.334 57.9281 281.089C57.6696 280.84 57.3232 280.716 56.889 280.716C56.5211 280.716 56.198 280.815 55.9196 281.014C55.6412 281.21 55.4241 281.491 55.2683 281.859C55.1158 282.227 55.0396 282.668 55.0396 283.182C55.0396 283.702 55.1158 284.15 55.2683 284.524C55.4208 284.895 55.6345 285.182 55.9096 285.384C56.188 285.583 56.5145 285.683 56.889 285.683C57.1542 285.683 57.3912 285.633 57.6 285.533C57.8121 285.431 57.9894 285.283 58.1319 285.091C58.2745 284.899 58.3722 284.665 58.4253 284.39H60.1454C60.1023 284.93 59.9432 285.409 59.6682 285.827C59.3931 286.241 59.0185 286.566 58.5446 286.801C58.0706 287.033 57.5138 287.149 56.8741 287.149ZM64.6742 287.149C63.9119 287.149 63.2573 286.982 62.7104 286.647C62.1669 286.312 61.7476 285.85 61.4526 285.26C61.1609 284.667 61.0151 283.984 61.0151 283.212C61.0151 282.436 61.1643 281.752 61.4626 281.158C61.7608 280.562 62.1818 280.098 62.7253 279.766C63.2722 279.432 63.9185 279.264 64.6643 279.264C65.284 279.264 65.8326 279.379 66.3099 279.607C66.7904 279.833 67.1733 280.152 67.4583 280.567C67.7433 280.978 67.9057 281.458 67.9455 282.009H66.2253C66.1557 281.641 65.99 281.334 65.7282 281.089C65.4697 280.84 65.1233 280.716 64.6891 280.716C64.3212 280.716 63.9981 280.815 63.7197 281.014C63.4412 281.21 63.2242 281.491 63.0684 281.859C62.9159 282.227 62.8397 282.668 62.8397 283.182C62.8397 283.702 62.9159 284.15 63.0684 284.524C63.2208 284.895 63.4346 285.182 63.7097 285.384C63.9881 285.583 64.3146 285.683 64.6891 285.683C64.9543 285.683 65.1912 285.633 65.4001 285.533C65.6122 285.431 65.7895 285.283 65.932 285.091C66.0745 284.899 66.1723 284.665 66.2253 284.39H67.9455C67.9024 284.93 67.7433 285.409 67.4682 285.827C67.1931 286.241 66.8186 286.566 66.3447 286.801C65.8707 287.033 65.3139 287.149 64.6742 287.149ZM72.524 287.149C71.7584 287.149 71.0971 286.99 70.5403 286.672C69.9868 286.35 69.5609 285.896 69.2626 285.31C68.9643 284.72 68.8152 284.025 68.8152 283.227C68.8152 282.441 68.9643 281.752 69.2626 281.158C69.5642 280.562 69.9852 280.098 70.5254 279.766C71.0657 279.432 71.7004 279.264 72.4295 279.264C72.9002 279.264 73.3443 279.34 73.7619 279.493C74.1828 279.642 74.5541 279.874 74.8756 280.189C75.2004 280.504 75.4556 280.905 75.6412 281.392C75.8268 281.876 75.9196 282.453 75.9196 283.122V283.674H69.6604V282.461H74.1944C74.1911 282.116 74.1166 281.81 73.9707 281.541C73.8249 281.269 73.6211 281.056 73.3592 280.9C73.1007 280.744 72.7991 280.666 72.4544 280.666C72.0865 280.666 71.7633 280.756 71.4849 280.935C71.2065 281.11 70.9894 281.342 70.8337 281.631C70.6812 281.916 70.6033 282.229 70.6 282.57V283.629C70.6 284.073 70.6812 284.455 70.8436 284.773C71.006 285.088 71.233 285.33 71.5247 285.499C71.8164 285.664 72.1578 285.747 72.5488 285.747C72.8107 285.747 73.0477 285.711 73.2598 285.638C73.4719 285.562 73.6559 285.451 73.8116 285.305C73.9674 285.159 74.0851 284.978 74.1646 284.763L75.845 284.952C75.739 285.396 75.5368 285.784 75.2385 286.115C74.9435 286.443 74.5657 286.698 74.105 286.881C73.6443 287.06 73.1173 287.149 72.524 287.149ZM83.1977 281.382L81.557 281.561C81.5106 281.395 81.4294 281.24 81.3134 281.094C81.2007 280.948 81.0483 280.83 80.856 280.741C80.6638 280.651 80.4285 280.607 80.1501 280.607C79.7755 280.607 79.4607 280.688 79.2055 280.85C78.9536 281.013 78.8293 281.223 78.8326 281.482C78.8293 281.704 78.9105 281.884 79.0762 282.023C79.2452 282.163 79.5236 282.277 79.9114 282.366L81.214 282.645C81.9365 282.801 82.4735 283.048 82.8248 283.386C83.1794 283.724 83.3584 284.166 83.3617 284.713C83.3584 285.194 83.2175 285.618 82.9391 285.986C82.664 286.35 82.2812 286.635 81.7907 286.841C81.3002 287.046 80.7367 287.149 80.1003 287.149C79.1657 287.149 78.4133 286.954 77.8432 286.562C77.2732 286.168 76.9334 285.62 76.8241 284.917L78.579 284.748C78.6586 285.093 78.8276 285.353 79.0861 285.528C79.3447 285.704 79.6811 285.792 80.0954 285.792C80.5229 285.792 80.866 285.704 81.1245 285.528C81.3863 285.353 81.5173 285.136 81.5173 284.877C81.5173 284.658 81.4327 284.478 81.2637 284.335C81.098 284.193 80.8395 284.083 80.4881 284.007L79.1856 283.734C78.4531 283.581 77.9112 283.324 77.5599 282.963C77.2085 282.598 77.0345 282.138 77.0378 281.581C77.0345 281.11 77.1621 280.703 77.4207 280.358C77.6825 280.01 78.0454 279.741 78.5094 279.553C78.9768 279.36 79.5154 279.264 80.1252 279.264C81.0201 279.264 81.7244 279.455 82.2381 279.836C82.7552 280.217 83.075 280.732 83.1977 281.382ZM90.6012 281.382L88.9606 281.561C88.9142 281.395 88.833 281.24 88.717 281.094C88.6043 280.948 88.4519 280.83 88.2596 280.741C88.0674 280.651 87.8321 280.607 87.5537 280.607C87.1791 280.607 86.8643 280.688 86.6091 280.85C86.3572 281.013 86.2329 281.223 86.2362 281.482C86.2329 281.704 86.3141 281.884 86.4798 282.023C86.6488 282.163 86.9272 282.277 87.315 282.366L88.6176 282.645C89.3401 282.801 89.877 283.048 90.2284 283.386C90.583 283.724 90.762 284.166 90.7653 284.713C90.762 285.194 90.6211 285.618 90.3427 285.986C90.0676 286.35 89.6848 286.635 89.1943 286.841C88.7038 287.046 88.1403 287.149 87.5039 287.149C86.5693 287.149 85.8169 286.954 85.2468 286.562C84.6768 286.168 84.337 285.62 84.2277 284.917L85.9826 284.748C86.0622 285.093 86.2312 285.353 86.4897 285.528C86.7483 285.704 87.0847 285.792 87.499 285.792C87.9265 285.792 88.2696 285.704 88.5281 285.528C88.7899 285.353 88.9208 285.136 88.9208 284.877C88.9208 284.658 88.8363 284.478 88.6673 284.335C88.5016 284.193 88.2431 284.083 87.8917 284.007L86.5892 283.734C85.8567 283.581 85.3148 283.324 84.9635 282.963C84.6121 282.598 84.4381 282.138 84.4414 281.581C84.4381 281.11 84.5657 280.703 84.8243 280.358C85.0861 280.01 85.449 279.741 85.913 279.553C86.3804 279.36 86.9189 279.264 87.5288 279.264C88.4237 279.264 89.128 279.455 89.6417 279.836C90.1588 280.217 90.4786 280.732 90.6012 281.382ZM98.9752 279.364V280.756H94.5853V279.364H98.9752ZM95.6691 277.534H97.4688V284.703C97.4688 284.945 97.5053 285.131 97.5782 285.26C97.6544 285.386 97.7538 285.472 97.8765 285.518C97.9991 285.565 98.135 285.588 98.2841 285.588C98.3968 285.588 98.4996 285.58 98.5924 285.563C98.6885 285.547 98.7614 285.532 98.8111 285.518L99.1144 286.925C99.0183 286.959 98.8807 286.995 98.7018 287.035C98.5261 287.075 98.3107 287.098 98.0554 287.104C97.6047 287.118 97.1987 287.05 96.8374 286.901C96.4761 286.748 96.1894 286.513 95.9773 286.195C95.7685 285.876 95.6658 285.479 95.6691 285.001V277.534ZM103.449 287.149C102.704 287.149 102.057 286.985 101.51 286.657C100.963 286.329 100.539 285.87 100.238 285.28C99.9393 284.69 99.7902 284 99.7902 283.212C99.7902 282.423 99.9393 281.732 100.238 281.138C100.539 280.545 100.963 280.085 101.51 279.756C102.057 279.428 102.704 279.264 103.449 279.264C104.195 279.264 104.841 279.428 105.388 279.756C105.935 280.085 106.358 280.545 106.656 281.138C106.958 281.732 107.108 282.423 107.108 283.212C107.108 284 106.958 284.69 106.656 285.28C106.358 285.87 105.935 286.329 105.388 286.657C104.841 286.985 104.195 287.149 103.449 287.149ZM103.459 285.707C103.864 285.707 104.202 285.596 104.473 285.374C104.745 285.149 104.947 284.847 105.08 284.469C105.216 284.092 105.284 283.671 105.284 283.207C105.284 282.739 105.216 282.317 105.08 281.939C104.947 281.558 104.745 281.254 104.473 281.029C104.202 280.804 103.864 280.691 103.459 280.691C103.045 280.691 102.7 280.804 102.425 281.029C102.153 281.254 101.95 281.558 101.814 281.939C101.681 282.317 101.615 282.739 101.615 283.207C101.615 283.671 101.681 284.092 101.814 284.469C101.95 284.847 102.153 285.149 102.425 285.374C102.7 285.596 103.045 285.707 103.459 285.707ZM109.997 284.604L109.992 282.431H110.28L113.024 279.364H115.127L111.751 283.122H111.379L109.997 284.604ZM108.356 287V276.818H110.156V287H108.356ZM113.149 287L110.663 283.525L111.876 282.257L115.301 287H113.149ZM119.113 287.149C118.347 287.149 117.686 286.99 117.129 286.672C116.576 286.35 116.15 285.896 115.851 285.31C115.553 284.72 115.404 284.025 115.404 283.227C115.404 282.441 115.553 281.752 115.851 281.158C116.153 280.562 116.574 280.098 117.114 279.766C117.654 279.432 118.289 279.264 119.018 279.264C119.489 279.264 119.933 279.34 120.351 279.493C120.772 279.642 121.143 279.874 121.464 280.189C121.789 280.504 122.044 280.905 122.23 281.392C122.416 281.876 122.508 282.453 122.508 283.122V283.674H116.249V282.461H120.783C120.78 282.116 120.705 281.81 120.56 281.541C120.414 281.269 120.21 281.056 119.948 280.9C119.69 280.744 119.388 280.666 119.043 280.666C118.675 280.666 118.352 280.756 118.074 280.935C117.795 281.11 117.578 281.342 117.422 281.631C117.27 281.916 117.192 282.229 117.189 282.57V283.629C117.189 284.073 117.27 284.455 117.432 284.773C117.595 285.088 117.822 285.33 118.114 285.499C118.405 285.664 118.747 285.747 119.138 285.747C119.4 285.747 119.636 285.711 119.849 285.638C120.061 285.562 120.245 285.451 120.4 285.305C120.556 285.159 120.674 284.978 120.753 284.763L122.434 284.952C122.328 285.396 122.126 285.784 121.827 286.115C121.532 286.443 121.154 286.698 120.694 286.881C120.233 287.06 119.706 287.149 119.113 287.149ZM125.551 282.526V287H123.751V279.364H125.471V280.661H125.561C125.736 280.234 126.016 279.894 126.401 279.642C126.789 279.39 127.268 279.264 127.838 279.264C128.365 279.264 128.824 279.377 129.215 279.602C129.609 279.828 129.914 280.154 130.13 280.582C130.348 281.009 130.456 281.528 130.453 282.138V287H128.653V282.416C128.653 281.906 128.52 281.506 128.255 281.218C127.993 280.93 127.63 280.786 127.166 280.786C126.852 280.786 126.572 280.855 126.326 280.994C126.084 281.13 125.894 281.327 125.755 281.586C125.619 281.844 125.551 282.158 125.551 282.526Z" fill="#212121"/>
</svg>
