<svg width="370" height="198" viewBox="0 0 370 198" fill="none" xmlns="http://www.w3.org/2000/svg">
<rect width="370" height="198" fill="white"/>
<rect x="33.5" y="55.5" width="302" height="34" rx="5.5" fill="white" stroke="#E7E7E7"/>
<rect x="33.5" y="133.5" width="302" height="34" rx="5.5" fill="white" stroke="#E7E7E7"/>
<path d="M47.2159 77.1541C46.4768 77.1541 45.8404 76.9867 45.3068 76.652C44.7765 76.3139 44.3688 75.8482 44.0838 75.255C43.7988 74.6617 43.6562 73.9822 43.6562 73.2166C43.6562 72.4411 43.8021 71.7566 44.0938 71.1634C44.3854 70.5668 44.7964 70.1011 45.3267 69.7663C45.857 69.4316 46.4818 69.2642 47.201 69.2642C47.781 69.2642 48.2981 69.3719 48.7521 69.5874C49.2062 69.7995 49.5724 70.0978 49.8509 70.4822C50.1326 70.8667 50.3 71.3158 50.353 71.8295H48.9062C48.8267 71.4716 48.6444 71.1634 48.3594 70.9048C48.0777 70.6463 47.6998 70.517 47.2259 70.517C46.8116 70.517 46.4486 70.6264 46.1371 70.8452C45.8288 71.0606 45.5885 71.3688 45.4162 71.7699C45.2438 72.1676 45.1577 72.6383 45.1577 73.1818C45.1577 73.7386 45.2422 74.2192 45.4112 74.6236C45.5803 75.0279 45.8189 75.3411 46.1271 75.5632C46.4387 75.7853 46.8049 75.8963 47.2259 75.8963C47.5076 75.8963 47.7628 75.8449 47.9915 75.7422C48.2235 75.6361 48.4174 75.4853 48.5732 75.2898C48.7322 75.0942 48.8433 74.8589 48.9062 74.5838H50.353C50.3 75.0777 50.1392 75.5185 49.8707 75.9062C49.6023 76.294 49.2427 76.599 48.7919 76.821C48.3445 77.0431 47.8191 77.1541 47.2159 77.1541ZM54.8793 77.1541C54.1634 77.1541 53.5386 76.9901 53.005 76.6619C52.4714 76.3338 52.0571 75.8748 51.7621 75.2848C51.4671 74.6948 51.3196 74.0054 51.3196 73.2166C51.3196 72.4245 51.4671 71.7318 51.7621 71.1385C52.0571 70.5452 52.4714 70.0845 53.005 69.7564C53.5386 69.4283 54.1634 69.2642 54.8793 69.2642C55.5952 69.2642 56.2199 69.4283 56.7536 69.7564C57.2872 70.0845 57.7015 70.5452 57.9965 71.1385C58.2914 71.7318 58.4389 72.4245 58.4389 73.2166C58.4389 74.0054 58.2914 74.6948 57.9965 75.2848C57.7015 75.8748 57.2872 76.3338 56.7536 76.6619C56.2199 76.9901 55.5952 77.1541 54.8793 77.1541ZM54.8842 75.9062C55.3483 75.9062 55.7327 75.7836 56.0376 75.5384C56.3426 75.2931 56.568 74.9666 56.7138 74.5589C56.8629 74.1513 56.9375 73.7022 56.9375 73.2116C56.9375 72.7244 56.8629 72.277 56.7138 71.8693C56.568 71.4583 56.3426 71.1286 56.0376 70.88C55.7327 70.6314 55.3483 70.5071 54.8842 70.5071C54.4169 70.5071 54.0291 70.6314 53.7209 70.88C53.416 71.1286 53.1889 71.4583 53.0398 71.8693C52.8939 72.277 52.821 72.7244 52.821 73.2116C52.821 73.7022 52.8939 74.1513 53.0398 74.5589C53.1889 74.9666 53.416 75.2931 53.7209 75.5384C54.0291 75.7836 54.4169 75.9062 54.8842 75.9062ZM59.8182 77V69.3636H61.245V70.6065H61.3395C61.4986 70.1856 61.7588 69.8575 62.12 69.6222C62.4813 69.3835 62.9138 69.2642 63.4176 69.2642C63.928 69.2642 64.3556 69.3835 64.7003 69.6222C65.0483 69.8608 65.3052 70.1889 65.4709 70.6065H65.5504C65.7327 70.1989 66.0227 69.8741 66.4205 69.6321C66.8182 69.3868 67.2922 69.2642 67.8423 69.2642C68.5351 69.2642 69.1002 69.4813 69.5377 69.9155C69.9785 70.3497 70.1989 71.0043 70.1989 71.8793V77H68.7124V72.0185C68.7124 71.5014 68.5715 71.1269 68.2898 70.8949C68.0081 70.6629 67.6717 70.5469 67.2806 70.5469C66.7967 70.5469 66.4205 70.696 66.152 70.9943C65.8835 71.2893 65.7493 71.6688 65.7493 72.1328V77H64.2678V71.924C64.2678 71.5097 64.1385 71.1766 63.88 70.9247C63.6215 70.6728 63.2851 70.5469 62.8708 70.5469C62.589 70.5469 62.3288 70.6214 62.0902 70.7706C61.8549 70.9164 61.6643 71.1203 61.5185 71.3821C61.376 71.6439 61.3047 71.9472 61.3047 72.2919V77H59.8182ZM71.9112 79.8636V69.3636H73.3629V70.6016H73.4872C73.5734 70.4425 73.6977 70.2585 73.8601 70.0497C74.0225 69.8409 74.2479 69.6586 74.5362 69.5028C74.8246 69.3438 75.2058 69.2642 75.6797 69.2642C76.2962 69.2642 76.8464 69.42 77.3303 69.7315C77.8142 70.0431 78.1937 70.4922 78.4688 71.0788C78.7472 71.6655 78.8864 72.3714 78.8864 73.1967C78.8864 74.022 78.7488 74.7296 78.4737 75.3196C78.1986 75.9062 77.8208 76.3587 77.3402 76.6768C76.8596 76.9917 76.3111 77.1491 75.6946 77.1491C75.2306 77.1491 74.8511 77.0713 74.5561 76.9155C74.2645 76.7597 74.0358 76.5774 73.87 76.3686C73.7043 76.1598 73.5767 75.9742 73.4872 75.8118H73.3977V79.8636H71.9112ZM73.3679 73.1818C73.3679 73.7187 73.4458 74.1894 73.6016 74.5938C73.7574 74.9981 73.9827 75.3146 74.2777 75.5433C74.5727 75.7687 74.934 75.8814 75.3615 75.8814C75.8057 75.8814 76.1769 75.7637 76.4752 75.5284C76.7735 75.2898 76.9988 74.9666 77.1513 74.5589C77.3071 74.1513 77.385 73.6922 77.385 73.1818C77.385 72.678 77.3087 72.2256 77.1563 71.8246C77.0071 71.4235 76.7817 71.107 76.4801 70.875C76.1818 70.643 75.809 70.527 75.3615 70.527C74.9307 70.527 74.5661 70.638 74.2678 70.8601C73.9728 71.0821 73.7491 71.392 73.5966 71.7898C73.4442 72.1875 73.3679 72.6515 73.3679 73.1818ZM82.4942 77.169C82.0103 77.169 81.5728 77.0795 81.1817 76.9006C80.7906 76.7183 80.4807 76.4548 80.252 76.1101C80.0266 75.7654 79.9139 75.3428 79.9139 74.8423C79.9139 74.4115 79.9968 74.0568 80.1625 73.7784C80.3282 73.5 80.5519 73.2796 80.8337 73.1172C81.1154 72.9548 81.4302 72.8321 81.7783 72.7493C82.1263 72.6664 82.4809 72.6035 82.8422 72.5604C83.2996 72.5073 83.6708 72.4643 83.9558 72.4311C84.2409 72.3946 84.448 72.3366 84.5773 72.2571C84.7065 72.1776 84.7712 72.0483 84.7712 71.8693V71.8345C84.7712 71.4003 84.6485 71.0639 84.4033 70.8253C84.1613 70.5866 83.8 70.4673 83.3195 70.4673C82.819 70.4673 82.4246 70.5784 82.1362 70.8004C81.8512 71.0192 81.654 71.2628 81.5446 71.5312L80.1476 71.2131C80.3133 70.7491 80.5552 70.3745 80.8734 70.0895C81.1949 69.8011 81.5645 69.5923 81.9821 69.4631C82.3997 69.3305 82.8389 69.2642 83.2996 69.2642C83.6045 69.2642 83.9276 69.3007 84.269 69.3736C84.6137 69.4432 84.9352 69.5724 85.2335 69.7614C85.5351 69.9503 85.782 70.2204 85.9743 70.5717C86.1665 70.9197 86.2626 71.3722 86.2626 71.929V77H84.8109V75.956H84.7513C84.6552 76.1482 84.511 76.3371 84.3187 76.5227C84.1265 76.7083 83.8796 76.8625 83.578 76.9851C83.2764 77.1077 82.9151 77.169 82.4942 77.169ZM82.8173 75.9759C83.2283 75.9759 83.5796 75.8946 83.8713 75.7322C84.1663 75.5698 84.39 75.3577 84.5425 75.0959C84.6982 74.8307 84.7761 74.5473 84.7761 74.2457V73.2614C84.7231 73.3144 84.6204 73.3641 84.4679 73.4105C84.3187 73.4536 84.1481 73.4917 83.9558 73.5249C83.7636 73.5547 83.5763 73.5829 83.394 73.6094C83.2117 73.6326 83.0593 73.6525 82.9366 73.669C82.6483 73.7055 82.3848 73.7668 82.1462 73.853C81.9108 73.9392 81.7219 74.0634 81.5794 74.2259C81.4402 74.3849 81.3706 74.5971 81.3706 74.8622C81.3706 75.2301 81.5065 75.5085 81.7783 75.6974C82.05 75.883 82.3964 75.9759 82.8173 75.9759ZM89.4491 72.4659V77H87.9626V69.3636H89.3894V70.6065H89.4839C89.6595 70.2022 89.9346 69.8774 90.3092 69.6321C90.687 69.3868 91.1626 69.2642 91.736 69.2642C92.2564 69.2642 92.7121 69.3736 93.1032 69.5923C93.4943 69.8078 93.7976 70.1293 94.013 70.5568C94.2284 70.9844 94.3361 71.513 94.3361 72.1428V77H92.8496V72.3217C92.8496 71.7682 92.7055 71.3357 92.4171 71.0241C92.1288 70.7093 91.7327 70.5518 91.2289 70.5518C90.8842 70.5518 90.5776 70.6264 90.3092 70.7756C90.044 70.9247 89.8335 71.1435 89.6778 71.4318C89.5253 71.7169 89.4491 72.0616 89.4491 72.4659ZM96.716 79.8636C96.4939 79.8636 96.2917 79.8454 96.1094 79.8089C95.9271 79.7758 95.7912 79.7393 95.7017 79.6996L96.0597 78.4815C96.3315 78.5545 96.5734 78.5859 96.7856 78.576C96.9977 78.5661 97.1849 78.4865 97.3473 78.3374C97.5131 78.1882 97.6589 77.9446 97.7848 77.6065L97.9688 77.0994L95.1748 69.3636H96.7657L98.6996 75.2898H98.7792L100.713 69.3636H102.309L99.162 78.0192C99.0161 78.4169 98.8305 78.7533 98.6052 79.0284C98.3798 79.3068 98.1113 79.5156 97.7998 79.6548C97.4882 79.794 97.1269 79.8636 96.716 79.8636ZM107.772 77V78.2628H101.304V77H107.772ZM108.957 77V69.3636H110.443V77H108.957ZM109.707 68.1854C109.449 68.1854 109.227 68.0992 109.041 67.9268C108.859 67.7512 108.768 67.5424 108.768 67.3004C108.768 67.0552 108.859 66.8464 109.041 66.674C109.227 66.4983 109.449 66.4105 109.707 66.4105C109.966 66.4105 110.186 66.4983 110.368 66.674C110.554 66.8464 110.647 67.0552 110.647 67.3004C110.647 67.5424 110.554 67.7512 110.368 67.9268C110.186 68.0992 109.966 68.1854 109.707 68.1854ZM115.022 77.1491C114.405 77.1491 113.855 76.9917 113.371 76.6768C112.89 76.3587 112.513 75.9062 112.237 75.3196C111.966 74.7296 111.83 74.022 111.83 73.1967C111.83 72.3714 111.967 71.6655 112.242 71.0788C112.521 70.4922 112.902 70.0431 113.386 69.7315C113.87 69.42 114.418 69.2642 115.031 69.2642C115.505 69.2642 115.887 69.3438 116.175 69.5028C116.467 69.6586 116.692 69.8409 116.851 70.0497C117.014 70.2585 117.139 70.4425 117.229 70.6016H117.318V66.8182H118.805V77H117.353V75.8118H117.229C117.139 75.9742 117.01 76.1598 116.841 76.3686C116.675 76.5774 116.447 76.7597 116.155 76.9155C115.863 77.0713 115.486 77.1491 115.022 77.1491ZM115.35 75.8814C115.777 75.8814 116.139 75.7687 116.433 75.5433C116.732 75.3146 116.957 74.9981 117.11 74.5938C117.265 74.1894 117.343 73.7187 117.343 73.1818C117.343 72.6515 117.267 72.1875 117.115 71.7898C116.962 71.392 116.738 71.0821 116.443 70.8601C116.148 70.638 115.784 70.527 115.35 70.527C114.902 70.527 114.529 70.643 114.231 70.875C113.933 71.107 113.707 71.4235 113.555 71.8246C113.406 72.2256 113.331 72.678 113.331 73.1818C113.331 73.6922 113.407 74.1513 113.56 74.5589C113.712 74.9666 113.938 75.2898 114.236 75.5284C114.538 75.7637 114.909 75.8814 115.35 75.8814Z" fill="#212121"/>
<path d="M47.8423 144.818V155H46.3011V146.359H46.2415L43.8054 147.95V146.479L46.3459 144.818H47.8423Z" fill="#212121"/>
<path d="M35.3118 122H33.343L36.9276 111.818H39.2045L42.794 122H40.8253L38.1058 113.906H38.0263L35.3118 122ZM35.3764 118.008H40.7457V119.489H35.3764V118.008ZM46.377 122.134C45.7771 122.134 45.2401 121.98 44.7662 121.672C44.2922 121.364 43.9177 120.916 43.6426 120.33C43.3675 119.743 43.2299 119.03 43.2299 118.192C43.2299 117.343 43.3691 116.627 43.6476 116.044C43.9293 115.457 44.3088 115.015 44.7861 114.717C45.2633 114.415 45.7953 114.264 46.3819 114.264C46.8294 114.264 47.1973 114.34 47.4856 114.493C47.774 114.642 48.0027 114.823 48.1717 115.035C48.3407 115.244 48.4717 115.441 48.5645 115.626H48.639V111.818H50.4437V122H48.6738V120.797H48.5645C48.4717 120.982 48.3374 121.18 48.1618 121.388C47.9861 121.594 47.7541 121.77 47.4657 121.915C47.1774 122.061 46.8145 122.134 46.377 122.134ZM46.8791 120.658C47.2602 120.658 47.5851 120.555 47.8535 120.349C48.122 120.141 48.3258 119.851 48.465 119.479C48.6042 119.108 48.6738 118.676 48.6738 118.182C48.6738 117.688 48.6042 117.259 48.465 116.894C48.3291 116.53 48.127 116.246 47.8585 116.044C47.5933 115.842 47.2669 115.741 46.8791 115.741C46.478 115.741 46.1433 115.845 45.8748 116.054C45.6064 116.263 45.4042 116.551 45.2683 116.919C45.1324 117.287 45.0645 117.708 45.0645 118.182C45.0645 118.659 45.1324 119.085 45.2683 119.46C45.4075 119.831 45.6113 120.124 45.8798 120.339C46.1516 120.552 46.4847 120.658 46.8791 120.658ZM52.0815 122V114.364H53.8017V115.661H53.8912C54.0503 115.224 54.3138 114.882 54.6817 114.637C55.0496 114.388 55.4887 114.264 55.9991 114.264C56.5162 114.264 56.952 114.39 57.3067 114.642C57.6646 114.891 57.9165 115.23 58.0623 115.661H58.1419C58.3109 115.237 58.596 114.899 58.997 114.647C59.4014 114.392 59.8803 114.264 60.4338 114.264C61.1364 114.264 61.7098 114.486 62.154 114.93C62.5981 115.375 62.8202 116.022 62.8202 116.874V122H61.0155V117.153C61.0155 116.679 60.8895 116.332 60.6376 116.114C60.3857 115.892 60.0775 115.781 59.7129 115.781C59.2787 115.781 58.939 115.916 58.6937 116.188C58.4518 116.457 58.3308 116.806 58.3308 117.237V122H56.5659V117.078C56.5659 116.684 56.4466 116.369 56.2079 116.134C55.9726 115.898 55.6644 115.781 55.2832 115.781C55.0247 115.781 54.7894 115.847 54.5773 115.979C54.3651 116.109 54.1961 116.293 54.0701 116.531C53.9442 116.767 53.8812 117.042 53.8812 117.357V122H52.0815ZM64.366 122V114.364H66.1657V122H64.366ZM65.2708 113.28C64.9858 113.28 64.7405 113.185 64.535 112.996C64.3295 112.804 64.2268 112.574 64.2268 112.305C64.2268 112.034 64.3295 111.803 64.535 111.614C64.7405 111.422 64.9858 111.326 65.2708 111.326C65.5591 111.326 65.8044 111.422 66.0066 111.614C66.2121 111.803 66.3148 112.034 66.3148 112.305C66.3148 112.574 66.2121 112.804 66.0066 112.996C65.8044 113.185 65.5591 113.28 65.2708 113.28ZM69.5361 117.526V122H67.7364V114.364H69.4565V115.661H69.546C69.7217 115.234 70.0017 114.894 70.3862 114.642C70.774 114.39 71.2529 114.264 71.823 114.264C72.35 114.264 72.809 114.377 73.2001 114.602C73.5945 114.828 73.8995 115.154 74.1149 115.582C74.3337 116.009 74.4414 116.528 74.4381 117.138V122H72.6383V117.416C72.6383 116.906 72.5058 116.506 72.2406 116.218C71.9788 115.93 71.6159 115.786 71.1518 115.786C70.837 115.786 70.5569 115.855 70.3116 115.994C70.0697 116.13 69.8791 116.327 69.7399 116.586C69.604 116.844 69.5361 117.158 69.5361 117.526ZM82.5112 122.149C81.7655 122.149 81.1192 121.985 80.5723 121.657C80.0254 121.329 79.6012 120.87 79.2996 120.28C79.0013 119.69 78.8521 119 78.8521 118.212C78.8521 117.423 79.0013 116.732 79.2996 116.138C79.6012 115.545 80.0254 115.085 80.5723 114.756C81.1192 114.428 81.7655 114.264 82.5112 114.264C83.257 114.264 83.9033 114.428 84.4501 114.756C84.997 115.085 85.4196 115.545 85.7179 116.138C86.0195 116.732 86.1703 117.423 86.1703 118.212C86.1703 119 86.0195 119.69 85.7179 120.28C85.4196 120.87 84.997 121.329 84.4501 121.657C83.9033 121.985 83.257 122.149 82.5112 122.149ZM82.5212 120.707C82.9255 120.707 83.2636 120.596 83.5354 120.374C83.8072 120.149 84.0093 119.847 84.1419 119.469C84.2778 119.092 84.3457 118.671 84.3457 118.207C84.3457 117.739 84.2778 117.317 84.1419 116.939C84.0093 116.558 83.8072 116.254 83.5354 116.029C83.2636 115.804 82.9255 115.691 82.5212 115.691C82.1069 115.691 81.7622 115.804 81.4871 116.029C81.2153 116.254 81.0115 116.558 80.8756 116.939C80.743 117.317 80.6767 117.739 80.6767 118.207C80.6767 118.671 80.743 119.092 80.8756 119.469C81.0115 119.847 81.2153 120.149 81.4871 120.374C81.7622 120.596 82.1069 120.707 82.5212 120.707ZM87.4178 122V114.364H89.1629V115.636H89.2424C89.3816 115.196 89.6203 114.856 89.9583 114.617C90.2997 114.375 90.6891 114.254 91.1266 114.254C91.2261 114.254 91.3371 114.259 91.4597 114.269C91.5857 114.276 91.6901 114.287 91.773 114.304V115.96C91.6967 115.933 91.5757 115.91 91.41 115.89C91.2476 115.867 91.0902 115.855 90.9377 115.855C90.6096 115.855 90.3146 115.926 90.0528 116.069C89.7943 116.208 89.5904 116.402 89.4413 116.651C89.2921 116.899 89.2176 117.186 89.2176 117.511V122H87.4178ZM95.6952 125.023C95.0489 125.023 94.4937 124.935 94.0297 124.759C93.5657 124.587 93.1928 124.355 92.9111 124.063C92.6294 123.772 92.4338 123.448 92.3245 123.094L93.9452 122.701C94.0181 122.85 94.1242 122.998 94.2634 123.143C94.4026 123.293 94.5898 123.415 94.8252 123.511C95.0638 123.611 95.3638 123.661 95.725 123.661C96.2354 123.661 96.658 123.536 96.9928 123.288C97.3275 123.042 97.4949 122.638 97.4949 122.075V120.628H97.4054C97.3126 120.813 97.1767 121.004 96.9977 121.2C96.8221 121.395 96.5884 121.559 96.2968 121.692C96.0084 121.824 95.6455 121.891 95.208 121.891C94.6213 121.891 94.0894 121.753 93.6121 121.478C93.1381 121.2 92.7603 120.785 92.4786 120.235C92.2002 119.682 92.061 118.989 92.061 118.157C92.061 117.318 92.2002 116.611 92.4786 116.034C92.7603 115.454 93.1398 115.015 93.6171 114.717C94.0943 114.415 94.6263 114.264 95.2129 114.264C95.6604 114.264 96.0283 114.34 96.3166 114.493C96.6083 114.642 96.8403 114.823 97.0127 115.035C97.185 115.244 97.3159 115.441 97.4054 115.626H97.5048V114.364H99.2797V122.124C99.2797 122.777 99.1239 123.317 98.8124 123.745C98.5008 124.173 98.0749 124.492 97.5347 124.705C96.9944 124.917 96.3813 125.023 95.6952 125.023ZM95.7101 120.479C96.0913 120.479 96.4161 120.386 96.6845 120.2C96.953 120.015 97.1568 119.748 97.296 119.4C97.4352 119.052 97.5048 118.634 97.5048 118.147C97.5048 117.666 97.4352 117.246 97.296 116.884C97.1602 116.523 96.958 116.243 96.6895 116.044C96.4244 115.842 96.0979 115.741 95.7101 115.741C95.3091 115.741 94.9743 115.845 94.7058 116.054C94.4374 116.263 94.2352 116.549 94.0993 116.914C93.9634 117.275 93.8955 117.686 93.8955 118.147C93.8955 118.614 93.9634 119.024 94.0993 119.375C94.2385 119.723 94.4423 119.995 94.7108 120.19C94.9826 120.383 95.3157 120.479 95.7101 120.479ZM103.042 122.154C102.558 122.154 102.122 122.068 101.734 121.896C101.35 121.72 101.045 121.461 100.819 121.12C100.597 120.779 100.486 120.358 100.486 119.857C100.486 119.426 100.566 119.07 100.725 118.788C100.884 118.507 101.101 118.281 101.376 118.112C101.651 117.943 101.961 117.816 102.306 117.729C102.654 117.64 103.013 117.575 103.385 117.536C103.832 117.489 104.195 117.448 104.473 117.411C104.752 117.371 104.954 117.312 105.08 117.232C105.209 117.149 105.274 117.022 105.274 116.849V116.82C105.274 116.445 105.163 116.155 104.941 115.95C104.719 115.744 104.399 115.641 103.981 115.641C103.54 115.641 103.191 115.737 102.932 115.93C102.677 116.122 102.505 116.349 102.415 116.611L100.735 116.372C100.867 115.908 101.086 115.52 101.391 115.209C101.696 114.894 102.069 114.659 102.51 114.503C102.95 114.344 103.438 114.264 103.971 114.264C104.339 114.264 104.705 114.307 105.07 114.393C105.435 114.48 105.768 114.622 106.069 114.821C106.371 115.017 106.613 115.283 106.795 115.621C106.981 115.96 107.074 116.382 107.074 116.889V122H105.343V120.951H105.284C105.174 121.163 105.02 121.362 104.821 121.548C104.626 121.73 104.379 121.877 104.081 121.99C103.786 122.099 103.439 122.154 103.042 122.154ZM103.509 120.832C103.87 120.832 104.183 120.76 104.449 120.618C104.714 120.472 104.918 120.28 105.06 120.041C105.206 119.803 105.279 119.542 105.279 119.261V118.361C105.222 118.407 105.126 118.45 104.99 118.49C104.858 118.53 104.709 118.565 104.543 118.594C104.377 118.624 104.213 118.651 104.051 118.674C103.888 118.697 103.748 118.717 103.628 118.734C103.36 118.77 103.12 118.83 102.907 118.913C102.695 118.996 102.528 119.112 102.405 119.261C102.283 119.406 102.221 119.595 102.221 119.827C102.221 120.159 102.342 120.409 102.584 120.578C102.826 120.747 103.134 120.832 103.509 120.832ZM110.403 117.526V122H108.603V114.364H110.323V115.661H110.413C110.589 115.234 110.869 114.894 111.253 114.642C111.641 114.39 112.12 114.264 112.69 114.264C113.217 114.264 113.676 114.377 114.067 114.602C114.461 114.828 114.766 115.154 114.982 115.582C115.201 116.009 115.308 116.528 115.305 117.138V122H113.505V117.416C113.505 116.906 113.373 116.506 113.107 116.218C112.846 115.93 112.483 115.786 112.019 115.786C111.704 115.786 111.424 115.855 111.179 115.994C110.937 116.13 110.746 116.327 110.607 116.586C110.471 116.844 110.403 117.158 110.403 117.526ZM116.854 122V114.364H118.654V122H116.854ZM117.759 113.28C117.474 113.28 117.229 113.185 117.024 112.996C116.818 112.804 116.715 112.574 116.715 112.305C116.715 112.034 116.818 111.803 117.024 111.614C117.229 111.422 117.474 111.326 117.759 111.326C118.048 111.326 118.293 111.422 118.495 111.614C118.701 111.803 118.803 112.034 118.803 112.305C118.803 112.574 118.701 112.804 118.495 112.996C118.293 113.185 118.048 113.28 117.759 113.28ZM120.125 122V120.857L124.063 115.92V115.855H120.255V114.364H126.265V115.592L122.517 120.444V120.509H126.395V122H120.125ZM130.004 122.154C129.52 122.154 129.084 122.068 128.696 121.896C128.312 121.72 128.007 121.461 127.781 121.12C127.559 120.779 127.448 120.358 127.448 119.857C127.448 119.426 127.528 119.07 127.687 118.788C127.846 118.507 128.063 118.281 128.338 118.112C128.613 117.943 128.923 117.816 129.268 117.729C129.616 117.64 129.975 117.575 130.347 117.536C130.794 117.489 131.157 117.448 131.435 117.411C131.714 117.371 131.916 117.312 132.042 117.232C132.171 117.149 132.236 117.022 132.236 116.849V116.82C132.236 116.445 132.125 116.155 131.903 115.95C131.681 115.744 131.361 115.641 130.943 115.641C130.502 115.641 130.153 115.737 129.894 115.93C129.639 116.122 129.467 116.349 129.377 116.611L127.697 116.372C127.829 115.908 128.048 115.52 128.353 115.209C128.658 114.894 129.031 114.659 129.472 114.503C129.912 114.344 130.4 114.264 130.933 114.264C131.301 114.264 131.667 114.307 132.032 114.393C132.397 114.48 132.73 114.622 133.031 114.821C133.333 115.017 133.575 115.283 133.757 115.621C133.943 115.96 134.036 116.382 134.036 116.889V122H132.305V120.951H132.246C132.136 121.163 131.982 121.362 131.783 121.548C131.588 121.73 131.341 121.877 131.043 121.99C130.748 122.099 130.401 122.154 130.004 122.154ZM130.471 120.832C130.832 120.832 131.145 120.76 131.411 120.618C131.676 120.472 131.88 120.28 132.022 120.041C132.168 119.803 132.241 119.542 132.241 119.261V118.361C132.185 118.407 132.088 118.45 131.953 118.49C131.82 118.53 131.671 118.565 131.505 118.594C131.339 118.624 131.175 118.651 131.013 118.674C130.85 118.697 130.71 118.717 130.59 118.734C130.322 118.77 130.082 118.83 129.869 118.913C129.657 118.996 129.49 119.112 129.367 119.261C129.245 119.406 129.183 119.595 129.183 119.827C129.183 120.159 129.304 120.409 129.546 120.578C129.788 120.747 130.096 120.832 130.471 120.832ZM139.378 114.364V115.756H134.989V114.364H139.378ZM136.072 112.534H137.872V119.703C137.872 119.945 137.909 120.131 137.981 120.26C138.058 120.386 138.157 120.472 138.28 120.518C138.402 120.565 138.538 120.588 138.687 120.588C138.8 120.588 138.903 120.58 138.996 120.563C139.092 120.547 139.165 120.532 139.214 120.518L139.518 121.925C139.422 121.959 139.284 121.995 139.105 122.035C138.929 122.075 138.714 122.098 138.459 122.104C138.008 122.118 137.602 122.05 137.241 121.901C136.879 121.748 136.593 121.513 136.381 121.195C136.172 120.876 136.069 120.479 136.072 120.001V112.534ZM140.604 122V114.364H142.403V122H140.604ZM141.508 113.28C141.223 113.28 140.978 113.185 140.773 112.996C140.567 112.804 140.464 112.574 140.464 112.305C140.464 112.034 140.567 111.803 140.773 111.614C140.978 111.422 141.223 111.326 141.508 111.326C141.797 111.326 142.042 111.422 142.244 111.614C142.45 111.803 142.552 112.034 142.552 112.305C142.552 112.574 142.45 112.804 142.244 112.996C142.042 113.185 141.797 113.28 141.508 113.28ZM147.305 122.149C146.559 122.149 145.913 121.985 145.366 121.657C144.819 121.329 144.395 120.87 144.093 120.28C143.795 119.69 143.646 119 143.646 118.212C143.646 117.423 143.795 116.732 144.093 116.138C144.395 115.545 144.819 115.085 145.366 114.756C145.913 114.428 146.559 114.264 147.305 114.264C148.051 114.264 148.697 114.428 149.244 114.756C149.791 115.085 150.213 115.545 150.512 116.138C150.813 116.732 150.964 117.423 150.964 118.212C150.964 119 150.813 119.69 150.512 120.28C150.213 120.87 149.791 121.329 149.244 121.657C148.697 121.985 148.051 122.149 147.305 122.149ZM147.315 120.707C147.719 120.707 148.057 120.596 148.329 120.374C148.601 120.149 148.803 119.847 148.936 119.469C149.072 119.092 149.139 118.671 149.139 118.207C149.139 117.739 149.072 117.317 148.936 116.939C148.803 116.558 148.601 116.254 148.329 116.029C148.057 115.804 147.719 115.691 147.315 115.691C146.901 115.691 146.556 115.804 146.281 116.029C146.009 116.254 145.805 116.558 145.669 116.939C145.537 117.317 145.47 117.739 145.47 118.207C145.47 118.671 145.537 119.092 145.669 119.469C145.805 119.847 146.009 120.149 146.281 120.374C146.556 120.596 146.901 120.707 147.315 120.707ZM154.011 117.526V122H152.212V114.364H153.932V115.661H154.021C154.197 115.234 154.477 114.894 154.861 114.642C155.249 114.39 155.728 114.264 156.298 114.264C156.825 114.264 157.284 114.377 157.675 114.602C158.07 114.828 158.375 115.154 158.59 115.582C158.809 116.009 158.917 116.528 158.913 117.138V122H157.114V117.416C157.114 116.906 156.981 116.506 156.716 116.218C156.454 115.93 156.091 115.786 155.627 115.786C155.312 115.786 155.032 115.855 154.787 115.994C154.545 116.13 154.354 116.327 154.215 116.586C154.079 116.844 154.011 117.158 154.011 117.526ZM165.579 111.818V122H163.735V111.818H165.579ZM170.747 122H167.297V111.818H170.817C171.828 111.818 172.696 112.022 173.422 112.43C174.151 112.834 174.711 113.416 175.102 114.175C175.493 114.934 175.689 115.842 175.689 116.899C175.689 117.96 175.492 118.871 175.097 119.634C174.706 120.396 174.141 120.981 173.402 121.388C172.666 121.796 171.781 122 170.747 122ZM169.141 120.404H170.658C171.367 120.404 171.959 120.275 172.432 120.016C172.906 119.754 173.263 119.365 173.501 118.848C173.74 118.328 173.859 117.678 173.859 116.899C173.859 116.12 173.74 115.474 173.501 114.96C173.263 114.443 172.91 114.057 172.442 113.802C171.978 113.543 171.402 113.414 170.712 113.414H169.141V120.404Z" fill="#212121"/>
<path d="M43.1023 37.9091C43.1023 39.0062 42.8968 39.9458 42.4858 40.728C42.0781 41.5069 41.5213 42.1035 40.8153 42.5178C40.1127 42.9321 39.3156 43.1392 38.424 43.1392C37.5324 43.1392 36.7337 42.9321 36.0277 42.5178C35.325 42.1001 34.7682 41.5019 34.3572 40.723C33.9496 39.9408 33.7457 39.0028 33.7457 37.9091C33.7457 36.812 33.9496 35.8741 34.3572 35.0952C34.7682 34.313 35.325 33.7147 36.0277 33.3004C36.7337 32.8861 37.5324 32.679 38.424 32.679C39.3156 32.679 40.1127 32.8861 40.8153 33.3004C41.5213 33.7147 42.0781 34.313 42.4858 35.0952C42.8968 35.8741 43.1023 36.812 43.1023 37.9091ZM41.2479 37.9091C41.2479 37.1368 41.1269 36.4856 40.8849 35.9553C40.6463 35.4216 40.3149 35.0189 39.8906 34.7472C39.4664 34.4721 38.9775 34.3345 38.424 34.3345C37.8705 34.3345 37.3816 34.4721 36.9574 34.7472C36.5331 35.0189 36.2 35.4216 35.9581 35.9553C35.7195 36.4856 35.6001 37.1368 35.6001 37.9091C35.6001 38.6813 35.7195 39.3343 35.9581 39.8679C36.2 40.3982 36.5331 40.8009 36.9574 41.076C37.3816 41.3478 37.8705 41.4837 38.424 41.4837C38.9775 41.4837 39.4664 41.3478 39.8906 41.076C40.3149 40.8009 40.6463 40.3982 40.8849 39.8679C41.1269 39.3343 41.2479 38.6813 41.2479 37.9091ZM44.4865 43V35.3636H46.2315V36.6364H46.3111C46.4503 36.1955 46.6889 35.8558 47.027 35.6172C47.3684 35.3752 47.7578 35.2543 48.1953 35.2543C48.2948 35.2543 48.4058 35.2592 48.5284 35.2692C48.6544 35.2758 48.7588 35.2874 48.8416 35.304V36.9595C48.7654 36.933 48.6444 36.9098 48.4787 36.8899C48.3163 36.8667 48.1589 36.8551 48.0064 36.8551C47.6783 36.8551 47.3833 36.9264 47.1215 37.0689C46.8629 37.2081 46.6591 37.402 46.51 37.6506C46.3608 37.8991 46.2862 38.1858 46.2862 38.5107V43H44.4865ZM52.7639 46.0227C52.1176 46.0227 51.5624 45.9349 51.0984 45.7592C50.6344 45.5869 50.2615 45.3549 49.9798 45.0632C49.698 44.7715 49.5025 44.4484 49.3931 44.0938L51.0139 43.701C51.0868 43.8501 51.1928 43.9976 51.332 44.1435C51.4712 44.2926 51.6585 44.4152 51.8938 44.5114C52.1325 44.6108 52.4324 44.6605 52.7937 44.6605C53.3041 44.6605 53.7267 44.5362 54.0614 44.2876C54.3962 44.0424 54.5636 43.638 54.5636 43.0746V41.6278H54.4741C54.3813 41.8134 54.2454 42.004 54.0664 42.1996C53.8908 42.3951 53.6571 42.5592 53.3654 42.6918C53.0771 42.8243 52.7141 42.8906 52.2766 42.8906C51.69 42.8906 51.158 42.7531 50.6808 42.478C50.2068 42.1996 49.829 41.7853 49.5472 41.2351C49.2688 40.6816 49.1296 39.9889 49.1296 39.157C49.1296 38.3184 49.2688 37.6108 49.5472 37.0341C49.829 36.4541 50.2085 36.0149 50.6857 35.7166C51.163 35.415 51.695 35.2642 52.2816 35.2642C52.7291 35.2642 53.097 35.3404 53.3853 35.4929C53.677 35.642 53.909 35.8227 54.0813 36.0348C54.2537 36.2436 54.3846 36.4408 54.4741 36.6264H54.5735V35.3636H56.3484V43.1243C56.3484 43.7772 56.1926 44.3175 55.8811 44.745C55.5695 45.1726 55.1436 45.4924 54.6034 45.7045C54.0631 45.9167 53.4499 46.0227 52.7639 46.0227ZM52.7788 41.4787C53.1599 41.4787 53.4847 41.3859 53.7532 41.2003C54.0217 41.0147 54.2255 40.7479 54.3647 40.3999C54.5039 40.0518 54.5735 39.6342 54.5735 39.147C54.5735 38.6664 54.5039 38.2455 54.3647 37.8842C54.2288 37.523 54.0266 37.2429 53.7582 37.044C53.493 36.8419 53.1666 36.7408 52.7788 36.7408C52.3777 36.7408 52.043 36.8452 51.7745 37.054C51.5061 37.2628 51.3039 37.5495 51.168 37.9141C51.0321 38.2753 50.9641 38.6863 50.9641 39.147C50.9641 39.6143 51.0321 40.0237 51.168 40.375C51.3072 40.723 51.511 40.9948 51.7795 41.1903C52.0513 41.3826 52.3844 41.4787 52.7788 41.4787ZM60.1103 43.1541C59.6264 43.1541 59.1905 43.0679 58.8028 42.8956C58.4183 42.7199 58.1134 42.4614 57.888 42.12C57.6659 41.7786 57.5549 41.3577 57.5549 40.8572C57.5549 40.4264 57.6344 40.0701 57.7935 39.7884C57.9526 39.5066 58.1697 39.2812 58.4448 39.1122C58.7199 38.9432 59.0298 38.8156 59.3745 38.7294C59.7225 38.6399 60.0821 38.5753 60.4533 38.5355C60.9008 38.4891 61.2637 38.4477 61.5421 38.4112C61.8205 38.3714 62.0227 38.3118 62.1486 38.2322C62.2779 38.1494 62.3425 38.0218 62.3425 37.8494V37.8196C62.3425 37.4451 62.2315 37.1551 62.0094 36.9496C61.7874 36.7441 61.4675 36.6413 61.0499 36.6413C60.6091 36.6413 60.2594 36.7375 60.0009 36.9297C59.7457 37.1219 59.5734 37.349 59.4839 37.6108L57.8035 37.3722C57.936 36.9081 58.1548 36.5204 58.4597 36.2088C58.7646 35.8939 59.1375 35.6586 59.5783 35.5028C60.0191 35.3438 60.5064 35.2642 61.04 35.2642C61.4079 35.2642 61.7741 35.3073 62.1387 35.3935C62.5033 35.4796 62.8364 35.6222 63.138 35.821C63.4396 36.0166 63.6815 36.2834 63.8638 36.6214C64.0494 36.9595 64.1422 37.3821 64.1422 37.8892V43H62.4121V41.951H62.3525C62.2431 42.1631 62.089 42.362 61.8901 42.5476C61.6946 42.7299 61.4476 42.8774 61.1493 42.9901C60.8544 43.0994 60.508 43.1541 60.1103 43.1541ZM60.5776 41.8317C60.9389 41.8317 61.2521 41.7604 61.5172 41.6179C61.7824 41.4721 61.9862 41.2798 62.1287 41.0412C62.2746 40.8026 62.3475 40.5424 62.3475 40.2607V39.3608C62.2912 39.4072 62.195 39.4503 62.0591 39.4901C61.9266 39.5298 61.7774 39.5646 61.6117 39.5945C61.446 39.6243 61.2819 39.6508 61.1195 39.674C60.9571 39.6972 60.8162 39.7171 60.6969 39.7337C60.4285 39.7701 60.1882 39.8298 59.9761 39.9126C59.7639 39.9955 59.5966 40.1115 59.4739 40.2607C59.3513 40.4065 59.29 40.5954 59.29 40.8274C59.29 41.1589 59.4109 41.4091 59.6529 41.5781C59.8948 41.7472 60.2031 41.8317 60.5776 41.8317ZM67.4716 38.5256V43H65.6719V35.3636H67.3921V36.6612H67.4816C67.6572 36.2337 67.9373 35.8939 68.3218 35.642C68.7095 35.3902 69.1885 35.2642 69.7586 35.2642C70.2855 35.2642 70.7446 35.3769 71.1357 35.6023C71.5301 35.8277 71.835 36.1541 72.0505 36.5817C72.2692 37.0092 72.3769 37.5279 72.3736 38.1378V43H70.5739V38.4162C70.5739 37.9058 70.4413 37.5064 70.1762 37.218C69.9143 36.9297 69.5514 36.7855 69.0874 36.7855C68.7725 36.7855 68.4925 36.8551 68.2472 36.9943C68.0052 37.1302 67.8147 37.3274 67.6755 37.5859C67.5396 37.8445 67.4716 38.1577 67.4716 38.5256ZM73.9232 43V35.3636H75.7229V43H73.9232ZM74.828 34.2798C74.5429 34.2798 74.2977 34.1854 74.0922 33.9964C73.8867 33.8042 73.7839 33.5739 73.7839 33.3054C73.7839 33.0336 73.8867 32.8033 74.0922 32.6143C74.2977 32.4221 74.5429 32.326 74.828 32.326C75.1163 32.326 75.3616 32.4221 75.5638 32.6143C75.7693 32.8033 75.872 33.0336 75.872 33.3054C75.872 33.5739 75.7693 33.8042 75.5638 33.9964C75.3616 34.1854 75.1163 34.2798 74.828 34.2798ZM77.1941 43V41.8565L81.1316 36.9197V36.8551H77.3234V35.3636H83.334V36.5916L79.5854 41.4439V41.5085H83.4633V43H77.1941ZM87.0723 43.1541C86.5884 43.1541 86.1526 43.0679 85.7648 42.8956C85.3803 42.7199 85.0754 42.4614 84.85 42.12C84.628 41.7786 84.5169 41.3577 84.5169 40.8572C84.5169 40.4264 84.5965 40.0701 84.7556 39.7884C84.9146 39.5066 85.1317 39.2812 85.4068 39.1122C85.6819 38.9432 85.9918 38.8156 86.3365 38.7294C86.6845 38.6399 87.0441 38.5753 87.4154 38.5355C87.8628 38.4891 88.2257 38.4477 88.5041 38.4112C88.7825 38.3714 88.9847 38.3118 89.1107 38.2322C89.2399 38.1494 89.3046 38.0218 89.3046 37.8494V37.8196C89.3046 37.4451 89.1935 37.1551 88.9715 36.9496C88.7494 36.7441 88.4296 36.6413 88.0119 36.6413C87.5711 36.6413 87.2215 36.7375 86.9629 36.9297C86.7077 37.1219 86.5354 37.349 86.4459 37.6108L84.7655 37.3722C84.8981 36.9081 85.1168 36.5204 85.4217 36.2088C85.7267 35.8939 86.0995 35.6586 86.5404 35.5028C86.9812 35.3438 87.4684 35.2642 88.002 35.2642C88.3699 35.2642 88.7361 35.3073 89.1007 35.3935C89.4653 35.4796 89.7984 35.6222 90.1 35.821C90.4016 36.0166 90.6436 36.2834 90.8259 36.6214C91.0115 36.9595 91.1043 37.3821 91.1043 37.8892V43H89.3742V41.951H89.3145C89.2051 42.1631 89.051 42.362 88.8521 42.5476C88.6566 42.7299 88.4097 42.8774 88.1114 42.9901C87.8164 43.0994 87.47 43.1541 87.0723 43.1541ZM87.5396 41.8317C87.9009 41.8317 88.2141 41.7604 88.4793 41.6179C88.7444 41.4721 88.9483 41.2798 89.0908 41.0412C89.2366 40.8026 89.3095 40.5424 89.3095 40.2607V39.3608C89.2532 39.4072 89.1571 39.4503 89.0212 39.4901C88.8886 39.5298 88.7395 39.5646 88.5737 39.5945C88.408 39.6243 88.244 39.6508 88.0815 39.674C87.9191 39.6972 87.7783 39.7171 87.659 39.7337C87.3905 39.7701 87.1502 39.8298 86.9381 39.9126C86.726 39.9955 86.5586 40.1115 86.436 40.2607C86.3133 40.4065 86.252 40.5954 86.252 40.8274C86.252 41.1589 86.373 41.4091 86.6149 41.5781C86.8569 41.7472 87.1651 41.8317 87.5396 41.8317ZM96.4471 35.3636V36.7557H92.0572V35.3636H96.4471ZM93.141 33.5341H94.9408V40.7031C94.9408 40.9451 94.9772 41.1307 95.0501 41.2599C95.1264 41.3859 95.2258 41.4721 95.3484 41.5185C95.4711 41.5649 95.6069 41.5881 95.7561 41.5881C95.8688 41.5881 95.9715 41.5798 96.0643 41.5632C96.1604 41.5466 96.2334 41.5317 96.2831 41.5185L96.5863 42.9254C96.4902 42.9586 96.3527 42.995 96.1737 43.0348C95.998 43.0746 95.7826 43.0978 95.5274 43.1044C95.0766 43.1177 94.6706 43.0497 94.3094 42.9006C93.9481 42.7481 93.6614 42.5128 93.4493 42.1946C93.2405 41.8764 93.1377 41.4787 93.141 41.0014V33.5341ZM97.6723 43V35.3636H99.472V43H97.6723ZM98.5771 34.2798C98.2921 34.2798 98.0468 34.1854 97.8413 33.9964C97.6358 33.8042 97.5331 33.5739 97.5331 33.3054C97.5331 33.0336 97.6358 32.8033 97.8413 32.6143C98.0468 32.4221 98.2921 32.326 98.5771 32.326C98.8655 32.326 99.1107 32.4221 99.3129 32.6143C99.5184 32.8033 99.6212 33.0336 99.6212 33.3054C99.6212 33.5739 99.5184 33.8042 99.3129 33.9964C99.1107 34.1854 98.8655 34.2798 98.5771 34.2798ZM104.374 43.1491C103.628 43.1491 102.982 42.9851 102.435 42.657C101.888 42.3288 101.464 41.8698 101.162 41.2798C100.864 40.6899 100.715 40.0005 100.715 39.2116C100.715 38.4228 100.864 37.7318 101.162 37.1385C101.464 36.5452 101.888 36.0845 102.435 35.7564C102.982 35.4283 103.628 35.2642 104.374 35.2642C105.119 35.2642 105.766 35.4283 106.313 35.7564C106.859 36.0845 107.282 36.5452 107.58 37.1385C107.882 37.7318 108.033 38.4228 108.033 39.2116C108.033 40.0005 107.882 40.6899 107.58 41.2798C107.282 41.8698 106.859 42.3288 106.313 42.657C105.766 42.9851 105.119 43.1491 104.374 43.1491ZM104.384 41.7074C104.788 41.7074 105.126 41.5964 105.398 41.3743C105.67 41.1489 105.872 40.8473 106.004 40.4695C106.14 40.0916 106.208 39.6707 106.208 39.2067C106.208 38.7393 106.14 38.3168 106.004 37.9389C105.872 37.5578 105.67 37.2545 105.398 37.0291C105.126 36.8037 104.788 36.6911 104.384 36.6911C103.969 36.6911 103.625 36.8037 103.349 37.0291C103.078 37.2545 102.874 37.5578 102.738 37.9389C102.605 38.3168 102.539 38.7393 102.539 39.2067C102.539 39.6707 102.605 40.0916 102.738 40.4695C102.874 40.8473 103.078 41.1489 103.349 41.3743C103.625 41.5964 103.969 41.7074 104.384 41.7074ZM111.08 38.5256V43H109.28V35.3636H111V36.6612H111.09C111.266 36.2337 111.546 35.8939 111.93 35.642C112.318 35.3902 112.797 35.2642 113.367 35.2642C113.894 35.2642 114.353 35.3769 114.744 35.6023C115.138 35.8277 115.443 36.1541 115.659 36.5817C115.878 37.0092 115.985 37.5279 115.982 38.1378V43H114.182V38.4162C114.182 37.9058 114.05 37.5064 113.785 37.218C113.523 36.9297 113.16 36.7855 112.696 36.7855C112.381 36.7855 112.101 36.8551 111.856 36.9943C111.614 37.1302 111.423 37.3274 111.284 37.5859C111.148 37.8445 111.08 38.1577 111.08 38.5256ZM122.648 32.8182V43H120.804V32.8182H122.648ZM127.816 43H124.366V32.8182H127.885C128.896 32.8182 129.765 33.022 130.491 33.4297C131.22 33.834 131.78 34.4157 132.171 35.1747C132.562 35.9337 132.758 36.8419 132.758 37.8991C132.758 38.9598 132.56 39.8712 132.166 40.6335C131.775 41.3958 131.21 41.9808 130.471 42.3885C129.735 42.7962 128.85 43 127.816 43ZM126.21 41.4041H127.726C128.436 41.4041 129.027 41.2749 129.501 41.0163C129.975 40.7545 130.331 40.3651 130.57 39.848C130.809 39.3277 130.928 38.678 130.928 37.8991C130.928 37.1203 130.809 36.474 130.57 35.9602C130.331 35.4432 129.978 35.0571 129.511 34.8018C129.047 34.5433 128.47 34.4141 127.781 34.4141H126.21V41.4041ZM141.211 35.3636V36.7557H136.697V35.3636H141.211ZM137.825 43V34.6428C137.825 34.129 137.931 33.7015 138.144 33.3601C138.359 33.0187 138.647 32.7635 139.009 32.5945C139.37 32.4254 139.771 32.3409 140.212 32.3409C140.523 32.3409 140.8 32.3658 141.042 32.4155C141.284 32.4652 141.463 32.5099 141.579 32.5497L141.221 33.9418C141.145 33.9186 141.049 33.8954 140.933 33.8722C140.817 33.8456 140.687 33.8324 140.545 33.8324C140.21 33.8324 139.973 33.9136 139.834 34.076C139.698 34.2351 139.63 34.4638 139.63 34.7621V43H137.825ZM142.34 43V35.3636H144.14V43H142.34ZM143.245 34.2798C142.96 34.2798 142.715 34.1854 142.51 33.9964C142.304 33.8042 142.201 33.5739 142.201 33.3054C142.201 33.0336 142.304 32.8033 142.51 32.6143C142.715 32.4221 142.96 32.326 143.245 32.326C143.534 32.326 143.779 32.4221 143.981 32.6143C144.187 32.8033 144.289 33.0336 144.289 33.3054C144.289 33.5739 144.187 33.8042 143.981 33.9964C143.779 34.1854 143.534 34.2798 143.245 34.2798ZM149.092 43.1491C148.326 43.1491 147.665 42.9901 147.108 42.6719C146.554 42.3504 146.129 41.8963 145.83 41.3097C145.532 40.7197 145.383 40.0253 145.383 39.2266C145.383 38.4411 145.532 37.7517 145.83 37.1584C146.132 36.5618 146.553 36.0978 147.093 35.7663C147.633 35.4316 148.268 35.2642 148.997 35.2642C149.468 35.2642 149.912 35.3404 150.329 35.4929C150.75 35.642 151.122 35.8741 151.443 36.1889C151.768 36.5038 152.023 36.9048 152.209 37.392C152.394 37.8759 152.487 38.4527 152.487 39.1222V39.674H146.228V38.4609H150.762C150.759 38.1162 150.684 37.8097 150.538 37.5412C150.392 37.2694 150.189 37.0556 149.927 36.8999C149.668 36.7441 149.367 36.6662 149.022 36.6662C148.654 36.6662 148.331 36.7557 148.053 36.9347C147.774 37.1103 147.557 37.3423 147.401 37.6307C147.249 37.9157 147.171 38.2289 147.168 38.5703V39.6293C147.168 40.0734 147.249 40.4545 147.411 40.7727C147.574 41.0876 147.801 41.3295 148.092 41.4986C148.384 41.6643 148.725 41.7472 149.116 41.7472C149.378 41.7472 149.615 41.7107 149.827 41.6378C150.039 41.5616 150.223 41.4505 150.379 41.3047C150.535 41.1589 150.653 40.9782 150.732 40.7628L152.413 40.9517C152.307 41.3958 152.104 41.7836 151.806 42.1151C151.511 42.4432 151.133 42.6984 150.673 42.8807C150.212 43.0597 149.685 43.1491 149.092 43.1491ZM155.529 32.8182V43H153.73V32.8182H155.529ZM159.934 43.1342C159.334 43.1342 158.797 42.9801 158.323 42.6719C157.849 42.3636 157.475 41.9162 157.2 41.3295C156.924 40.7429 156.787 40.0303 156.787 39.1918C156.787 38.3433 156.926 37.6274 157.205 37.044C157.486 36.4574 157.866 36.0149 158.343 35.7166C158.82 35.415 159.352 35.2642 159.939 35.2642C160.386 35.2642 160.754 35.3404 161.043 35.4929C161.331 35.642 161.56 35.8227 161.729 36.0348C161.898 36.2436 162.029 36.4408 162.121 36.6264H162.196V32.8182H164.001V43H162.231V41.7969H162.121C162.029 41.9825 161.894 42.1797 161.719 42.3885C161.543 42.594 161.311 42.7696 161.023 42.9155C160.734 43.0613 160.371 43.1342 159.934 43.1342ZM160.436 41.6577C160.817 41.6577 161.142 41.5549 161.41 41.3494C161.679 41.1406 161.883 40.8506 162.022 40.4794C162.161 40.1082 162.231 39.6757 162.231 39.1818C162.231 38.688 162.161 38.2588 162.022 37.8942C161.886 37.5296 161.684 37.2462 161.415 37.044C161.15 36.8419 160.824 36.7408 160.436 36.7408C160.035 36.7408 159.7 36.8452 159.432 37.054C159.163 37.2628 158.961 37.5511 158.825 37.919C158.689 38.2869 158.621 38.7079 158.621 39.1818C158.621 39.6591 158.689 40.085 158.825 40.4595C158.964 40.8307 159.168 41.1241 159.437 41.3395C159.709 41.5516 160.042 41.6577 160.436 41.6577ZM170.631 38.5256V43H168.831V35.3636H170.551V36.6612H170.641C170.816 36.2337 171.097 35.8939 171.481 35.642C171.869 35.3902 172.348 35.2642 172.918 35.2642C173.445 35.2642 173.904 35.3769 174.295 35.6023C174.689 35.8277 174.994 36.1541 175.21 36.5817C175.428 37.0092 175.536 37.5279 175.533 38.1378V43H173.733V38.4162C173.733 37.9058 173.601 37.5064 173.335 37.218C173.074 36.9297 172.711 36.7855 172.247 36.7855C171.932 36.7855 171.652 36.8551 171.406 36.9943C171.164 37.1302 170.974 37.3274 170.835 37.5859C170.699 37.8445 170.631 38.1577 170.631 38.5256ZM179.28 43.1541C178.796 43.1541 178.36 43.0679 177.972 42.8956C177.588 42.7199 177.283 42.4614 177.058 42.12C176.835 41.7786 176.724 41.3577 176.724 40.8572C176.724 40.4264 176.804 40.0701 176.963 39.7884C177.122 39.5066 177.339 39.2812 177.614 39.1122C177.889 38.9432 178.199 38.8156 178.544 38.7294C178.892 38.6399 179.252 38.5753 179.623 38.5355C180.07 38.4891 180.433 38.4477 180.712 38.4112C180.99 38.3714 181.192 38.3118 181.318 38.2322C181.447 38.1494 181.512 38.0218 181.512 37.8494V37.8196C181.512 37.4451 181.401 37.1551 181.179 36.9496C180.957 36.7441 180.637 36.6413 180.219 36.6413C179.779 36.6413 179.429 36.7375 179.17 36.9297C178.915 37.1219 178.743 37.349 178.653 37.6108L176.973 37.3722C177.106 36.9081 177.324 36.5204 177.629 36.2088C177.934 35.8939 178.307 35.6586 178.748 35.5028C179.189 35.3438 179.676 35.2642 180.21 35.2642C180.577 35.2642 180.944 35.3073 181.308 35.3935C181.673 35.4796 182.006 35.6222 182.308 35.821C182.609 36.0166 182.851 36.2834 183.033 36.6214C183.219 36.9595 183.312 37.3821 183.312 37.8892V43H181.582V41.951H181.522C181.413 42.1631 181.259 42.362 181.06 42.5476C180.864 42.7299 180.617 42.8774 180.319 42.9901C180.024 43.0994 179.678 43.1541 179.28 43.1541ZM179.747 41.8317C180.108 41.8317 180.422 41.7604 180.687 41.6179C180.952 41.4721 181.156 41.2798 181.298 41.0412C181.444 40.8026 181.517 40.5424 181.517 40.2607V39.3608C181.461 39.4072 181.365 39.4503 181.229 39.4901C181.096 39.5298 180.947 39.5646 180.781 39.5945C180.616 39.6243 180.451 39.6508 180.289 39.674C180.127 39.6972 179.986 39.7171 179.866 39.7337C179.598 39.7701 179.358 39.8298 179.146 39.9126C178.933 39.9955 178.766 40.1115 178.643 40.2607C178.521 40.4065 178.46 40.5954 178.46 40.8274C178.46 41.1589 178.58 41.4091 178.822 41.5781C179.064 41.7472 179.373 41.8317 179.747 41.8317ZM184.841 43V35.3636H186.562V36.6612H186.651C186.81 36.2237 187.074 35.8823 187.442 35.6371C187.809 35.3885 188.249 35.2642 188.759 35.2642C189.276 35.2642 189.712 35.3902 190.067 35.642C190.425 35.8906 190.676 36.2304 190.822 36.6612H190.902C191.071 36.237 191.356 35.8989 191.757 35.647C192.161 35.3918 192.64 35.2642 193.194 35.2642C193.896 35.2642 194.47 35.4863 194.914 35.9304C195.358 36.3745 195.58 37.0225 195.58 37.8743V43H193.775V38.1527C193.775 37.6787 193.649 37.3324 193.398 37.1136C193.146 36.8916 192.837 36.7805 192.473 36.7805C192.039 36.7805 191.699 36.9164 191.454 37.1882C191.212 37.4567 191.091 37.8063 191.091 38.2372V43H189.326V38.0781C189.326 37.6837 189.206 37.3688 188.968 37.1335C188.733 36.8982 188.424 36.7805 188.043 36.7805C187.785 36.7805 187.549 36.8468 187.337 36.9794C187.125 37.1087 186.956 37.2926 186.83 37.5312C186.704 37.7666 186.641 38.0417 186.641 38.3565V43H184.841ZM200.507 43.1491C199.741 43.1491 199.08 42.9901 198.523 42.6719C197.969 42.3504 197.544 41.8963 197.245 41.3097C196.947 40.7197 196.798 40.0253 196.798 39.2266C196.798 38.4411 196.947 37.7517 197.245 37.1584C197.547 36.5618 197.968 36.0978 198.508 35.7663C199.048 35.4316 199.683 35.2642 200.412 35.2642C200.883 35.2642 201.327 35.3404 201.744 35.4929C202.165 35.642 202.537 35.8741 202.858 36.1889C203.183 36.5038 203.438 36.9048 203.624 37.392C203.809 37.8759 203.902 38.4527 203.902 39.1222V39.674H197.643V38.4609H202.177C202.174 38.1162 202.099 37.8097 201.953 37.5412C201.807 37.2694 201.604 37.0556 201.342 36.8999C201.083 36.7441 200.782 36.6662 200.437 36.6662C200.069 36.6662 199.746 36.7557 199.468 36.9347C199.189 37.1103 198.972 37.3423 198.816 37.6307C198.664 37.9157 198.586 38.2289 198.583 38.5703V39.6293C198.583 40.0734 198.664 40.4545 198.826 40.7727C198.989 41.0876 199.216 41.3295 199.507 41.4986C199.799 41.6643 200.14 41.7472 200.531 41.7472C200.793 41.7472 201.03 41.7107 201.242 41.6378C201.454 41.5616 201.638 41.4505 201.794 41.3047C201.95 41.1589 202.068 40.9782 202.147 40.7628L203.828 40.9517C203.722 41.3958 203.519 41.7836 203.221 42.1151C202.926 42.4432 202.548 42.6984 202.088 42.8807C201.627 43.0597 201.1 43.1491 200.507 43.1491Z" fill="#212121"/>
</svg>
