<svg width="370" height="198" viewBox="0 0 370 198" fill="none" xmlns="http://www.w3.org/2000/svg">
<rect width="370" height="198" fill="white"/>
<rect x="33.5" y="55.5" width="302" height="34" rx="5.5" fill="white" stroke="#E7E7E7"/>
<rect x="33.5" y="133.5" width="302" height="34" rx="5.5" fill="white" stroke="#E7E7E7"/>
<path d="M43.9993 79.8636V69.3636H45.451V70.6016H45.5753C45.6615 70.4425 45.7857 70.2585 45.9482 70.0497C46.1106 69.8409 46.3359 69.6586 46.6243 69.5028C46.9126 69.3438 47.2938 69.2642 47.7678 69.2642C48.3842 69.2642 48.9344 69.42 49.4183 69.7315C49.9022 70.0431 50.2817 70.4922 50.5568 71.0788C50.8352 71.6655 50.9744 72.3714 50.9744 73.1967C50.9744 74.022 50.8369 74.7296 50.5618 75.3196C50.2867 75.9062 49.9089 76.3587 49.4283 76.6768C48.9477 76.9917 48.3991 77.1491 47.7827 77.1491C47.3187 77.1491 46.9392 77.0713 46.6442 76.9155C46.3525 76.7597 46.1238 76.5774 45.9581 76.3686C45.7924 76.1598 45.6648 75.9742 45.5753 75.8118H45.4858V79.8636H43.9993ZM45.456 73.1818C45.456 73.7187 45.5339 74.1894 45.6896 74.5938C45.8454 74.9981 46.0708 75.3146 46.3658 75.5433C46.6607 75.7687 47.022 75.8814 47.4496 75.8814C47.8937 75.8814 48.2649 75.7637 48.5632 75.5284C48.8615 75.2898 49.0869 74.9666 49.2393 74.5589C49.3951 74.1513 49.473 73.6922 49.473 73.1818C49.473 72.678 49.3968 72.2256 49.2443 71.8246C49.0952 71.4235 48.8698 71.107 48.5682 70.875C48.2699 70.643 47.897 70.527 47.4496 70.527C47.0187 70.527 46.6541 70.638 46.3558 70.8601C46.0608 71.0821 45.8371 71.392 45.6847 71.7898C45.5322 72.1875 45.456 72.6515 45.456 73.1818ZM54.5822 77.169C54.0983 77.169 53.6608 77.0795 53.2697 76.9006C52.8786 76.7183 52.5687 76.4548 52.34 76.1101C52.1146 75.7654 52.002 75.3428 52.002 74.8423C52.002 74.4115 52.0848 74.0568 52.2505 73.7784C52.4163 73.5 52.64 73.2796 52.9217 73.1172C53.2034 72.9548 53.5183 72.8321 53.8663 72.7493C54.2143 72.6664 54.569 72.6035 54.9302 72.5604C55.3876 72.5073 55.7588 72.4643 56.0439 72.4311C56.3289 72.3946 56.5361 72.3366 56.6653 72.2571C56.7946 72.1776 56.8592 72.0483 56.8592 71.8693V71.8345C56.8592 71.4003 56.7366 71.0639 56.4913 70.8253C56.2494 70.5866 55.8881 70.4673 55.4075 70.4673C54.907 70.4673 54.5126 70.5784 54.2243 70.8004C53.9392 71.0192 53.742 71.2628 53.6326 71.5312L52.2356 71.2131C52.4013 70.7491 52.6433 70.3745 52.9615 70.0895C53.283 69.8011 53.6525 69.5923 54.0701 69.4631C54.4878 69.3305 54.9269 69.2642 55.3876 69.2642C55.6925 69.2642 56.0157 69.3007 56.3571 69.3736C56.7018 69.4432 57.0233 69.5724 57.3216 69.7614C57.6232 69.9503 57.8701 70.2204 58.0623 70.5717C58.2546 70.9197 58.3507 71.3722 58.3507 71.929V77H56.899V75.956H56.8393C56.7432 76.1482 56.599 76.3371 56.4068 76.5227C56.2146 76.7083 55.9676 76.8625 55.666 76.9851C55.3644 77.1077 55.0031 77.169 54.5822 77.169ZM54.9054 75.9759C55.3164 75.9759 55.6677 75.8946 55.9593 75.7322C56.2543 75.5698 56.478 75.3577 56.6305 75.0959C56.7863 74.8307 56.8642 74.5473 56.8642 74.2457V73.2614C56.8111 73.3144 56.7084 73.3641 56.5559 73.4105C56.4068 73.4536 56.2361 73.4917 56.0439 73.5249C55.8516 73.5547 55.6644 73.5829 55.4821 73.6094C55.2998 73.6326 55.1473 73.6525 55.0247 73.669C54.7363 73.7055 54.4728 73.7668 54.2342 73.853C53.9989 73.9392 53.81 74.0634 53.6674 74.2259C53.5282 74.3849 53.4586 74.5971 53.4586 74.8622C53.4586 75.2301 53.5945 75.5085 53.8663 75.6974C54.1381 75.883 54.4844 75.9759 54.9054 75.9759ZM60.7168 79.8636C60.4947 79.8636 60.2926 79.8454 60.1103 79.8089C59.928 79.7758 59.7921 79.7393 59.7026 79.6996L60.0606 78.4815C60.3323 78.5545 60.5743 78.5859 60.7864 78.576C60.9985 78.5661 61.1858 78.4865 61.3482 78.3374C61.5139 78.1882 61.6598 77.9446 61.7857 77.6065L61.9697 77.0994L59.1756 69.3636H60.7665L62.7005 75.2898H62.78L64.714 69.3636H66.3099L63.1628 78.0192C63.017 78.4169 62.8314 78.7533 62.606 79.0284C62.3806 79.3068 62.1122 79.5156 61.8006 79.6548C61.4891 79.794 61.1278 79.8636 60.7168 79.8636ZM67.4269 77V69.3636H68.8537V70.6065H68.9482C69.1073 70.1856 69.3674 69.8575 69.7287 69.6222C70.09 69.3835 70.5225 69.2642 71.0263 69.2642C71.5367 69.2642 71.9643 69.3835 72.309 69.6222C72.657 69.8608 72.9138 70.1889 73.0796 70.6065H73.1591C73.3414 70.1989 73.6314 69.8741 74.0291 69.6321C74.4269 69.3868 74.9008 69.2642 75.451 69.2642C76.1437 69.2642 76.7088 69.4813 77.1463 69.9155C77.5871 70.3497 77.8075 71.0043 77.8075 71.8793V77H76.321V72.0185C76.321 71.5014 76.1802 71.1269 75.8985 70.8949C75.6167 70.6629 75.2803 70.5469 74.8892 70.5469C74.4053 70.5469 74.0291 70.696 73.7607 70.9943C73.4922 71.2893 73.358 71.6688 73.358 72.1328V77H71.8764V71.924C71.8764 71.5097 71.7472 71.1766 71.4887 70.9247C71.2301 70.6728 70.8937 70.5469 70.4794 70.5469C70.1977 70.5469 69.9375 70.6214 69.6989 70.7706C69.4636 70.9164 69.273 71.1203 69.1272 71.3821C68.9846 71.6439 68.9134 71.9472 68.9134 72.2919V77H67.4269ZM82.8111 77.1541C82.0587 77.1541 81.4108 76.9934 80.8672 76.6719C80.327 76.3471 79.9094 75.8913 79.6144 75.3047C79.3227 74.7147 79.1769 74.0237 79.1769 73.2315C79.1769 72.4493 79.3227 71.7599 79.6144 71.1634C79.9094 70.5668 80.3203 70.1011 80.8473 69.7663C81.3776 69.4316 81.9974 69.2642 82.7067 69.2642C83.1376 69.2642 83.5552 69.3355 83.9595 69.478C84.3639 69.6205 84.7268 69.8442 85.0483 70.1491C85.3698 70.4541 85.6234 70.8501 85.809 71.3374C85.9946 71.8213 86.0874 72.4096 86.0874 73.1023V73.6293H80.0171V72.5156H84.6307C84.6307 72.1245 84.5512 71.7782 84.3921 71.4766C84.233 71.1716 84.0093 70.9313 83.7209 70.7557C83.4359 70.58 83.1011 70.4922 82.7166 70.4922C82.299 70.4922 81.9345 70.5949 81.6229 70.8004C81.3147 71.0026 81.076 71.2678 80.907 71.5959C80.7413 71.9207 80.6584 72.2737 80.6584 72.6548V73.5249C80.6584 74.0353 80.7479 74.4695 80.9269 74.8274C81.1092 75.1854 81.3627 75.4588 81.6875 75.6477C82.0123 75.8333 82.3918 75.9261 82.826 75.9261C83.1077 75.9261 83.3646 75.8864 83.5966 75.8068C83.8286 75.724 84.0291 75.6013 84.1982 75.4389C84.3672 75.2765 84.4965 75.076 84.586 74.8374L85.9929 75.0909C85.8802 75.5052 85.6781 75.8681 85.3864 76.1797C85.098 76.4879 84.7351 76.7282 84.2976 76.9006C83.8634 77.0696 83.3679 77.1541 82.8111 77.1541ZM88.9432 72.4659V77H87.4567V69.3636H88.8836V70.6065H88.978C89.1537 70.2022 89.4288 69.8774 89.8033 69.6321C90.1811 69.3868 90.6568 69.2642 91.2301 69.2642C91.7505 69.2642 92.2062 69.3736 92.5973 69.5923C92.9884 69.8078 93.2917 70.1293 93.5071 70.5568C93.7226 70.9844 93.8303 71.513 93.8303 72.1428V77H92.3438V72.3217C92.3438 71.7682 92.1996 71.3357 91.9113 71.0241C91.6229 70.7093 91.2268 70.5518 90.723 70.5518C90.3783 70.5518 90.0718 70.6264 89.8033 70.7756C89.5381 70.9247 89.3277 71.1435 89.1719 71.4318C89.0194 71.7169 88.9432 72.0616 88.9432 72.4659ZM99.1085 69.3636V70.5568H94.9374V69.3636H99.1085ZM96.056 67.5341H97.5425V74.7578C97.5425 75.0462 97.5856 75.2633 97.6717 75.4091C97.7579 75.5516 97.8689 75.6494 98.0048 75.7024C98.144 75.7521 98.2948 75.777 98.4573 75.777C98.5766 75.777 98.681 75.7687 98.7705 75.7521C98.8599 75.7356 98.9296 75.7223 98.9793 75.7124L99.2477 76.9403C99.1616 76.9735 99.0389 77.0066 98.8798 77.0398C98.7207 77.0762 98.5219 77.0961 98.2832 77.0994C97.8921 77.1061 97.5276 77.0365 97.1895 76.8906C96.8514 76.7448 96.578 76.5194 96.3692 76.2145C96.1604 75.9096 96.056 75.5268 96.056 75.0661V67.5341ZM106.072 71.228L104.725 71.4666C104.668 71.2943 104.579 71.1302 104.456 70.9744C104.337 70.8187 104.175 70.6911 103.969 70.5916C103.764 70.4922 103.507 70.4425 103.199 70.4425C102.778 70.4425 102.426 70.5369 102.145 70.7259C101.863 70.9115 101.722 71.1518 101.722 71.4467C101.722 71.7019 101.816 71.9074 102.005 72.0632C102.194 72.219 102.499 72.3466 102.92 72.446L104.133 72.7244C104.836 72.8868 105.36 73.1371 105.704 73.4751C106.049 73.8132 106.221 74.2524 106.221 74.7926C106.221 75.25 106.089 75.6577 105.824 76.0156C105.562 76.3703 105.195 76.6487 104.725 76.8509C104.258 77.053 103.716 77.1541 103.099 77.1541C102.244 77.1541 101.546 76.9718 101.006 76.6072C100.466 76.2393 100.134 75.7173 100.012 75.0412L101.449 74.8224C101.538 75.197 101.722 75.4804 102 75.6726C102.279 75.8615 102.642 75.956 103.089 75.956C103.576 75.956 103.966 75.8549 104.258 75.6527C104.549 75.4472 104.695 75.197 104.695 74.902C104.695 74.6634 104.606 74.4628 104.427 74.3004C104.251 74.138 103.981 74.0154 103.616 73.9325L102.324 73.6491C101.611 73.4867 101.084 73.2282 100.743 72.8736C100.405 72.5189 100.235 72.0698 100.235 71.5263C100.235 71.0755 100.361 70.6811 100.613 70.343C100.865 70.005 101.213 69.7415 101.657 69.5526C102.101 69.3603 102.61 69.2642 103.184 69.2642C104.009 69.2642 104.659 69.4432 105.133 69.8011C105.606 70.1558 105.92 70.6314 106.072 71.228Z" fill="#212121"/>
<path d="M49.7216 149.228L48.3743 149.467C48.3179 149.294 48.2285 149.13 48.1058 148.974C47.9865 148.819 47.8241 148.691 47.6186 148.592C47.4131 148.492 47.1563 148.442 46.848 148.442C46.4271 148.442 46.0758 148.537 45.794 148.726C45.5123 148.911 45.3714 149.152 45.3714 149.447C45.3714 149.702 45.4659 149.907 45.6548 150.063C45.8438 150.219 46.1487 150.347 46.5696 150.446L47.7827 150.724C48.4853 150.887 49.009 151.137 49.3537 151.475C49.6984 151.813 49.8707 152.252 49.8707 152.793C49.8707 153.25 49.7382 153.658 49.473 154.016C49.2112 154.37 48.8449 154.649 48.3743 154.851C47.907 155.053 47.3651 155.154 46.7486 155.154C45.8935 155.154 45.1958 154.972 44.6555 154.607C44.1153 154.239 43.7839 153.717 43.6612 153.041L45.098 152.822C45.1875 153.197 45.3714 153.48 45.6499 153.673C45.9283 153.862 46.2912 153.956 46.7386 153.956C47.2259 153.956 47.6153 153.855 47.907 153.653C48.1986 153.447 48.3445 153.197 48.3445 152.902C48.3445 152.663 48.255 152.463 48.076 152.3C47.9003 152.138 47.6302 152.015 47.2656 151.933L45.973 151.649C45.2604 151.487 44.7334 151.228 44.392 150.874C44.054 150.519 43.8849 150.07 43.8849 149.526C43.8849 149.076 44.0109 148.681 44.2628 148.343C44.5147 148.005 44.8627 147.741 45.3068 147.553C45.7509 147.36 46.2597 147.264 46.8331 147.264C47.6584 147.264 48.308 147.443 48.782 147.801C49.2559 148.156 49.5691 148.631 49.7216 149.228ZM54.5163 155.154C53.764 155.154 53.116 154.993 52.5725 154.672C52.0322 154.347 51.6146 153.891 51.3196 153.305C51.0279 152.715 50.8821 152.024 50.8821 151.232C50.8821 150.449 51.0279 149.76 51.3196 149.163C51.6146 148.567 52.0256 148.101 52.5526 147.766C53.0829 147.432 53.7027 147.264 54.4119 147.264C54.8428 147.264 55.2604 147.335 55.6648 147.478C56.0691 147.621 56.4321 147.844 56.7536 148.149C57.0751 148.454 57.3286 148.85 57.5142 149.337C57.6998 149.821 57.7926 150.41 57.7926 151.102V151.629H51.7223V150.516H56.3359C56.3359 150.125 56.2564 149.778 56.0973 149.477C55.9382 149.172 55.7145 148.931 55.4261 148.756C55.1411 148.58 54.8064 148.492 54.4219 148.492C54.0043 148.492 53.6397 148.595 53.3281 148.8C53.0199 149.003 52.7813 149.268 52.6122 149.596C52.4465 149.921 52.3636 150.274 52.3636 150.655V151.525C52.3636 152.035 52.4531 152.469 52.6321 152.827C52.8144 153.185 53.068 153.459 53.3928 153.648C53.7176 153.833 54.0971 153.926 54.5313 153.926C54.813 153.926 55.0698 153.886 55.3019 153.807C55.5339 153.724 55.7344 153.601 55.9034 153.439C56.0725 153.277 56.2017 153.076 56.2912 152.837L57.6982 153.091C57.5855 153.505 57.3833 153.868 57.0916 154.18C56.8033 154.488 56.4403 154.728 56.0028 154.901C55.5687 155.07 55.0732 155.154 54.5163 155.154ZM60.6485 144.818V155H59.1619V144.818H60.6485ZM65.6595 155.154C64.9071 155.154 64.2591 154.993 63.7156 154.672C63.1753 154.347 62.7577 153.891 62.4627 153.305C62.1711 152.715 62.0252 152.024 62.0252 151.232C62.0252 150.449 62.1711 149.76 62.4627 149.163C62.7577 148.567 63.1687 148.101 63.6957 147.766C64.226 147.432 64.8458 147.264 65.5551 147.264C65.9859 147.264 66.4035 147.335 66.8079 147.478C67.2123 147.621 67.5752 147.844 67.8967 148.149C68.2182 148.454 68.4717 148.85 68.6573 149.337C68.8429 149.821 68.9357 150.41 68.9357 151.102V151.629H62.8654V150.516H67.4791C67.4791 150.125 67.3995 149.778 67.2404 149.477C67.0813 149.172 66.8576 148.931 66.5693 148.756C66.2842 148.58 65.9495 148.492 65.565 148.492C65.1474 148.492 64.7828 148.595 64.4713 148.8C64.163 149.003 63.9244 149.268 63.7553 149.596C63.5896 149.921 63.5068 150.274 63.5068 150.655V151.525C63.5068 152.035 63.5963 152.469 63.7752 152.827C63.9575 153.185 64.2111 153.459 64.5359 153.648C64.8607 153.833 65.2402 153.926 65.6744 153.926C65.9561 153.926 66.213 153.886 66.445 153.807C66.677 153.724 66.8775 153.601 67.0465 153.439C67.2156 153.277 67.3448 153.076 67.4343 152.837L68.8413 153.091C68.7286 153.505 68.5264 153.868 68.2348 154.18C67.9464 154.488 67.5835 154.728 67.146 154.901C66.7118 155.07 66.2163 155.154 65.6595 155.154ZM73.5217 155.154C72.7826 155.154 72.1462 154.987 71.6126 154.652C71.0823 154.314 70.6746 153.848 70.3896 153.255C70.1045 152.662 69.962 151.982 69.962 151.217C69.962 150.441 70.1079 149.757 70.3995 149.163C70.6912 148.567 71.1022 148.101 71.6325 147.766C72.1628 147.432 72.7876 147.264 73.5068 147.264C74.0868 147.264 74.6038 147.372 75.0579 147.587C75.512 147.799 75.8782 148.098 76.1566 148.482C76.4384 148.867 76.6057 149.316 76.6588 149.83H75.212C75.1325 149.472 74.9502 149.163 74.6652 148.905C74.3834 148.646 74.0056 148.517 73.5316 148.517C73.1173 148.517 72.7544 148.626 72.4429 148.845C72.1346 149.061 71.8943 149.369 71.722 149.77C71.5496 150.168 71.4635 150.638 71.4635 151.182C71.4635 151.739 71.548 152.219 71.717 152.624C71.886 153.028 72.1247 153.341 72.4329 153.563C72.7445 153.785 73.1107 153.896 73.5316 153.896C73.8134 153.896 74.0686 153.845 74.2973 153.742C74.5293 153.636 74.7232 153.485 74.8789 153.29C75.038 153.094 75.1491 152.859 75.212 152.584H76.6588C76.6057 153.078 76.445 153.518 76.1765 153.906C75.9081 154.294 75.5484 154.599 75.0977 154.821C74.6502 155.043 74.1249 155.154 73.5217 155.154ZM81.5331 147.364V148.557H77.3619V147.364H81.5331ZM78.4805 145.534H79.967V152.758C79.967 153.046 80.0101 153.263 80.0963 153.409C80.1824 153.552 80.2935 153.649 80.4294 153.702C80.5686 153.752 80.7194 153.777 80.8818 153.777C81.0011 153.777 81.1055 153.769 81.195 153.752C81.2845 153.736 81.3541 153.722 81.4038 153.712L81.6723 154.94C81.5861 154.973 81.4635 155.007 81.3044 155.04C81.1453 155.076 80.9464 155.096 80.7078 155.099C80.3167 155.106 79.9521 155.036 79.614 154.891C79.276 154.745 79.0025 154.519 78.7937 154.214C78.5849 153.91 78.4805 153.527 78.4805 153.066V145.534ZM88.4354 150.545L88.5299 148.447L86.76 149.586L86.2181 148.641L88.0974 147.682L86.2181 146.722L86.76 145.778L88.5299 146.916L88.4354 144.818H89.5143L89.4198 146.916L91.1897 145.778L91.7316 146.722L89.8523 147.682L91.7316 148.641L91.1897 149.586L89.4198 148.447L89.5143 150.545H88.4354ZM100.403 147.364V148.557H96.0872V147.364H100.403ZM97.2705 155V146.479C97.2705 146.001 97.3749 145.605 97.5837 145.29C97.7925 144.972 98.0693 144.735 98.4139 144.58C98.7586 144.42 99.1332 144.341 99.5375 144.341C99.8358 144.341 100.091 144.366 100.303 144.415C100.515 144.462 100.673 144.505 100.775 144.545L100.427 145.748C100.358 145.728 100.268 145.705 100.159 145.678C100.05 145.648 99.917 145.634 99.7612 145.634C99.4 145.634 99.1415 145.723 98.9857 145.902C98.8332 146.081 98.757 146.339 98.757 146.678V155H97.2705ZM101.656 155V147.364H103.093V148.577H103.173C103.312 148.166 103.557 147.843 103.908 147.607C104.263 147.369 104.664 147.249 105.112 147.249C105.204 147.249 105.314 147.253 105.44 147.259C105.569 147.266 105.67 147.274 105.743 147.284V148.706C105.683 148.689 105.577 148.671 105.425 148.651C105.272 148.628 105.12 148.616 104.967 148.616C104.616 148.616 104.303 148.691 104.028 148.84C103.756 148.986 103.541 149.19 103.381 149.452C103.222 149.71 103.143 150.005 103.143 150.337V155H101.656ZM109.693 155.154C108.977 155.154 108.352 154.99 107.818 154.662C107.285 154.334 106.87 153.875 106.575 153.285C106.28 152.695 106.133 152.005 106.133 151.217C106.133 150.424 106.28 149.732 106.575 149.138C106.87 148.545 107.285 148.085 107.818 147.756C108.352 147.428 108.977 147.264 109.693 147.264C110.408 147.264 111.033 147.428 111.567 147.756C112.1 148.085 112.515 148.545 112.81 149.138C113.105 149.732 113.252 150.424 113.252 151.217C113.252 152.005 113.105 152.695 112.81 153.285C112.515 153.875 112.1 154.334 111.567 154.662C111.033 154.99 110.408 155.154 109.693 155.154ZM109.698 153.906C110.162 153.906 110.546 153.784 110.851 153.538C111.156 153.293 111.381 152.967 111.527 152.559C111.676 152.151 111.751 151.702 111.751 151.212C111.751 150.724 111.676 150.277 111.527 149.869C111.381 149.458 111.156 149.129 110.851 148.88C110.546 148.631 110.162 148.507 109.698 148.507C109.23 148.507 108.842 148.631 108.534 148.88C108.229 149.129 108.002 149.458 107.853 149.869C107.707 150.277 107.634 150.724 107.634 151.212C107.634 151.702 107.707 152.151 107.853 152.559C108.002 152.967 108.229 153.293 108.534 153.538C108.842 153.784 109.23 153.906 109.698 153.906ZM114.631 155V147.364H116.058V148.607H116.153C116.312 148.186 116.572 147.857 116.933 147.622C117.295 147.384 117.727 147.264 118.231 147.264C118.741 147.264 119.169 147.384 119.514 147.622C119.862 147.861 120.118 148.189 120.284 148.607H120.364C120.546 148.199 120.836 147.874 121.234 147.632C121.631 147.387 122.105 147.264 122.656 147.264C123.348 147.264 123.913 147.481 124.351 147.915C124.792 148.35 125.012 149.004 125.012 149.879V155H123.526V150.018C123.526 149.501 123.385 149.127 123.103 148.895C122.821 148.663 122.485 148.547 122.094 148.547C121.61 148.547 121.234 148.696 120.965 148.994C120.697 149.289 120.563 149.669 120.563 150.133V155H119.081V149.924C119.081 149.51 118.952 149.177 118.693 148.925C118.435 148.673 118.098 148.547 117.684 148.547C117.402 148.547 117.142 148.621 116.903 148.771C116.668 148.916 116.478 149.12 116.332 149.382C116.189 149.644 116.118 149.947 116.118 150.292V155H114.631ZM130.15 157.864V147.364H131.601V148.602H131.726C131.812 148.442 131.936 148.259 132.098 148.05C132.261 147.841 132.486 147.659 132.775 147.503C133.063 147.344 133.444 147.264 133.918 147.264C134.535 147.264 135.085 147.42 135.569 147.732C136.053 148.043 136.432 148.492 136.707 149.079C136.986 149.665 137.125 150.371 137.125 151.197C137.125 152.022 136.987 152.73 136.712 153.32C136.437 153.906 136.059 154.359 135.579 154.677C135.098 154.992 134.549 155.149 133.933 155.149C133.469 155.149 133.089 155.071 132.794 154.915C132.503 154.76 132.274 154.577 132.108 154.369C131.943 154.16 131.815 153.974 131.726 153.812H131.636V157.864H130.15ZM131.606 151.182C131.606 151.719 131.684 152.189 131.84 152.594C131.996 152.998 132.221 153.315 132.516 153.543C132.811 153.769 133.172 153.881 133.6 153.881C134.044 153.881 134.415 153.764 134.714 153.528C135.012 153.29 135.237 152.967 135.39 152.559C135.545 152.151 135.623 151.692 135.623 151.182C135.623 150.678 135.547 150.226 135.395 149.825C135.245 149.424 135.02 149.107 134.718 148.875C134.42 148.643 134.047 148.527 133.6 148.527C133.169 148.527 132.804 148.638 132.506 148.86C132.211 149.082 131.987 149.392 131.835 149.79C131.683 150.187 131.606 150.652 131.606 151.182ZM140.733 155.169C140.249 155.169 139.811 155.08 139.42 154.901C139.029 154.718 138.719 154.455 138.49 154.11C138.265 153.765 138.152 153.343 138.152 152.842C138.152 152.411 138.235 152.057 138.401 151.778C138.567 151.5 138.79 151.28 139.072 151.117C139.354 150.955 139.669 150.832 140.017 150.749C140.365 150.666 140.719 150.603 141.081 150.56C141.538 150.507 141.909 150.464 142.194 150.431C142.479 150.395 142.686 150.337 142.816 150.257C142.945 150.178 143.01 150.048 143.01 149.869V149.835C143.01 149.4 142.887 149.064 142.642 148.825C142.4 148.587 142.038 148.467 141.558 148.467C141.057 148.467 140.663 148.578 140.375 148.8C140.09 149.019 139.892 149.263 139.783 149.531L138.386 149.213C138.552 148.749 138.794 148.375 139.112 148.089C139.433 147.801 139.803 147.592 140.22 147.463C140.638 147.33 141.077 147.264 141.538 147.264C141.843 147.264 142.166 147.301 142.507 147.374C142.852 147.443 143.174 147.572 143.472 147.761C143.773 147.95 144.02 148.22 144.213 148.572C144.405 148.92 144.501 149.372 144.501 149.929V155H143.049V153.956H142.99C142.894 154.148 142.749 154.337 142.557 154.523C142.365 154.708 142.118 154.862 141.816 154.985C141.515 155.108 141.153 155.169 140.733 155.169ZM141.056 153.976C141.467 153.976 141.818 153.895 142.11 153.732C142.405 153.57 142.628 153.358 142.781 153.096C142.937 152.831 143.014 152.547 143.014 152.246V151.261C142.961 151.314 142.859 151.364 142.706 151.411C142.557 151.454 142.386 151.492 142.194 151.525C142.002 151.555 141.815 151.583 141.632 151.609C141.45 151.633 141.298 151.652 141.175 151.669C140.887 151.705 140.623 151.767 140.385 151.853C140.149 151.939 139.96 152.063 139.818 152.226C139.679 152.385 139.609 152.597 139.609 152.862C139.609 153.23 139.745 153.509 140.017 153.697C140.288 153.883 140.635 153.976 141.056 153.976ZM146.867 157.864C146.645 157.864 146.443 157.845 146.261 157.809C146.078 157.776 145.942 157.739 145.853 157.7L146.211 156.482C146.483 156.554 146.725 156.586 146.937 156.576C147.149 156.566 147.336 156.487 147.499 156.337C147.664 156.188 147.81 155.945 147.936 155.607L148.12 155.099L145.326 147.364H146.917L148.851 153.29H148.93L150.864 147.364H152.46L149.313 156.019C149.167 156.417 148.982 156.753 148.756 157.028C148.531 157.307 148.262 157.516 147.951 157.655C147.639 157.794 147.278 157.864 146.867 157.864ZM153.577 155V147.364H155.004V148.607H155.098C155.258 148.186 155.518 147.857 155.879 147.622C156.24 147.384 156.673 147.264 157.177 147.264C157.687 147.264 158.115 147.384 158.459 147.622C158.807 147.861 159.064 148.189 159.23 148.607H159.309C159.492 148.199 159.782 147.874 160.179 147.632C160.577 147.387 161.051 147.264 161.601 147.264C162.294 147.264 162.859 147.481 163.297 147.915C163.737 148.35 163.958 149.004 163.958 149.879V155H162.471V150.018C162.471 149.501 162.33 149.127 162.049 148.895C161.767 148.663 161.431 148.547 161.04 148.547C160.556 148.547 160.179 148.696 159.911 148.994C159.643 149.289 159.508 149.669 159.508 150.133V155H158.027V149.924C158.027 149.51 157.897 149.177 157.639 148.925C157.38 148.673 157.044 148.547 156.63 148.547C156.348 148.547 156.088 148.621 155.849 148.771C155.614 148.916 155.423 149.12 155.277 149.382C155.135 149.644 155.064 149.947 155.064 150.292V155H153.577ZM168.961 155.154C168.209 155.154 167.561 154.993 167.018 154.672C166.477 154.347 166.06 153.891 165.765 153.305C165.473 152.715 165.327 152.024 165.327 151.232C165.327 150.449 165.473 149.76 165.765 149.163C166.06 148.567 166.471 148.101 166.998 147.766C167.528 147.432 168.148 147.264 168.857 147.264C169.288 147.264 169.706 147.335 170.11 147.478C170.514 147.621 170.877 147.844 171.199 148.149C171.52 148.454 171.774 148.85 171.959 149.337C172.145 149.821 172.238 150.41 172.238 151.102V151.629H166.167V150.516H170.781C170.781 150.125 170.701 149.778 170.542 149.477C170.383 149.172 170.16 148.931 169.871 148.756C169.586 148.58 169.251 148.492 168.867 148.492C168.449 148.492 168.085 148.595 167.773 148.8C167.465 149.003 167.226 149.268 167.057 149.596C166.892 149.921 166.809 150.274 166.809 150.655V151.525C166.809 152.035 166.898 152.469 167.077 152.827C167.259 153.185 167.513 153.459 167.838 153.648C168.163 153.833 168.542 153.926 168.976 153.926C169.258 153.926 169.515 153.886 169.747 153.807C169.979 153.724 170.179 153.601 170.348 153.439C170.518 153.277 170.647 153.076 170.736 152.837L172.143 153.091C172.031 153.505 171.828 153.868 171.537 154.18C171.248 154.488 170.885 154.728 170.448 154.901C170.014 155.07 169.518 155.154 168.961 155.154ZM175.094 150.466V155H173.607V147.364H175.034V148.607H175.128C175.304 148.202 175.579 147.877 175.954 147.632C176.331 147.387 176.807 147.264 177.38 147.264C177.901 147.264 178.357 147.374 178.748 147.592C179.139 147.808 179.442 148.129 179.657 148.557C179.873 148.984 179.981 149.513 179.981 150.143V155H178.494V150.322C178.494 149.768 178.35 149.336 178.062 149.024C177.773 148.709 177.377 148.552 176.873 148.552C176.529 148.552 176.222 148.626 175.954 148.776C175.688 148.925 175.478 149.143 175.322 149.432C175.17 149.717 175.094 150.062 175.094 150.466ZM185.259 147.364V148.557H181.088V147.364H185.259ZM182.206 145.534H183.693V152.758C183.693 153.046 183.736 153.263 183.822 153.409C183.908 153.552 184.019 153.649 184.155 153.702C184.294 153.752 184.445 153.777 184.608 153.777C184.727 153.777 184.831 153.769 184.921 153.752C185.01 153.736 185.08 153.722 185.13 153.712L185.398 154.94C185.312 154.973 185.189 155.007 185.03 155.04C184.871 155.076 184.672 155.096 184.434 155.099C184.042 155.106 183.678 155.036 183.34 154.891C183.002 154.745 182.728 154.519 182.519 154.214C182.311 153.91 182.206 153.527 182.206 153.066V145.534ZM192.222 149.228L190.875 149.467C190.819 149.294 190.729 149.13 190.607 148.974C190.487 148.819 190.325 148.691 190.119 148.592C189.914 148.492 189.657 148.442 189.349 148.442C188.928 148.442 188.577 148.537 188.295 148.726C188.013 148.911 187.872 149.152 187.872 149.447C187.872 149.702 187.967 149.907 188.156 150.063C188.345 150.219 188.65 150.347 189.07 150.446L190.284 150.724C190.986 150.887 191.51 151.137 191.855 151.475C192.199 151.813 192.372 152.252 192.372 152.793C192.372 153.25 192.239 153.658 191.974 154.016C191.712 154.37 191.346 154.649 190.875 154.851C190.408 155.053 189.866 155.154 189.249 155.154C188.394 155.154 187.697 154.972 187.156 154.607C186.616 154.239 186.285 153.717 186.162 153.041L187.599 152.822C187.688 153.197 187.872 153.48 188.151 153.673C188.429 153.862 188.792 153.956 189.239 153.956C189.727 153.956 190.116 153.855 190.408 153.653C190.699 153.447 190.845 153.197 190.845 152.902C190.845 152.663 190.756 152.463 190.577 152.3C190.401 152.138 190.131 152.015 189.766 151.933L188.474 151.649C187.761 151.487 187.234 151.228 186.893 150.874C186.555 150.519 186.386 150.07 186.386 149.526C186.386 149.076 186.512 148.681 186.764 148.343C187.016 148.005 187.364 147.741 187.808 147.553C188.252 147.36 188.761 147.264 189.334 147.264C190.159 147.264 190.809 147.443 191.283 147.801C191.757 148.156 192.07 148.631 192.222 149.228ZM199.18 155V156.263H192.712V155H199.18ZM200.528 157.864V147.364H201.98V148.602H202.104C202.19 148.442 202.314 148.259 202.477 148.05C202.639 147.841 202.865 147.659 203.153 147.503C203.441 147.344 203.823 147.264 204.297 147.264C204.913 147.264 205.463 147.42 205.947 147.732C206.431 148.043 206.81 148.492 207.086 149.079C207.364 149.665 207.503 150.371 207.503 151.197C207.503 152.022 207.366 152.73 207.091 153.32C206.815 153.906 206.438 154.359 205.957 154.677C205.476 154.992 204.928 155.149 204.311 155.149C203.847 155.149 203.468 155.071 203.173 154.915C202.881 154.76 202.653 154.577 202.487 154.369C202.321 154.16 202.194 153.974 202.104 153.812H202.015V157.864H200.528ZM201.985 151.182C201.985 151.719 202.063 152.189 202.218 152.594C202.374 152.998 202.6 153.315 202.895 153.543C203.189 153.769 203.551 153.881 203.978 153.881C204.422 153.881 204.794 153.764 205.092 153.528C205.39 153.29 205.616 152.967 205.768 152.559C205.924 152.151 206.002 151.692 206.002 151.182C206.002 150.678 205.926 150.226 205.773 149.825C205.624 149.424 205.399 149.107 205.097 148.875C204.799 148.643 204.426 148.527 203.978 148.527C203.547 148.527 203.183 148.638 202.885 148.86C202.59 149.082 202.366 149.392 202.213 149.79C202.061 150.187 201.985 150.652 201.985 151.182ZM211.111 155.169C210.627 155.169 210.19 155.08 209.798 154.901C209.407 154.718 209.097 154.455 208.869 154.11C208.643 153.765 208.531 153.343 208.531 152.842C208.531 152.411 208.614 152.057 208.779 151.778C208.945 151.5 209.169 151.28 209.45 151.117C209.732 150.955 210.047 150.832 210.395 150.749C210.743 150.666 211.098 150.603 211.459 150.56C211.916 150.507 212.288 150.464 212.573 150.431C212.858 150.395 213.065 150.337 213.194 150.257C213.323 150.178 213.388 150.048 213.388 149.869V149.835C213.388 149.4 213.265 149.064 213.02 148.825C212.778 148.587 212.417 148.467 211.936 148.467C211.436 148.467 211.041 148.578 210.753 148.8C210.468 149.019 210.271 149.263 210.161 149.531L208.764 149.213C208.93 148.749 209.172 148.375 209.49 148.089C209.812 147.801 210.181 147.592 210.599 147.463C211.017 147.33 211.456 147.264 211.916 147.264C212.221 147.264 212.544 147.301 212.886 147.374C213.231 147.443 213.552 147.572 213.85 147.761C214.152 147.95 214.399 148.22 214.591 148.572C214.783 148.92 214.879 149.372 214.879 149.929V155H213.428V153.956H213.368C213.272 154.148 213.128 154.337 212.936 154.523C212.743 154.708 212.496 154.862 212.195 154.985C211.893 155.108 211.532 155.169 211.111 155.169ZM211.434 153.976C211.845 153.976 212.196 153.895 212.488 153.732C212.783 153.57 213.007 153.358 213.159 153.096C213.315 152.831 213.393 152.547 213.393 152.246V151.261C213.34 151.314 213.237 151.364 213.085 151.411C212.936 151.454 212.765 151.492 212.573 151.525C212.38 151.555 212.193 151.583 212.011 151.609C211.829 151.633 211.676 151.652 211.553 151.669C211.265 151.705 211.002 151.767 210.763 151.853C210.528 151.939 210.339 152.063 210.196 152.226C210.057 152.385 209.987 152.597 209.987 152.862C209.987 153.23 210.123 153.509 210.395 153.697C210.667 153.883 211.013 153.976 211.434 153.976ZM217.246 157.864C217.023 157.864 216.821 157.845 216.639 157.809C216.457 157.776 216.321 157.739 216.231 157.7L216.589 156.482C216.861 156.554 217.103 156.586 217.315 156.576C217.527 156.566 217.715 156.487 217.877 156.337C218.043 156.188 218.189 155.945 218.314 155.607L218.498 155.099L215.704 147.364H217.295L219.229 153.29H219.309L221.243 147.364H222.839L219.692 156.019C219.546 156.417 219.36 156.753 219.135 157.028C218.909 157.307 218.641 157.516 218.329 157.655C218.018 157.794 217.657 157.864 217.246 157.864ZM223.956 155V147.364H225.382V148.607H225.477C225.636 148.186 225.896 147.857 226.257 147.622C226.619 147.384 227.051 147.264 227.555 147.264C228.065 147.264 228.493 147.384 228.838 147.622C229.186 147.861 229.443 148.189 229.608 148.607H229.688C229.87 148.199 230.16 147.874 230.558 147.632C230.956 147.387 231.43 147.264 231.98 147.264C232.672 147.264 233.238 147.481 233.675 147.915C234.116 148.35 234.336 149.004 234.336 149.879V155H232.85V150.018C232.85 149.501 232.709 149.127 232.427 148.895C232.145 148.663 231.809 148.547 231.418 148.547C230.934 148.547 230.558 148.696 230.289 148.994C230.021 149.289 229.887 149.669 229.887 150.133V155H228.405V149.924C228.405 149.51 228.276 149.177 228.017 148.925C227.759 148.673 227.422 148.547 227.008 148.547C226.726 148.547 226.466 148.621 226.228 148.771C225.992 148.916 225.802 149.12 225.656 149.382C225.513 149.644 225.442 149.947 225.442 150.292V155H223.956ZM239.34 155.154C238.587 155.154 237.94 154.993 237.396 154.672C236.856 154.347 236.438 153.891 236.143 153.305C235.851 152.715 235.706 152.024 235.706 151.232C235.706 150.449 235.851 149.76 236.143 149.163C236.438 148.567 236.849 148.101 237.376 147.766C237.906 147.432 238.526 147.264 239.235 147.264C239.666 147.264 240.084 147.335 240.488 147.478C240.893 147.621 241.256 147.844 241.577 148.149C241.899 148.454 242.152 148.85 242.338 149.337C242.523 149.821 242.616 150.41 242.616 151.102V151.629H236.546V150.516H241.159C241.159 150.125 241.08 149.778 240.921 149.477C240.762 149.172 240.538 148.931 240.25 148.756C239.965 148.58 239.63 148.492 239.245 148.492C238.828 148.492 238.463 148.595 238.152 148.8C237.843 149.003 237.605 149.268 237.436 149.596C237.27 149.921 237.187 150.274 237.187 150.655V151.525C237.187 152.035 237.277 152.469 237.456 152.827C237.638 153.185 237.891 153.459 238.216 153.648C238.541 153.833 238.921 153.926 239.355 153.926C239.636 153.926 239.893 153.886 240.125 153.807C240.357 153.724 240.558 153.601 240.727 153.439C240.896 153.277 241.025 153.076 241.115 152.837L242.522 153.091C242.409 153.505 242.207 153.868 241.915 154.18C241.627 154.488 241.264 154.728 240.826 154.901C240.392 155.07 239.897 155.154 239.34 155.154ZM245.472 150.466V155H243.985V147.364H245.412V148.607H245.507C245.682 148.202 245.958 147.877 246.332 147.632C246.71 147.387 247.186 147.264 247.759 147.264C248.279 147.264 248.735 147.374 249.126 147.592C249.517 147.808 249.82 148.129 250.036 148.557C250.251 148.984 250.359 149.513 250.359 150.143V155H248.873V150.322C248.873 149.768 248.728 149.336 248.44 149.024C248.152 148.709 247.756 148.552 247.252 148.552C246.907 148.552 246.601 148.626 246.332 148.776C246.067 148.925 245.856 149.143 245.701 149.432C245.548 149.717 245.472 150.062 245.472 150.466ZM255.637 147.364V148.557H251.466V147.364H255.637ZM252.585 145.534H254.071V152.758C254.071 153.046 254.114 153.263 254.2 153.409C254.287 153.552 254.398 153.649 254.534 153.702C254.673 153.752 254.824 153.777 254.986 153.777C255.105 153.777 255.21 153.769 255.299 153.752C255.389 153.736 255.458 153.722 255.508 153.712L255.776 154.94C255.69 154.973 255.568 155.007 255.409 155.04C255.25 155.076 255.051 155.096 254.812 155.099C254.421 155.106 254.056 155.036 253.718 154.891C253.38 154.745 253.107 154.519 252.898 154.214C252.689 153.91 252.585 153.527 252.585 153.066V145.534Z" fill="#212121"/>
<path d="M39.0206 124.864V120.797H38.946C38.8532 120.982 38.719 121.18 38.5433 121.388C38.3677 121.594 38.1357 121.77 37.8473 121.915C37.5589 122.061 37.196 122.134 36.7585 122.134C36.1586 122.134 35.6217 121.98 35.1477 121.672C34.6738 121.364 34.2992 120.916 34.0241 120.33C33.7491 119.743 33.6115 119.03 33.6115 118.192C33.6115 117.343 33.7507 116.627 34.0291 116.044C34.3108 115.457 34.6903 115.015 35.1676 114.717C35.6449 114.415 36.1768 114.264 36.7635 114.264C37.2109 114.264 37.5788 114.34 37.8672 114.493C38.1555 114.642 38.3842 114.823 38.5533 115.035C38.7223 115.244 38.8532 115.441 38.946 115.626H39.0554V114.364H40.8253V124.864H39.0206ZM37.2607 120.658C37.6418 120.658 37.9666 120.555 38.2351 120.349C38.5036 120.141 38.7074 119.851 38.8466 119.479C38.9858 119.108 39.0554 118.676 39.0554 118.182C39.0554 117.688 38.9858 117.259 38.8466 116.894C38.7107 116.53 38.5085 116.246 38.2401 116.044C37.9749 115.842 37.6484 115.741 37.2607 115.741C36.8596 115.741 36.5249 115.845 36.2564 116.054C35.9879 116.263 35.7857 116.551 35.6499 116.919C35.514 117.287 35.446 117.708 35.446 118.182C35.446 118.659 35.514 119.085 35.6499 119.46C35.7891 119.831 35.9929 120.124 36.2614 120.339C36.5331 120.552 36.8662 120.658 37.2607 120.658ZM47.2619 118.788V114.364H49.0616V122H47.3166V120.643H47.237C47.0647 121.07 46.7813 121.42 46.3869 121.692C45.9958 121.964 45.5136 122.099 44.9402 122.099C44.4397 122.099 43.9972 121.988 43.6128 121.766C43.2316 121.541 42.9333 121.214 42.7179 120.787C42.5024 120.356 42.3947 119.836 42.3947 119.226V114.364H44.1944V118.947C44.1944 119.431 44.327 119.816 44.5922 120.101C44.8573 120.386 45.2053 120.528 45.6362 120.528C45.9013 120.528 46.1582 120.464 46.4068 120.335C46.6554 120.205 46.8592 120.013 47.0183 119.758C47.1807 119.499 47.2619 119.176 47.2619 118.788ZM54.013 122.149C53.2474 122.149 52.5861 121.99 52.0293 121.672C51.4758 121.35 51.0499 120.896 50.7516 120.31C50.4533 119.72 50.3042 119.025 50.3042 118.227C50.3042 117.441 50.4533 116.752 50.7516 116.158C51.0532 115.562 51.4742 115.098 52.0144 114.766C52.5546 114.432 53.1893 114.264 53.9185 114.264C54.3892 114.264 54.8333 114.34 55.2509 114.493C55.6718 114.642 56.043 114.874 56.3645 115.189C56.6893 115.504 56.9446 115.905 57.1302 116.392C57.3158 116.876 57.4086 117.453 57.4086 118.122V118.674H51.1493V117.461H55.6834C55.6801 117.116 55.6055 116.81 55.4597 116.541C55.3139 116.269 55.11 116.056 54.8482 115.9C54.5897 115.744 54.2881 115.666 53.9434 115.666C53.5755 115.666 53.2523 115.756 52.9739 115.935C52.6955 116.11 52.4784 116.342 52.3226 116.631C52.1702 116.916 52.0923 117.229 52.089 117.57V118.629C52.089 119.073 52.1702 119.455 52.3326 119.773C52.495 120.088 52.722 120.33 53.0137 120.499C53.3054 120.664 53.6467 120.747 54.0378 120.747C54.2997 120.747 54.5367 120.711 54.7488 120.638C54.9609 120.562 55.1448 120.451 55.3006 120.305C55.4564 120.159 55.5741 119.978 55.6536 119.763L57.334 119.952C57.2279 120.396 57.0258 120.784 56.7275 121.115C56.4325 121.443 56.0546 121.698 55.5939 121.881C55.1332 122.06 54.6063 122.149 54.013 122.149ZM58.6511 122V114.364H60.3962V115.636H60.4757C60.6149 115.196 60.8535 114.856 61.1916 114.617C61.533 114.375 61.9224 114.254 62.3599 114.254C62.4594 114.254 62.5704 114.259 62.693 114.269C62.819 114.276 62.9234 114.287 63.0062 114.304V115.96C62.93 115.933 62.809 115.91 62.6433 115.89C62.4809 115.867 62.3235 115.855 62.171 115.855C61.8429 115.855 61.5479 115.926 61.2861 116.069C61.0275 116.208 60.8237 116.402 60.6746 116.651C60.5254 116.899 60.4508 117.186 60.4508 117.511V122H58.6511ZM65.2729 124.864C65.0277 124.864 64.8006 124.844 64.5918 124.804C64.3863 124.768 64.2223 124.724 64.0996 124.675L64.5173 123.273C64.7791 123.349 65.0128 123.385 65.2182 123.382C65.4237 123.379 65.6044 123.314 65.7601 123.188C65.9192 123.066 66.0535 122.86 66.1628 122.572L66.317 122.159L63.5478 114.364H65.4569L67.2168 120.131H67.2964L69.0613 114.364H70.9753L67.9178 122.925C67.7753 123.329 67.5864 123.675 67.3511 123.964C67.1157 124.255 66.8274 124.478 66.486 124.63C66.1479 124.786 65.7436 124.864 65.2729 124.864Z" fill="#212121"/>
<path d="M35.7244 38.5256V43H33.9247V35.3636H35.6449V36.6612H35.7344C35.91 36.2337 36.1901 35.8939 36.5746 35.642C36.9624 35.3902 37.4413 35.2642 38.0114 35.2642C38.5384 35.2642 38.9974 35.3769 39.3885 35.6023C39.7829 35.8277 40.0878 36.1541 40.3033 36.5817C40.522 37.0092 40.6297 37.5279 40.6264 38.1378V43H38.8267V38.4162C38.8267 37.9058 38.6941 37.5064 38.429 37.218C38.1671 36.9297 37.8042 36.7855 37.3402 36.7855C37.0253 36.7855 36.7453 36.8551 36.5 36.9943C36.258 37.1302 36.0675 37.3274 35.9283 37.5859C35.7924 37.8445 35.7244 38.1577 35.7244 38.5256ZM44.3734 43.1541C43.8895 43.1541 43.4537 43.0679 43.0659 42.8956C42.6814 42.7199 42.3765 42.4614 42.1511 42.12C41.929 41.7786 41.818 41.3577 41.818 40.8572C41.818 40.4264 41.8976 40.0701 42.0566 39.7884C42.2157 39.5066 42.4328 39.2812 42.7079 39.1122C42.983 38.9432 43.2929 38.8156 43.6376 38.7294C43.9856 38.6399 44.3452 38.5753 44.7164 38.5355C45.1639 38.4891 45.5268 38.4477 45.8052 38.4112C46.0836 38.3714 46.2858 38.3118 46.4118 38.2322C46.541 38.1494 46.6057 38.0218 46.6057 37.8494V37.8196C46.6057 37.4451 46.4946 37.1551 46.2726 36.9496C46.0505 36.7441 45.7307 36.6413 45.313 36.6413C44.8722 36.6413 44.5226 36.7375 44.264 36.9297C44.0088 37.1219 43.8365 37.349 43.747 37.6108L42.0666 37.3722C42.1992 36.9081 42.4179 36.5204 42.7228 36.2088C43.0278 35.8939 43.4006 35.6586 43.8414 35.5028C44.2823 35.3438 44.7695 35.2642 45.3031 35.2642C45.671 35.2642 46.0372 35.3073 46.4018 35.3935C46.7664 35.4796 47.0995 35.6222 47.4011 35.821C47.7027 36.0166 47.9447 36.2834 48.127 36.6214C48.3126 36.9595 48.4054 37.3821 48.4054 37.8892V43H46.6753V41.951H46.6156C46.5062 42.1631 46.3521 42.362 46.1532 42.5476C45.9577 42.7299 45.7108 42.8774 45.4125 42.9901C45.1175 43.0994 44.7711 43.1541 44.3734 43.1541ZM44.8407 41.8317C45.202 41.8317 45.5152 41.7604 45.7804 41.6179C46.0455 41.4721 46.2494 41.2798 46.3919 41.0412C46.5377 40.8026 46.6106 40.5424 46.6106 40.2607V39.3608C46.5543 39.4072 46.4582 39.4503 46.3223 39.4901C46.1897 39.5298 46.0405 39.5646 45.8748 39.5945C45.7091 39.6243 45.545 39.6508 45.3826 39.674C45.2202 39.6972 45.0794 39.7171 44.9601 39.7337C44.6916 39.7701 44.4513 39.8298 44.2392 39.9126C44.0271 39.9955 43.8597 40.1115 43.737 40.2607C43.6144 40.4065 43.5531 40.5954 43.5531 40.8274C43.5531 41.1589 43.6741 41.4091 43.916 41.5781C44.158 41.7472 44.4662 41.8317 44.8407 41.8317ZM49.935 43V35.3636H51.6552V36.6612H51.7447C51.9038 36.2237 52.1673 35.8823 52.5352 35.6371C52.9031 35.3885 53.3422 35.2642 53.8526 35.2642C54.3697 35.2642 54.8055 35.3902 55.1602 35.642C55.5181 35.8906 55.77 36.2304 55.9159 36.6612H55.9954C56.1644 36.237 56.4495 35.8989 56.8505 35.647C57.2549 35.3918 57.7338 35.2642 58.2873 35.2642C58.99 35.2642 59.5633 35.4863 60.0075 35.9304C60.4516 36.3745 60.6737 37.0225 60.6737 37.8743V43H58.869V38.1527C58.869 37.6787 58.743 37.3324 58.4911 37.1136C58.2392 36.8916 57.931 36.7805 57.5664 36.7805C57.1322 36.7805 56.7925 36.9164 56.5472 37.1882C56.3053 37.4567 56.1843 37.8063 56.1843 38.2372V43H54.4194V38.0781C54.4194 37.6837 54.3001 37.3688 54.0614 37.1335C53.8261 36.8982 53.5179 36.7805 53.1367 36.7805C52.8782 36.7805 52.6429 36.8468 52.4308 36.9794C52.2186 37.1087 52.0496 37.2926 51.9237 37.5312C51.7977 37.7666 51.7347 38.0417 51.7347 38.3565V43H49.935ZM65.6002 43.1491C64.8345 43.1491 64.1733 42.9901 63.6165 42.6719C63.063 42.3504 62.6371 41.8963 62.3388 41.3097C62.0405 40.7197 61.8914 40.0253 61.8914 39.2266C61.8914 38.4411 62.0405 37.7517 62.3388 37.1584C62.6404 36.5618 63.0613 36.0978 63.6016 35.7663C64.1418 35.4316 64.7765 35.2642 65.5057 35.2642C65.9763 35.2642 66.4205 35.3404 66.8381 35.4929C67.259 35.642 67.6302 35.8741 67.9517 36.1889C68.2765 36.5038 68.5317 36.9048 68.7174 37.392C68.903 37.8759 68.9958 38.4527 68.9958 39.1222V39.674H62.7365V38.4609H67.2706C67.2673 38.1162 67.1927 37.8097 67.0469 37.5412C66.9011 37.2694 66.6972 37.0556 66.4354 36.8999C66.1769 36.7441 65.8753 36.6662 65.5306 36.6662C65.1627 36.6662 64.8395 36.7557 64.5611 36.9347C64.2827 37.1103 64.0656 37.3423 63.9098 37.6307C63.7574 37.9157 63.6795 38.2289 63.6762 38.5703V39.6293C63.6762 40.0734 63.7574 40.4545 63.9198 40.7727C64.0822 41.0876 64.3092 41.3295 64.6009 41.4986C64.8925 41.6643 65.2339 41.7472 65.625 41.7472C65.8869 41.7472 66.1238 41.7107 66.336 41.6378C66.5481 41.5616 66.732 41.4505 66.8878 41.3047C67.0436 41.1589 67.1612 40.9782 67.2408 40.7628L68.9212 40.9517C68.8151 41.3958 68.6129 41.7836 68.3147 42.1151C68.0197 42.4432 67.6418 42.6984 67.1811 42.8807C66.7204 43.0597 66.1934 43.1491 65.6002 43.1491Z" fill="#212121"/>
</svg>
